<svg width="190" height="90" viewBox="0 0 190 90" fill="none" xmlns="http://www.w3.org/2000/svg">
<path d="M55.4336 0.349609C56.8594 0.447266 57.8652 0.974609 58.4512 1.93164C59.0371 2.86914 59.3496 3.98242 59.3887 5.27148C59.4277 6.56055 59.3594 7.75195 59.1836 8.8457C58.4609 13.2012 57.4648 17.4785 56.1953 21.6777C56.1172 21.9512 56.0391 22.2344 55.9609 22.5273C55.2188 25.125 54.4668 27.7227 53.7051 30.3203C52.2012 35.3594 50.7656 40.4082 49.3984 45.4668C49.7695 45.5059 50.1309 45.5449 50.4824 45.584C50.7754 45.6621 50.9512 45.8184 51.0098 46.0527C51.0879 46.2676 51.0586 46.4727 50.9219 46.668C50.7852 46.8633 50.5703 46.9414 50.2773 46.9023C49.8672 46.8242 49.4668 46.7559 49.0762 46.6973C48.373 49.3145 47.7188 51.9512 47.1133 54.6074C46 59.4902 45.1309 64.4316 44.5059 69.4316C43.8809 74.4512 44.0176 79.4414 44.916 84.4023C45.1113 85.2617 45.3555 86.0918 45.6484 86.8926C45.7852 87.3027 45.7754 87.6836 45.6191 88.0352C45.4629 88.3867 45.1895 88.6406 44.7988 88.7969C44.3887 88.9336 43.998 88.9043 43.627 88.709C43.2559 88.5332 43.002 88.2305 42.8652 87.8008C42.6113 86.8438 42.4062 85.877 42.25 84.9004C41.8008 81.6191 41.7129 78.3184 41.9863 74.998C42.2598 71.6973 42.6895 68.4258 43.2754 65.1836C44.4473 58.875 45.873 52.625 47.5527 46.4336C40.6973 45.3398 33.7832 44.8613 26.8105 44.998C22.9434 50.4863 19.252 55.7109 15.7363 60.6719C12.2402 65.6328 9.34961 69.7246 7.06445 72.9473C4.79883 76.1895 3.66602 77.8105 3.66602 77.8105C3.25586 78.2988 2.79688 78.4941 2.28906 78.3965C1.80078 78.3184 1.42969 78.0547 1.17578 77.6055C0.921875 77.1758 0.960938 76.6777 1.29297 76.1113C1.46875 75.8379 3.66602 72.7129 7.88477 66.7363C12.1035 60.7598 17.1914 53.543 23.1484 45.0859C21.8008 45.1445 20.4531 45.2227 19.1055 45.3203C14.7305 45.6328 10.4336 46.4238 6.21484 47.6934C5.51172 47.8496 4.98438 47.7129 4.63281 47.2832C4.30078 46.8535 4.19336 46.375 4.31055 45.8477C4.44727 45.3008 4.87695 44.959 5.59961 44.8223C11.7324 44.1973 17.875 43.875 24.0273 43.8555C26.3906 40.4766 28.7637 37.0977 31.1465 33.7188C37.377 24.8906 42.7285 17.3027 47.2012 10.9551C51.6934 4.58789 54.0469 1.24805 54.2617 0.935547C54.5742 0.544922 54.9648 0.349609 55.4336 0.349609ZM54.2031 22.0293C54.2422 21.8926 54.291 21.707 54.3496 21.4727C54.6816 20.1836 55.1309 18.2402 55.6973 15.6426C56.2637 13.0449 56.6445 10.5449 56.8398 8.14258C57.0547 5.74023 56.8008 4.1875 56.0781 3.48438C55.4922 4.28516 52.4258 8.62109 46.8789 16.4922C41.332 24.3633 34.9062 33.4941 27.6016 43.8848C34.3789 43.9824 41.1367 44.4414 47.875 45.2617C48.7148 42.1562 49.5645 39.0605 50.4238 35.9746C51.7324 31.3457 52.9922 26.6973 54.2031 22.0293ZM59.2422 41.2188C59.2617 41.2188 59.2715 41.209 59.2715 41.1895C59.2715 41.209 59.2617 41.2188 59.2422 41.2188ZM65.7168 41.3945C64.3887 43.4648 63.1484 45.3398 61.9961 47.0195C61.0195 48.2695 59.9355 49.3633 58.7441 50.3008C57.5723 51.0039 56.6445 51.1406 55.9609 50.7109C55.2773 50.2812 54.8477 49.5684 54.6719 48.5723C54.4961 47.5762 54.6035 46.3457 54.9941 44.8809C55.6973 42.9082 56.293 41.7363 56.7812 41.3652C57.25 40.9941 57.6797 40.8867 58.0703 41.043C58.4805 41.1992 58.7344 41.4922 58.832 41.9219C58.9102 42.332 58.7051 42.7422 58.2168 43.1523H58.2754L58.2461 43.1816C57.543 44.5879 56.9961 45.8281 56.6055 46.9023C56.3711 47.918 56.4004 48.7676 56.6934 49.4512C57.1426 49.6465 57.6602 49.4902 58.2461 48.9824C58.832 48.4941 59.4082 47.8691 59.9746 47.1074C60.541 46.3262 61.0293 45.623 61.4395 44.998C61.6738 44.6465 61.8594 44.373 61.9961 44.1777C62.1523 43.9629 62.3086 43.7188 62.4648 43.4453C63.793 41.4531 65.0625 39.8613 66.2734 38.6699C66.5078 38.4746 66.7227 38.4453 66.918 38.582C67.1328 38.7188 67.3086 38.9434 67.4453 39.2559C67.5625 39.6465 67.416 40.5352 67.0059 41.9219C66.791 42.8203 66.6445 43.6699 66.5664 44.4707C66.4883 45.252 66.6152 45.9453 66.9473 46.5508C67.8066 47.3516 68.8125 47.7129 69.9648 47.6348C71.1367 47.5566 72.3086 47.2637 73.4805 46.7559C74.6719 46.248 75.707 45.7402 76.5859 45.2324C76.7227 45.1543 76.8691 45.0664 77.0254 44.9688C78.7051 44.0508 80.1895 42.918 81.4785 41.5703C81.5762 41.4531 81.6836 41.4141 81.8008 41.4531C81.918 41.4727 82.0059 41.5312 82.0645 41.6289C82.123 41.7266 82.1133 41.834 82.0352 41.9512C81.8398 42.1855 81.6348 42.3906 81.4199 42.5664C80.2285 43.4844 78.6953 44.5195 76.8203 45.6719C74.9648 46.8242 73.0703 47.6445 71.1367 48.1328C69.2227 48.6016 67.582 48.2793 66.2148 47.166C65.707 46.6387 65.4141 45.7891 65.3359 44.6172C65.2578 43.6602 65.3848 42.5859 65.7168 41.3945ZM100.639 41.4531C100.834 41.6875 100.805 41.9512 100.551 42.2441C100.316 42.5371 100.033 42.8203 99.7012 43.0938C99.4668 43.2891 99.3008 43.4453 99.2031 43.5625C98.4609 44.2266 97.2305 45.1055 95.5117 46.1992C93.793 47.293 91.9082 48.3086 89.8574 49.2461C87.8066 50.1836 85.9316 50.75 84.2324 50.9453C82.5332 51.1406 81.3418 50.6816 80.6582 49.5684C80.0137 47.9277 79.877 46.2188 80.248 44.4414C80.5996 42.6445 81.3027 41.0527 82.3574 39.666C82.9824 38.9238 83.7344 38.5137 84.6133 38.4355C85.4922 38.3574 86.0391 38.8848 86.2539 40.0176C86.3906 40.584 86.2246 41.209 85.7559 41.8926C85.2871 42.5566 84.7012 43.1719 83.998 43.7383C83.3145 44.3047 82.7188 44.6953 82.2109 44.9102C81.9766 46.1406 81.9082 47.1855 82.0059 48.0449C82.1621 49.2949 82.9043 49.9004 84.2324 49.8613C85.5801 49.8223 87.1426 49.4414 88.9199 48.7188C90.7168 47.9766 92.3867 47.166 93.9297 46.2871C95.4727 45.4082 96.5371 44.7441 97.123 44.2949C98.2363 43.5137 99.2227 42.5957 100.082 41.541C100.16 41.4434 100.248 41.3945 100.346 41.3945C100.463 41.375 100.561 41.3945 100.639 41.4531ZM84.4375 40.6328C83.5586 41.2383 82.9238 42.2344 82.5332 43.6211C83.0215 43.1719 83.4707 42.6738 83.8809 42.127C84.291 41.5605 84.4766 41.0625 84.4375 40.6328ZM100.287 41.541C100.697 41.1113 101.303 40.5352 102.104 39.8125C102.963 39.0508 103.705 38.4844 104.33 38.1133C104.701 37.957 105.053 37.9375 105.385 38.0547C105.736 38.1719 105.98 38.3965 106.117 38.7285C106.254 39.041 106.205 39.3828 105.971 39.7539C105.131 40.7109 104.457 41.7852 103.949 42.9766C103.441 44.168 103.295 45.3691 103.51 46.5801C103.9 47.9277 104.672 48.6895 105.824 48.8652C106.996 49.041 108.178 48.7676 109.369 48.0449C111.264 46.9512 112.992 45.623 114.555 44.0605C115.336 43.2988 116.068 42.498 116.752 41.6582C116.908 41.502 117.064 41.4434 117.221 41.4824C117.377 41.5215 117.484 41.6191 117.543 41.7754C117.602 41.9121 117.553 42.0586 117.396 42.2148C116.967 42.625 116.537 43.0352 116.107 43.4453C114.701 44.8516 113.207 46.1504 111.625 47.3418C110.043 48.5332 108.314 49.3145 106.439 49.6855C104.408 49.5879 103.119 48.7383 102.572 47.1367C102.025 45.5352 102.562 43.123 104.184 39.9004C104.281 39.6855 104.262 39.5684 104.125 39.5488C104.008 39.5293 103.637 39.6855 103.012 40.0176C102.406 40.3496 101.615 41.0625 100.639 42.1562L100.141 42.5957L99.8477 42.8887C99.6328 43.0254 99.4473 43.0547 99.291 42.9766C99.1152 42.8789 99.1445 42.7227 99.3789 42.5078L100.082 41.7754L100.287 41.541ZM78.3145 47.4297V47.4883C78.3145 47.4688 78.3047 47.459 78.2852 47.459L78.3145 47.4297ZM118.041 47.4297V47.4883C118.041 47.4688 118.031 47.459 118.012 47.459C118.031 47.4395 118.041 47.4297 118.041 47.4297ZM139.135 41.541C139.252 41.4238 139.369 41.3848 139.486 41.4238C139.604 41.4629 139.682 41.541 139.721 41.6582C139.779 41.7754 139.75 41.8926 139.633 42.0098C138.168 43.416 136.557 44.6172 134.799 45.6133C133.041 46.6094 131.205 47.4492 129.291 48.1328C125.326 49.5391 121.234 50.0078 117.016 49.5391L117.045 49.5098C117.045 49.5098 117.035 49.5098 117.016 49.5098C117.016 49.5098 117.016 49.5 117.016 49.4805C116.391 52.4688 115.639 55.3984 114.76 58.2695C113.861 61.1602 112.592 63.8945 110.951 66.4727C110.873 66.6094 110.756 66.6973 110.6 66.7363C110.424 66.7754 110.268 66.7559 110.131 66.6777C109.955 66.5801 109.857 66.2871 109.838 65.7988C109.818 65.3105 109.848 64.7637 109.926 64.1582C109.984 63.5527 110.043 63.0254 110.102 62.5762C110.141 62.3418 110.17 62.166 110.189 62.0488C111.029 57.2637 112.68 52.7715 115.141 48.5723C115.551 46.3262 116 44.0898 116.488 41.8633C116.645 41.375 116.928 41.0918 117.338 41.0137C117.748 40.9355 118.109 41.0234 118.422 41.2773C118.754 41.5312 118.871 41.9219 118.773 42.4492C118.637 42.918 118.5 43.3867 118.363 43.8555C119.477 42.4492 120.707 41.2969 122.055 40.3984C123.422 39.4805 124.77 39.334 126.098 39.959C127.758 41.248 128.422 42.4785 128.09 43.6504C127.777 44.8223 126.947 45.8477 125.6 46.7266C124.252 47.5859 122.885 48.2207 121.498 48.6309C124.232 48.748 126.957 48.3281 129.672 47.3711C132.387 46.4141 134.828 45.1348 136.996 43.5332C137.777 42.9277 138.49 42.2637 139.135 41.541ZM111.273 63.2207C112.543 60.3496 113.471 57.3613 114.057 54.2559C114.135 53.8457 114.213 53.4355 114.291 53.0254C112.768 56.2871 111.762 59.6855 111.273 63.2207ZM118.012 47.459C117.973 47.498 117.963 47.5371 117.982 47.5762L118.041 47.4883C118.217 47.625 118.412 47.7617 118.627 47.8984C119.232 47.957 119.857 47.8789 120.502 47.6641C120.697 47.6055 120.902 47.5566 121.117 47.5176C122.074 47.2637 123.129 46.8047 124.281 46.1406C125.453 45.4766 126.244 44.7051 126.654 43.8262C127.064 42.9473 126.625 42.0391 125.336 41.1016C124.672 40.8477 123.969 40.916 123.227 41.3066C122.504 41.6973 121.82 42.2148 121.176 42.8594C120.531 43.4844 120.004 44.0312 119.594 44.5C118.91 45.3594 118.256 46.248 117.631 47.166C117.689 47.1855 117.748 47.2148 117.807 47.2539C117.865 47.332 117.934 47.4004 118.012 47.459ZM159.701 41.5996C159.779 41.4629 159.887 41.4043 160.023 41.4238C160.16 41.4434 160.268 41.5117 160.346 41.6289C160.424 41.7266 160.424 41.8438 160.346 41.9805C159.779 42.7812 159.125 43.4941 158.383 44.1191C157.641 44.7246 156.869 45.3008 156.068 45.8477C155.932 45.9453 155.805 46.0332 155.688 46.1113C153.754 47.4395 151.889 48.4648 150.092 49.1875C148.295 49.8906 146.732 50.0273 145.404 49.5977C144.096 49.1484 143.178 47.8398 142.65 45.6719C141.361 47.5859 139.975 49.4316 138.49 51.209C137.709 51.9902 136.908 52.2148 136.088 51.8828C135.248 51.5312 134.916 50.7891 135.092 49.6562C135.893 46.1016 137.562 43.0156 140.102 40.3984C140.922 39.5586 141.928 38.8848 143.119 38.377C143.588 38.2012 143.969 38.2598 144.262 38.5527C144.574 38.8457 144.721 39.207 144.701 39.6367C144.682 40.0469 144.438 40.3496 143.969 40.5449C142.504 41.2871 141.273 42.3418 140.277 43.709C139.301 45.0566 138.539 46.5215 137.992 48.1035C139.594 46.0332 141.088 43.8848 142.475 41.6582C142.689 41.3262 142.973 41.1504 143.324 41.1309C143.695 41.1113 144.008 41.2188 144.262 41.4531C144.535 41.6875 144.662 42 144.643 42.3906C144.252 43.582 144.145 44.8125 144.32 46.082C144.516 47.332 145.258 48.2109 146.547 48.7188C148.48 48.6992 150.434 48.1523 152.406 47.0781C154.379 46.0039 156.137 44.8711 157.68 43.6797C158.48 43.0938 159.154 42.4004 159.701 41.5996ZM163.041 42.8008C163.061 42.8008 163.07 42.791 163.07 42.7715C163.07 42.791 163.061 42.8008 163.041 42.8008ZM158.236 51.1504L158.207 51.1211C158.207 51.1406 158.217 51.1504 158.236 51.1504ZM165.531 43.2109C166.176 42.6055 166.801 42.0781 167.406 41.6289C167.953 40.1445 168.49 39.0898 169.018 38.4648C169.369 38.0547 169.711 37.9082 170.043 38.0254C170.395 38.1426 170.639 38.3574 170.775 38.6699C170.795 38.709 170.805 38.748 170.805 38.7871C171.078 39.5879 170.932 40.2812 170.365 40.8672C170.033 41.1211 169.643 41.4238 169.193 41.7754C168.979 42.1465 168.783 42.5371 168.607 42.9473C168.1 44.1387 167.953 45.3398 168.168 46.5508C168.559 47.8984 169.33 48.6602 170.482 48.8359C171.654 49.0117 172.836 48.7383 174.027 48.0156C175.922 46.9219 177.65 45.5938 179.213 44.0312C179.994 43.2695 180.727 42.4688 181.41 41.6289C181.566 41.4727 181.723 41.4141 181.879 41.4531C182.035 41.4922 182.143 41.5801 182.201 41.7168C182.26 41.873 182.211 42.0293 182.055 42.1855L180.766 43.416C179.359 44.8223 177.865 46.1211 176.283 47.3125C174.701 48.5039 172.973 49.2852 171.098 49.6562C169.066 49.5586 167.787 48.7578 167.26 47.2539C166.85 46.0625 166.752 44.7637 166.967 43.3574C166.479 43.6895 165.951 44.0508 165.385 44.4414C163.705 45.9453 162.113 47.6055 160.609 49.4219C159.789 50.418 159.223 51.0918 158.91 51.4434C158.637 51.7168 158.324 51.834 157.973 51.7949C157.621 51.7559 157.338 51.5898 157.123 51.2969C156.908 51.0234 156.859 50.6914 156.977 50.3008C157.445 48.7578 158.002 47.2246 158.646 45.7012L159.32 43.8848V43.8555C159.594 43.1914 159.838 42.5078 160.053 41.8047C160.229 41.3359 160.521 41.0723 160.932 41.0137C161.342 40.9551 161.703 41.0625 162.016 41.3359C162.328 41.6094 162.416 41.9902 162.279 42.4785C161.85 43.8652 161.361 45.2422 160.814 46.6094C160.619 47.2344 160.307 48.0742 159.877 49.1289C160.463 48.4258 161.068 47.7422 161.693 47.0781C162.104 46.6484 162.494 46.2188 162.865 45.7891C162.963 45.6914 163.266 45.3984 163.773 44.9102C164.262 44.4023 164.848 43.8359 165.531 43.2109ZM187.709 39.2852C187.943 38.9141 188.246 38.7188 188.617 38.6992C189.008 38.6602 189.33 38.7676 189.584 39.0215C189.857 39.2559 189.945 39.5879 189.848 40.0176C188.48 45.9551 186.869 51.8438 185.014 57.6836C185.326 57.6445 185.59 57.6543 185.805 57.7129C186.039 57.7715 186.166 57.9473 186.186 58.2402C186.146 58.3574 186.078 58.4551 185.98 58.5332C185.883 58.6113 185.775 58.6406 185.658 58.6211C185.346 58.5625 185.033 58.543 184.721 58.5625C183.549 62.0977 182.143 65.5645 180.502 68.9629C178.979 72.0684 177.201 75.0566 175.17 77.9277C174.936 78.2402 174.643 78.4062 174.291 78.4258C173.92 78.4648 173.598 78.3574 173.324 78.1035C172.875 77.5957 172.602 76.668 172.504 75.3203C172.387 73.9922 172.514 72.6738 172.885 71.3652C173.568 68.9434 174.73 66.5312 176.371 64.1289C177.992 61.7266 179.965 59.8809 182.289 58.5918C183.715 54.4121 184.955 50.1836 186.01 45.9062C185.287 47.0586 184.467 48.1328 183.549 49.1289C182.279 50.4766 181.049 51.0527 179.857 50.8574C178.646 50.6621 178.07 49.6074 178.129 47.6934C178.363 46.1895 178.861 44.7637 179.623 43.416C180.385 42.0684 181.332 40.8477 182.465 39.7539C183.656 38.6992 184.662 38.0938 185.482 37.9375C186.303 37.7812 186.898 37.8691 187.27 38.2012C187.641 38.5332 187.748 38.9238 187.592 39.373C187.436 39.8027 186.986 40.0859 186.244 40.2227C185.346 40.418 184.389 41.0918 183.373 42.2441C182.377 43.377 181.586 44.627 181 45.9941C180.395 47.3418 180.258 48.4258 180.59 49.2461L180.443 49.1875C181.186 49.5 181.898 49.3242 182.582 48.6602C183.285 47.9961 183.92 47.1465 184.486 46.1113C185.072 45.0762 185.551 44.1484 185.922 43.3281C186.059 43.0352 186.186 42.7812 186.303 42.5664C186.557 41.9805 186.811 41.3848 187.064 40.7793C187.279 40.291 187.494 39.793 187.709 39.2852ZM174.027 75.6426C177.367 70.6035 180.004 65.2715 181.938 59.6465C179.887 60.9355 178.168 62.6836 176.781 64.8906C175.375 67.1172 174.418 69.3242 173.91 71.5117C173.891 71.5312 173.881 71.5605 173.881 71.5996C173.783 72.2051 173.715 72.8887 173.676 73.6504C173.637 74.4121 173.754 75.0762 174.027 75.6426Z" fill="black"/>
</svg>
