<svg width="608" height="74" viewBox="0 0 608 74" fill="none" xmlns="http://www.w3.org/2000/svg">
<g opacity="0.5">
<path fill-rule="evenodd" clip-rule="evenodd" d="M62.5703 27.9258C62.5703 45.9219 62.5772 46.7361 62.7413 48.1224C62.8355 48.917 62.9583 49.7777 63.0144 50.0353C63.5249 52.3812 64.5519 54.125 66.1463 55.3529C67.5971 56.4701 69.9382 57.1909 72.5479 57.3237L73.6516 57.3799L73.6283 51.5155C73.6156 48.2901 73.6156 44.1395 73.6283 42.2918L73.6516 38.9324L74.9228 40.2913C76.7216 42.2141 76.7578 42.253 77.4925 43.0553C77.8567 43.453 78.1755 43.7975 78.201 43.8209C78.2408 43.8576 81.2877 47.1604 82.0398 47.9821C82.1855 48.1413 82.3444 48.314 82.393 48.3659C82.4415 48.4179 83.1365 49.1691 83.9373 50.0353C84.7381 50.9014 85.4846 51.7059 85.5961 51.8229C85.7076 51.94 86.2444 52.5234 86.789 53.1194L87.7791 54.203L93.0989 54.2047C97.8093 54.2064 98.7095 54.175 98.3526 54.0221C98.3161 54.0065 97.9886 53.6681 97.6245 53.2701C97.2605 52.8722 96.9227 52.5043 96.874 52.4526C96.8252 52.4011 96.5419 52.0946 96.2443 51.7716C92.6111 47.8287 90.7584 45.8223 90.428 45.4727C90.3794 45.4214 90.1013 45.1152 89.8099 44.7924C89.2414 44.1627 88.7281 43.61 88.0786 42.9284C87.7263 42.5586 87.3435 42.1415 86.0131 40.6777C85.8674 40.5174 85.5207 40.1502 85.2426 39.8618C84.9646 39.5734 84.6592 39.2418 84.5639 39.1251C84.3912 38.9134 84.3912 38.9123 84.5839 38.7056C84.6901 38.5916 85.075 38.1734 85.4392 37.7762C85.8034 37.379 86.1411 37.0129 86.1897 36.9624C86.2618 36.8877 87.1666 35.9078 87.5142 35.5281C87.6621 35.3665 89.0973 33.8248 89.1917 33.7259C89.2404 33.6751 89.5384 33.3528 89.854 33.0097C90.1697 32.6665 90.4677 32.3442 90.5163 32.2933C90.5648 32.2425 90.7399 32.0476 90.9054 31.8604C91.0708 31.6732 91.5313 31.1752 91.9287 30.7538C92.326 30.3324 92.8064 29.8152 92.9964 29.6045C93.1864 29.3939 93.3629 29.2023 93.3887 29.1789C93.4145 29.1555 94.0887 28.4277 94.887 27.5615C95.6852 26.6953 96.3594 25.9675 96.3852 25.944C96.411 25.9206 96.7296 25.5759 97.0932 25.1779C97.4567 24.7799 97.9033 24.3011 98.0856 24.1138C98.2678 23.9265 98.4173 23.7445 98.4179 23.7094C98.4184 23.6744 96.0235 23.6456 93.0959 23.6456H87.7729L87.4939 23.9648C87.1162 24.3972 86.8126 24.7295 86.4246 25.1353C86.2455 25.3226 85.3052 26.3378 84.335 27.3912C83.3648 28.4447 82.5505 29.3258 82.5254 29.3492C82.5003 29.3726 81.6863 30.2536 80.7166 31.3071C79.747 32.3606 78.9321 33.2416 78.9058 33.265C78.8796 33.2885 78.3661 33.8439 77.7646 34.4994C77.1631 35.1549 76.4882 35.8827 76.2647 36.1168C76.0413 36.3509 75.5606 36.8676 75.1965 37.2649C74.8324 37.6623 74.461 38.0645 74.371 38.1587C74.281 38.253 74.1075 38.4547 73.9852 38.6068C73.863 38.759 73.7277 38.8835 73.6845 38.8835C73.6388 38.8835 73.6155 32.6632 73.6288 24.0287L73.6516 9.17383H68.1109H62.5703V27.9258ZM62.9436 60.6603C62.8576 60.7146 62.837 61.1281 62.8553 62.4275L62.8794 64.1239H63.1884H63.4974L63.524 63.53C63.5485 62.9832 63.6925 62.6342 63.8936 62.6342C63.9266 62.6342 64.2008 62.979 64.5032 63.4004L65.053 64.1665H65.4945C66.0089 64.1665 66.0383 64.2564 65.1502 63.1104C64.7908 62.6466 64.4809 62.2253 64.4615 62.174C64.442 62.1228 64.7233 61.7795 65.0865 61.4113C65.4496 61.043 65.7222 60.7033 65.6922 60.6566C65.6622 60.6098 65.4725 60.5894 65.2704 60.6114C64.9577 60.6454 64.8251 60.7307 64.377 61.1866C64.0874 61.481 63.791 61.7811 63.7182 61.8534C63.6 61.9707 63.581 61.912 63.5416 61.3093C63.4995 60.6643 63.4875 60.6327 63.2767 60.6117C63.1553 60.5995 63.0054 60.6214 62.9436 60.6603ZM66.3401 60.6456C66.3063 60.6781 66.2788 61.4846 66.2788 62.4378V64.171L67.5812 64.1475L68.8835 64.1239V63.826V63.528L67.8902 63.504L66.8969 63.4799V63.057V62.6342H67.7357H68.5745V62.3395V62.0447L67.7578 62.0203L66.941 61.9957V61.6552V61.3147L67.8953 61.2905L68.8497 61.2663L68.8224 60.95L68.7952 60.6337L67.5983 60.6101C66.9399 60.5972 66.3737 60.6131 66.3401 60.6456ZM69.3202 60.7004C69.2962 60.7605 69.5281 61.5554 69.8355 62.4668L70.3944 64.1239H70.7711H71.1478L71.5258 63.0173C72.1222 61.2714 72.283 60.7748 72.283 60.6798C72.283 60.631 72.1313 60.5911 71.9459 60.5911C71.5658 60.5911 71.6211 60.4809 71.0815 62.315C70.9472 62.7714 70.8058 63.145 70.7672 63.145C70.7286 63.145 70.6721 63.0397 70.6416 62.9109C70.4908 62.2739 69.9532 60.7113 69.8658 60.6563C69.7048 60.555 69.3672 60.5822 69.3202 60.7004ZM72.7446 60.6603C72.6586 60.7146 72.6379 61.1281 72.6563 62.4275L72.6803 64.1239H72.9893H73.2984V62.3788V60.6337L73.0776 60.6117C72.9562 60.5995 72.8064 60.6214 72.7446 60.6603ZM73.9807 60.6625C73.8947 60.7151 73.8741 61.1273 73.8924 62.4275L73.9165 64.1239H74.2255H74.5345L74.5787 62.9322L74.6228 61.7404L74.9675 62.3363C75.1571 62.664 75.4779 63.2003 75.6804 63.528C76.0477 64.1227 76.0494 64.1239 76.4394 64.1239H76.8302L76.8542 62.3981C76.8801 60.5232 76.8763 60.5081 76.3911 60.6255C76.1739 60.6781 76.1729 60.6836 76.1484 61.8478L76.1239 63.0173L75.8909 62.6342C75.7628 62.4235 75.5493 62.0596 75.4165 61.8255C74.97 61.0388 74.8172 60.8046 74.6807 60.6975C74.5277 60.5776 74.1503 60.5587 73.9807 60.6625ZM78.5914 60.7C78.5676 60.7599 78.5589 61.5549 78.5722 62.4664L78.5962 64.1239L78.9273 64.1503L79.2584 64.1768V63.0054C79.2584 61.7631 79.3224 61.6544 79.5518 62.5065C79.6274 62.7874 79.7616 63.2663 79.85 63.5706L80.0107 64.1239L80.3736 64.1496C80.6609 64.1699 80.7463 64.1433 80.7837 64.0219C80.8098 63.9376 80.9521 63.433 81.1001 62.9007C81.2481 62.3684 81.3909 61.9119 81.4174 61.8863C81.4441 61.8606 81.4658 62.3632 81.4658 63.0031V64.1665H81.819H82.1722V62.4305C82.1722 60.5217 82.1929 60.5898 81.6131 60.5924C81.213 60.5943 81.1072 60.6878 80.9761 61.1555C80.9122 61.3836 80.775 61.8766 80.6712 62.2511C80.4676 62.9856 80.3631 63.1677 80.2877 62.9195C79.9145 61.6906 79.6999 60.9249 79.6999 60.8217C79.6999 60.6558 79.5111 60.5911 79.0277 60.5911C78.79 60.5911 78.6176 60.6341 78.5914 60.7ZM82.8124 60.6475C82.6688 60.7033 82.66 62.7389 82.8011 63.2787C83.0485 64.2258 84.3568 64.5422 85.0924 63.8329C85.4374 63.5003 85.5264 63.085 85.527 61.8058L85.5275 60.6795L85.3069 60.6261C84.845 60.5143 84.8212 60.574 84.8198 61.8441C84.8184 63.1368 84.7497 63.3817 84.353 63.5086C84.0287 63.6123 83.5972 63.4426 83.4892 63.1687C83.4447 63.0559 83.4084 62.4531 83.4084 61.8291C83.4084 60.873 83.3864 60.6863 83.2687 60.6428C83.1097 60.584 82.972 60.5854 82.8124 60.6475ZM86.0966 60.7C86.0728 60.7599 86.0642 61.5549 86.0774 62.4664L86.1014 64.1239H86.4105H86.7195L86.7636 63.4632C86.7879 63.0997 86.8375 62.8028 86.874 62.8034C86.9105 62.8039 87.1488 62.8051 87.4038 62.8057C88.059 62.8076 88.1247 62.8706 88.1764 63.5461L88.2205 64.1239L88.5633 64.151L88.9062 64.1782L88.865 63.4924C88.8358 63.0059 88.7796 62.7595 88.6718 62.6447C88.5272 62.4906 88.5307 62.4715 88.7455 62.2482C89.2279 61.7462 88.9108 60.8904 88.1737 60.7044C87.6124 60.5628 86.1525 60.5597 86.0966 60.7ZM89.5597 60.6479C89.5273 60.6791 89.5008 61.4835 89.5008 62.4356V64.1665H89.806H90.1112L90.1371 63.5493L90.1631 62.9322L90.7857 62.8896C91.8023 62.82 92.2 62.4532 92.1308 61.6487C92.0614 60.8413 91.6347 60.6031 90.244 60.5949C89.9 60.5928 89.5921 60.6167 89.5597 60.6479ZM92.6306 60.7C92.6068 60.7599 92.5981 61.5549 92.6114 62.4664L92.6354 64.1239H92.9444H93.2535L93.279 63.3791L93.3045 62.6342H94.0481H94.7918L94.8173 63.3791L94.8428 64.1239H95.1518H95.4609L95.4848 62.4021L95.5087 60.6803L95.2863 60.6265C94.8586 60.5231 94.7987 60.6126 94.7987 61.3546V62.0383H94.0481H93.2976V61.3664C93.2976 60.8322 93.269 60.6839 93.1579 60.6428C92.9266 60.5573 92.6767 60.5843 92.6306 60.7ZM95.8213 60.6649C95.8004 60.6976 96.0279 61.1446 96.3272 61.658C96.8584 62.5698 96.8721 62.6095 96.9165 63.3578L96.9619 64.1239H97.271H97.58L97.6241 63.4004C97.6609 62.7982 97.709 62.6163 97.9111 62.3167C98.0447 62.1186 98.1539 61.9355 98.1539 61.9097C98.1539 61.8839 98.3107 61.5961 98.5023 61.27L98.8508 60.6772L98.6348 60.6249C98.2014 60.5201 98.0376 60.6459 97.6792 61.358C97.4909 61.7322 97.3093 62.0383 97.2755 62.0383C97.2417 62.0383 97.09 61.7797 96.9386 61.4637C96.7872 61.1477 96.6256 60.8362 96.5795 60.7715C96.4914 60.6479 95.8868 60.5628 95.8213 60.6649ZM88.126 61.4059C88.2974 61.5712 88.3032 61.7848 88.1419 61.9974C88.0463 62.1234 87.8795 62.167 87.3913 62.1936L86.7636 62.2278V61.75V61.2722H87.3755C87.8138 61.2722 88.0265 61.31 88.126 61.4059ZM91.2726 61.3603C91.3877 61.4197 91.4429 61.5378 91.442 61.7221C91.4398 62.1743 91.3375 62.2491 90.7188 62.2501L90.1631 62.2511L90.1354 61.8796C90.1202 61.6752 90.1289 61.455 90.1548 61.3901C90.2113 61.2481 91.0136 61.2267 91.2726 61.3603ZM77.4042 63.7885V64.1768L77.7353 64.1503C78.0567 64.1247 78.0672 64.1133 78.0935 63.7622L78.1207 63.4004H77.7624H77.4042V63.7885Z" fill="#8A7BAE"/>
</g>
<g opacity="0.5">
<path fill-rule="evenodd" clip-rule="evenodd" d="M527.182 9.23976C527.182 9.2762 527.218 9.33676 527.261 9.37439C527.33 9.43412 527.426 9.4459 528.02 9.46737C528.394 9.4809 528.793 9.50801 528.906 9.52757C529.019 9.54717 529.217 9.56437 529.346 9.56581L529.58 9.56843V9.39392V9.21944L529.384 9.19679C529.276 9.18433 528.736 9.17399 528.185 9.17385C527.235 9.17352 527.182 9.177 527.182 9.23976ZM523.93 9.30054C523.904 9.3294 523.85 9.35303 523.811 9.35303C523.716 9.35303 523.682 9.47318 523.743 9.59478C523.784 9.67559 523.814 9.69185 523.905 9.6822C523.966 9.67566 524.176 9.66249 524.372 9.6529C524.568 9.64332 524.744 9.62038 524.764 9.60196C524.783 9.58351 524.93 9.56843 525.089 9.56843C525.415 9.56843 525.496 9.52513 525.496 9.35048V9.24532L524.738 9.24669C524.12 9.2478 523.97 9.25785 523.93 9.30054ZM522.761 9.47164C522.761 9.49738 522.817 9.57008 522.885 9.63319C522.978 9.72025 523.042 9.74793 523.147 9.74793H523.286V9.58638V9.42483H523.023C522.833 9.42483 522.761 9.43761 522.761 9.47164ZM520.704 9.87362C520.361 9.94718 520.037 10.0546 519.497 10.2735C519.061 10.4499 518.626 10.568 518.002 10.6794C517.868 10.7033 517.649 10.7768 517.515 10.8427C517.381 10.9086 517.162 10.9888 517.028 11.021C516.894 11.0531 516.675 11.1353 516.541 11.2035C516.407 11.2717 516.011 11.4669 515.661 11.6372C514.388 12.256 513.318 12.8689 512.312 13.5554C511.867 13.859 511.709 13.9483 511.616 13.9483C511.394 13.9483 510.59 14.5094 509.815 15.206C509.568 15.4284 509.18 15.7553 508.954 15.9325C508.723 16.1126 508.511 16.3095 508.473 16.3789C508.422 16.4735 508.345 16.53 508.15 16.6168C507.909 16.7239 507.886 16.7451 507.754 16.9774C507.676 17.1132 507.568 17.249 507.513 17.2791C507.455 17.311 507.384 17.4033 507.344 17.499C507.303 17.5964 507.158 17.7835 506.99 17.9556C506.834 18.116 506.613 18.389 506.499 18.5621C506.266 18.9183 506.058 19.0896 505.771 19.1607L505.587 19.2066L505.331 19.7097C505.168 20.0318 504.987 20.3228 504.828 20.5181C504.6 20.7993 504.467 21.0013 504.026 21.7387C503.651 22.3655 502.953 23.1122 502.415 23.4619C502.254 23.5671 502.165 23.656 502.101 23.7774C501.98 24.0089 501.833 24.4076 501.781 24.6523C501.737 24.8537 501.734 24.857 501.436 25.0444C501.201 25.1926 501.117 25.2689 501.049 25.3978C500.846 25.7816 500.488 26.6941 500.281 27.3547L500.135 27.8189L500.282 28.0757C500.363 28.217 500.429 28.3569 500.429 28.3867C500.429 28.4714 500.079 28.9287 499.931 29.0366C499.821 29.1169 499.79 29.1701 499.754 29.3405C499.73 29.4541 499.637 29.8621 499.548 30.2471C499.339 31.1418 499.153 32.0725 498.989 33.0473C498.576 35.4927 498.543 36.3819 498.783 38.576C499.52 45.3013 501.621 50.4682 505.294 54.5875C506.334 55.7545 508.73 57.934 510.295 59.1378C511.188 59.8244 512.224 60.493 513.252 61.0465C513.505 61.1826 513.794 61.3441 513.894 61.4052C514.041 61.4947 514.117 61.5164 514.281 61.5164C514.471 61.5164 514.497 61.5055 514.635 61.3728C514.722 61.2882 514.818 61.2292 514.869 61.2292C514.999 61.2292 516.026 61.6485 516.096 61.73C516.13 61.769 516.17 61.8945 516.184 62.0087C516.245 62.4739 516.384 62.6022 517.056 62.8113C517.413 62.9223 517.617 62.9647 517.863 62.9786C518.128 62.9936 518.199 63.0097 518.228 63.0615C518.298 63.1876 518.554 63.2402 519.258 63.2735C519.797 63.299 520.033 63.3279 520.438 63.4179C521.112 63.5679 521.33 63.6194 521.731 63.723C521.967 63.7842 522.17 63.8109 522.41 63.8122C522.627 63.8134 522.802 63.834 522.888 63.8685C522.963 63.8985 523.23 63.9729 523.483 64.034C523.959 64.1494 524.723 64.2215 525.44 64.2189C525.832 64.2175 526.142 64.1284 526.165 64.0105C526.205 63.8041 526.319 63.8045 526.529 64.0115C526.687 64.1673 526.7 64.1731 526.915 64.1731C527.116 64.1731 527.147 64.1626 527.232 64.0666C527.283 64.0081 527.337 63.8935 527.351 63.812L527.378 63.6638L527.552 63.6865C528.033 63.7491 528.156 63.7501 528.179 63.6916C528.199 63.6417 528.313 63.6346 529.09 63.6346H529.977L530.144 63.7989L530.311 63.9633L530.592 63.9395C530.902 63.9131 531.275 63.9089 531.628 63.9275C531.807 63.937 531.874 63.9258 531.931 63.8769C531.989 63.8259 532.074 63.8141 532.378 63.8141C532.729 63.8141 532.758 63.8084 532.84 63.7243C532.919 63.6437 532.958 63.6346 533.215 63.6346C533.523 63.6346 533.978 63.5398 534.214 63.4264C534.293 63.3885 534.473 63.3476 534.615 63.3354C534.926 63.3088 535.084 63.2281 535.176 63.0502C535.244 62.9175 535.246 62.9165 535.476 62.9166C535.662 62.9167 535.779 62.8878 536.081 62.7667C536.287 62.6842 536.511 62.5714 536.578 62.516C536.757 62.3689 536.877 62.3179 537.277 62.2183C537.631 62.13 537.791 62.068 537.974 61.9476C538.025 61.9136 538.143 61.8746 538.236 61.8609C538.329 61.8472 538.489 61.7906 538.592 61.7351C538.86 61.5908 539.329 61.3978 539.695 61.2815C539.869 61.2264 540.111 61.1174 540.234 61.0391C540.463 60.8935 540.805 60.7343 541.056 60.6567C541.133 60.6328 541.214 60.5823 541.235 60.5446C541.279 60.4658 541.46 60.3676 541.561 60.3676C541.599 60.3676 541.712 60.2873 541.813 60.1891C541.956 60.0502 542.051 59.9936 542.243 59.9345C542.65 59.8086 542.869 59.6938 542.948 59.5658C543.041 59.4158 543.124 59.3554 543.781 58.9597C544.08 58.7798 544.411 58.5714 544.517 58.4966C544.623 58.4217 544.754 58.3499 544.808 58.337C544.861 58.324 544.905 58.3018 544.905 58.2875C544.905 58.2222 545.192 57.9963 545.332 57.9521C545.52 57.8923 545.705 57.6733 545.908 57.2718C546.028 57.0338 546.068 56.9865 546.189 56.9398C546.267 56.9098 546.354 56.8853 546.383 56.8853C546.412 56.8853 546.516 56.7762 546.614 56.6429C546.823 56.3599 546.831 56.3534 547.006 56.3253C547.117 56.3074 547.154 56.2766 547.23 56.1369C547.441 55.7525 548.049 55.2963 548.533 55.1591C548.674 55.1191 548.73 55.0682 548.973 54.7592C549.272 54.3789 549.299 54.2978 549.198 54.0668C549.146 53.9473 549.147 53.9409 549.245 53.8751C549.394 53.7746 549.699 53.6325 549.874 53.5824C549.971 53.5545 550.05 53.5025 550.088 53.4407C550.121 53.387 550.225 53.2719 550.318 53.185C550.476 53.0384 550.488 53.0139 550.488 52.8449C550.488 52.6849 550.515 52.623 550.704 52.3364C550.912 52.0203 550.924 52.0093 551.086 51.9852C551.21 51.9668 551.291 51.9246 551.395 51.8242L551.537 51.6881V51.3417C551.537 51.1307 551.557 50.9501 551.588 50.8798C551.687 50.6564 551.936 50.3989 552.153 50.2973C552.267 50.2438 552.459 50.1089 552.58 49.9975C552.761 49.8306 552.821 49.743 552.92 49.5009L553.04 49.2068L552.958 49.0521C552.913 48.967 552.834 48.8447 552.782 48.7802L552.689 48.6631L552.774 48.4392C552.895 48.1195 553.057 47.8188 553.249 47.5601L553.415 47.3357H553.745C554.021 47.3357 554.091 47.3237 554.173 47.2623C554.285 47.1775 554.347 46.9963 554.347 46.7512C554.348 46.6568 554.373 46.5215 554.404 46.4506C554.435 46.3782 554.46 46.2129 554.46 46.0734C554.46 45.7688 554.549 45.58 554.76 45.4406C554.841 45.3871 554.907 45.3201 554.908 45.2918C554.911 45.1917 555.182 44.1164 555.311 43.6918C555.384 43.4549 555.457 43.1722 555.474 43.0636C555.491 42.955 555.555 42.7286 555.618 42.5605C555.778 42.1263 555.848 41.7024 555.877 40.9813C555.9 40.4224 555.912 40.3412 555.982 40.2454C556.3 39.8138 556.384 39.453 556.35 38.6501C556.331 38.1782 556.337 38.0221 556.38 37.8939C556.42 37.7758 556.432 37.5876 556.425 37.1938C556.419 36.8977 556.433 36.5099 556.454 36.3322C556.495 35.9964 556.463 35.1361 556.354 33.6397C556.3 32.8856 556.275 32.7368 556.126 32.2843C556.076 32.1312 556.027 31.897 556.017 31.7638C555.996 31.4797 555.741 30.2936 555.605 29.8474C555.506 29.5241 555.21 28.8177 555.115 28.6786C555.084 28.6344 555.06 28.532 555.06 28.451C555.06 28.2939 555.018 28.1919 554.905 28.073C554.867 28.0323 554.785 27.8304 554.725 27.6243C554.664 27.4181 554.556 27.1108 554.485 26.9414C554.232 26.3425 553.338 24.6974 552.642 23.5517C552.083 22.63 551.651 21.883 551.398 21.3976C551.087 20.8031 550.909 20.5162 550.686 20.2479C550.587 20.1299 550.433 19.8961 550.343 19.7283C549.958 19.0133 549.543 18.4773 549.227 18.2861C548.94 18.1121 548.778 17.9372 548.593 17.6002C548.433 17.3075 548.194 17.0693 547.937 16.9444C547.839 16.8966 547.734 16.825 547.705 16.7851C547.676 16.7453 547.544 16.6459 547.412 16.5642C547.28 16.4826 546.871 16.1899 546.503 15.9137C545.851 15.4239 544.166 14.3158 543.808 14.1411C543.71 14.0931 543.384 13.9654 543.083 13.8574L542.537 13.6611H541.504H540.471L540.043 13.8788C539.25 14.281 538.954 14.4773 538.531 14.8797C537.916 15.4648 537.188 16.4409 537.167 16.7075C537.161 16.7853 537.135 16.8858 537.11 16.9309C537.052 17.035 537.04 17.1605 537.015 17.9403C537 18.3987 537.007 18.598 537.039 18.656C537.064 18.7002 537.091 18.9189 537.099 19.1419C537.115 19.6058 537.204 19.8969 537.529 20.554C537.867 21.2378 538.147 21.6012 538.452 21.7522C538.524 21.7879 538.574 21.8518 538.603 21.9438C538.656 22.1147 538.854 22.303 539.046 22.3662C539.176 22.4088 539.201 22.4376 539.281 22.6376C539.337 22.778 539.426 22.9129 539.519 22.9994C539.697 23.1648 540.15 23.3901 540.305 23.3901C540.367 23.3901 540.579 23.4527 540.778 23.5291C540.977 23.6056 541.266 23.6982 541.421 23.735C541.623 23.7831 541.749 23.8386 541.87 23.9331C542.064 24.0837 542.285 24.1959 542.459 24.232C542.59 24.259 542.77 24.4343 542.77 24.5347C542.77 24.5698 542.887 24.6811 543.041 24.7915C543.191 24.8987 543.895 25.5379 544.606 26.212C545.508 27.0672 545.938 27.4511 546.03 27.4823C546.124 27.5144 546.193 27.5773 546.273 27.706C546.393 27.8978 546.803 28.2881 546.922 28.3244C546.971 28.3393 547.002 28.3922 547.018 28.4886C547.061 28.7456 547.189 29.0109 547.399 29.2802C547.644 29.5942 547.91 30.0218 547.999 30.2471C548.034 30.336 548.122 30.4578 548.194 30.5179C548.299 30.6063 548.338 30.6781 548.395 30.8941C548.434 31.0409 548.516 31.2642 548.578 31.3902C548.656 31.5498 548.69 31.6754 548.691 31.8038C548.692 32.0342 548.788 32.2401 548.968 32.3951C549.103 32.5113 549.107 32.5215 549.103 32.7541C549.097 33.0737 549.123 33.2747 549.182 33.3764C549.224 33.4483 549.251 33.6288 549.303 34.1782C549.308 34.2374 549.345 34.3505 549.385 34.4295C549.446 34.5503 549.456 34.6394 549.448 34.9907C549.442 35.2852 549.455 35.4439 549.492 35.5292C549.534 35.6266 549.541 35.8526 549.529 36.6912C549.52 37.2953 549.496 37.782 549.473 37.8505C549.451 37.9155 549.443 37.9949 549.456 38.0269C549.468 38.0589 549.462 38.2076 549.442 38.3575C549.421 38.5073 549.378 38.8641 549.345 39.1504C549.196 40.4547 548.7 42.3238 548.138 43.6918C547.473 45.3144 546.031 47.7577 544.812 49.3299C543.515 51.0033 541.794 52.5373 539.491 54.0731C537.085 55.6779 534.471 56.8985 532.166 57.4944C530.21 58 527.764 58.2257 525.515 58.1082C523.133 57.9838 521.704 57.7536 520.489 57.2986C520.216 57.1961 519.998 57.1366 519.896 57.1366C519.796 57.1366 519.674 57.1038 519.572 57.049C519.481 57.0009 519.239 56.9193 519.033 56.8678C518.009 56.6119 517.103 56.2427 516.133 55.6864C515.914 55.561 515.65 55.4317 515.545 55.399C515.425 55.3617 515.336 55.3085 515.307 55.2568C515.25 55.154 515.079 55.0543 514.959 55.0543C514.815 55.0543 513.333 54.01 512.232 53.132C510.586 51.8193 509.487 50.6414 508.364 48.986C507.437 47.6198 506.764 46.3516 506.018 44.5641C505.343 42.9468 504.964 41.5559 504.703 39.7428C504.498 38.3115 504.501 37.8902 504.739 34.7885C504.837 33.5134 504.993 32.6905 505.393 31.3241C506.212 28.5246 508.165 24.948 509.998 22.8893C511.12 21.6287 512.316 20.6878 514.193 19.5891C515.18 19.0115 516.042 18.3973 516.833 17.7095C517.088 17.487 517.335 17.2758 517.381 17.2401C517.528 17.1255 520.246 16.2361 522.162 15.6758C523.269 15.3519 524.246 15.153 525.197 15.058C525.434 15.0344 525.643 15.0012 525.663 14.9843C525.719 14.9356 526.449 14.949 526.901 15.007C527.128 15.036 527.491 15.0608 527.707 15.0621C527.923 15.0633 528.176 15.0797 528.269 15.0984C528.362 15.1172 528.571 15.1412 528.735 15.1517C528.898 15.1622 529.057 15.1906 529.087 15.2147C529.14 15.257 529.241 15.2582 530.41 15.2297C530.629 15.2244 530.713 15.2366 530.766 15.2811C530.804 15.3131 530.899 15.3588 530.976 15.3827C531.054 15.4065 531.135 15.457 531.156 15.4949C531.19 15.5561 531.238 15.5638 531.584 15.5638C531.798 15.5638 532.056 15.5454 532.158 15.5228C532.384 15.4728 532.461 15.4896 532.742 15.6521C532.94 15.7669 532.988 15.7792 533.236 15.7792C533.387 15.7792 533.521 15.7631 533.533 15.7433C533.572 15.684 533.761 15.7028 533.827 15.7726C533.861 15.8084 533.907 15.8852 533.929 15.9431C533.954 16.0069 534.044 16.0945 534.159 16.1651C534.311 16.2591 534.386 16.2818 534.545 16.2818C534.748 16.2818 534.823 16.2391 534.842 16.1131C534.847 16.0774 534.942 15.9997 535.054 15.9396L535.257 15.8308L535.268 15.6251C535.278 15.4524 535.269 15.4162 535.212 15.4C535.175 15.3894 535.082 15.3492 535.006 15.3107C534.838 15.2256 534.667 15.2211 534.544 15.2985C534.456 15.3539 534.447 15.3517 534.32 15.2449C534.148 15.1008 533.934 14.9971 533.749 14.9687C533.625 14.9498 533.558 14.9004 533.331 14.6626C533.104 14.4255 533.041 14.3791 532.944 14.3791C532.856 14.3791 532.791 14.3416 532.675 14.2249C532.45 13.9988 532.427 13.987 532.1 13.9319C531.936 13.9042 531.687 13.8319 531.547 13.7713C531.256 13.6446 531.087 13.634 530.701 13.7182C530.485 13.7652 530.407 13.7677 530.253 13.7325C530.024 13.6799 529.661 13.4597 529.528 13.2925C529.443 13.1854 529.402 13.1649 529.239 13.15C529.118 13.1388 529.022 13.1066 528.974 13.06C528.874 12.964 528.912 12.8477 529.054 12.8179C529.112 12.8055 529.191 12.7631 529.228 12.7235C529.316 12.631 529.276 12.5657 529.046 12.4225C528.908 12.3371 528.868 12.2889 528.851 12.1892C528.804 11.9169 528.651 11.6288 528.4 11.3425L528.277 11.2019L527.758 11.175C526.493 11.1096 526.272 11.1069 525.952 11.153C525.649 11.1967 525.463 11.2034 525.047 11.1861C524.89 11.1795 524.515 11.2064 523.679 11.2841C523.454 11.305 523.292 11.3414 523.192 11.3933C523.097 11.4433 522.977 11.4712 522.858 11.4712C522.631 11.4712 522.206 11.5384 522.105 11.5905C522.064 11.6118 521.946 11.6415 521.843 11.6566C521.74 11.6717 521.554 11.6986 521.429 11.7164C521.305 11.7342 521.153 11.7732 521.092 11.8031C520.947 11.874 520.627 11.9379 520.416 11.9379C520.304 11.9379 520.174 11.9739 520.022 12.0475C519.897 12.1078 519.624 12.2121 519.414 12.2792C519.06 12.3928 519.009 12.3999 518.696 12.3809C518.362 12.3608 518.355 12.3621 518.105 12.4903C517.961 12.564 517.798 12.62 517.728 12.62C517.638 12.62 517.574 12.6506 517.494 12.7313C517.434 12.7926 517.279 12.9149 517.151 13.0032C516.96 13.1344 516.873 13.1697 516.672 13.1969C516.522 13.2174 516.373 13.2643 516.288 13.3188C516.211 13.3675 516.089 13.4266 516.017 13.4501C515.944 13.4736 515.83 13.5468 515.762 13.6128C515.633 13.7381 515.539 13.7597 515.411 13.6938C515.336 13.6555 515.337 13.6523 515.441 13.5463C515.578 13.4077 516.007 13.1287 516.303 12.9853C516.43 12.924 516.565 12.8364 516.603 12.7905C516.641 12.7445 516.728 12.6852 516.796 12.6585C516.863 12.6319 516.985 12.5638 517.067 12.5073C517.148 12.4508 517.248 12.4046 517.287 12.4046C517.413 12.4046 517.584 12.2291 517.725 11.9564L517.861 11.6931L518.118 11.6139C518.388 11.5305 518.43 11.5316 518.883 11.634C519.027 11.6666 519.263 11.6958 519.408 11.6989L519.67 11.7045L519.681 11.4261C519.694 11.0827 519.746 11.0344 520.091 11.0443C520.351 11.0518 520.4 11.0313 520.4 10.917C520.4 10.803 520.319 10.7477 520.119 10.7261C519.963 10.7092 519.941 10.7175 519.822 10.8382C519.751 10.9099 519.668 10.9685 519.636 10.9685C519.567 10.9685 519.276 10.8609 519.276 10.8355C519.276 10.8258 519.329 10.771 519.393 10.7137C519.48 10.6353 519.546 10.6095 519.657 10.6095C519.82 10.6095 520.044 10.5142 520.153 10.3979C520.21 10.3377 520.269 10.3223 520.442 10.3223C520.561 10.3223 520.669 10.3062 520.681 10.2864C520.694 10.2667 520.742 10.2505 520.787 10.2505C520.833 10.2505 520.933 10.2182 521.01 10.1787C521.087 10.1392 521.207 10.1069 521.278 10.1069C521.463 10.1069 521.615 9.93253 521.475 9.88094C521.337 9.83032 520.924 9.82641 520.704 9.87362ZM522.95 9.9848C522.729 10.0418 522.606 10.1233 522.634 10.1942C522.663 10.2667 522.902 10.3582 523.062 10.3582H523.211V10.1428C523.211 10.0244 523.198 9.92851 523.183 9.9298C523.167 9.93109 523.062 9.95587 522.95 9.9848ZM530.826 12.0108C530.756 12.0377 530.742 12.0708 530.742 12.205C530.742 12.3453 530.756 12.3736 530.845 12.4176C531.048 12.5175 531.245 12.5481 531.538 12.5249C531.804 12.5039 531.829 12.4953 531.829 12.4241C531.829 12.3304 531.685 12.2229 531.368 12.0792C531.131 11.972 530.978 11.9525 530.826 12.0108ZM529.496 12.4793C529.454 12.5235 529.431 12.606 529.431 12.7097V12.8713H529.649C529.868 12.8713 529.869 12.8716 530.156 13.1226C530.38 13.3178 530.469 13.3739 530.557 13.3739C530.652 13.3739 530.68 13.3526 530.725 13.2494C530.78 13.1242 530.797 12.8115 530.757 12.6689C530.716 12.5238 530.304 12.4036 529.861 12.4078C529.616 12.4101 529.55 12.4231 529.496 12.4793ZM530.929 12.9949C530.929 13.1932 530.941 13.2342 531.013 13.2821C531.135 13.3641 531.299 13.3504 531.441 13.2464C531.544 13.1709 531.566 13.1309 531.566 13.0186C531.566 12.8184 531.483 12.7636 531.179 12.7636H530.929V12.9949ZM532.329 13.1412C532.295 13.2266 532.387 13.5237 532.486 13.6489C532.541 13.7169 532.648 13.787 532.755 13.8238C532.854 13.8576 533.024 13.9256 533.134 13.9748C533.352 14.0724 533.523 14.07 533.687 13.9671C533.757 13.9236 533.777 13.8788 533.777 13.7705C533.777 13.612 533.701 13.5175 533.574 13.5175C533.369 13.5175 532.859 13.2925 532.732 13.1454C532.664 13.0671 532.36 13.0639 532.329 13.1412ZM522.401 13.7179C522.458 13.8588 522.42 13.9327 522.217 14.0829C522.057 14.2016 521.979 14.2355 521.867 14.2355C521.609 14.2355 521.485 13.9745 521.677 13.8349C521.896 13.6752 522.354 13.6011 522.401 13.7179ZM515.247 14.1547C515.155 14.3694 514.972 14.4642 514.56 14.5109C514.387 14.5305 514.376 14.5261 514.262 14.3931C514.135 14.2454 514.111 14.1637 514.195 14.1637C514.224 14.1637 514.287 14.1319 514.336 14.0931C514.412 14.0319 514.483 14.0223 514.865 14.0213L515.306 14.0201L515.247 14.1547ZM535.863 15.6237C535.815 15.6692 535.838 15.9431 535.896 16.0225C535.945 16.0897 535.99 16.1023 536.177 16.1023H536.4V15.9254C536.4 15.7771 536.384 15.7365 536.301 15.6741C536.205 15.6016 535.92 15.5688 535.863 15.6237ZM534.32 28.8119C533.907 28.8533 533.6 28.9405 533.196 29.1317C532.526 29.4484 532.038 29.9169 531.715 30.5523C531.437 31.1003 531.398 31.2744 531.4 31.9703C531.401 32.5217 531.409 32.5838 531.507 32.8678C531.696 33.4143 531.948 33.8122 532.34 34.1818C532.938 34.7469 533.642 35.0418 534.489 35.082C535.179 35.1147 535.768 34.9746 536.379 34.6325C536.674 34.4671 537.186 33.992 537.398 33.6857C538.068 32.7199 538.116 31.4155 537.518 30.3907C536.898 29.3288 535.593 28.6843 534.32 28.8119ZM522.124 31.9165V34.986H523.435H524.747V34.5372V34.0885H523.941H523.136V31.4677V28.847H522.63H522.124V31.9165ZM518.027 28.9101C517.93 29.0596 515.348 34.9336 515.369 34.9537C515.408 34.9889 516.38 35.0083 516.416 34.9746C516.431 34.9602 516.596 34.5813 516.784 34.1325L517.124 33.3166L518.251 33.3071L519.377 33.2976L519.744 34.1239L520.11 34.9501H520.649C520.945 34.9501 521.187 34.9437 521.187 34.9359C521.187 34.9281 520.599 33.567 519.88 31.9113L518.574 28.9008L518.31 28.8904C518.165 28.8846 518.038 28.8935 518.027 28.9101ZM525.759 31.9524V35.0219L526.63 35.0217C527.65 35.0214 528.076 34.9716 528.565 34.7955C529.045 34.6229 529.291 34.4712 529.654 34.1244C530.124 33.6757 530.346 33.2746 530.488 32.6183C530.625 31.9839 530.542 31.1396 530.289 30.5876C530.014 29.9901 529.482 29.478 528.849 29.2029C528.299 28.9642 527.721 28.8836 526.555 28.8832L525.759 28.8829V31.9524ZM535.197 29.7997C535.578 29.8858 535.932 30.0831 536.253 30.3891C536.698 30.8128 536.924 31.3262 536.924 31.9127C536.924 32.5124 536.707 33.0078 536.252 33.4438C535.791 33.885 535.29 34.0874 534.658 34.0874C534.015 34.0874 533.525 33.8862 533.045 33.426C532.582 32.9826 532.391 32.5404 532.391 31.9165C532.391 31.5429 532.457 31.2603 532.621 30.9427C532.898 30.402 533.497 29.9418 534.106 29.8003C534.393 29.7335 534.903 29.7333 535.197 29.7997ZM527.795 29.869C528.368 29.9669 528.885 30.2779 529.179 30.702C529.451 31.0942 529.521 31.3312 529.523 31.8626C529.525 32.4108 529.438 32.7084 529.159 33.1071C528.708 33.7533 528.008 34.0834 527.079 34.0872L526.77 34.0885V31.9524V29.8163L527.136 29.8176C527.336 29.8182 527.633 29.8414 527.795 29.869ZM518.647 31.5298C518.848 31.9974 519.006 32.3851 518.999 32.3913C518.993 32.3976 518.658 32.3983 518.255 32.3929L517.522 32.3832L517.884 31.5306C518.083 31.0617 518.254 30.6784 518.265 30.6789C518.275 30.6793 518.447 31.0623 518.647 31.5298ZM509.853 36.8702C508.558 37.1446 507.613 38.0345 507.3 39.2761C507.206 39.6478 507.213 40.3024 507.316 40.7016C507.601 41.8108 508.478 42.6794 509.636 43.0003C510.022 43.1074 510.914 43.1158 511.295 43.016C511.53 42.9546 512.293 42.6158 512.43 42.5124C512.49 42.4669 512.495 42.3976 512.486 41.7904L512.476 41.1187L512.345 41.2875C512.092 41.6133 511.578 41.9232 511.106 42.0357C510.799 42.1087 510.223 42.1112 509.947 42.041C508.845 41.7605 508.09 40.6923 508.258 39.6538C508.377 38.9146 508.801 38.329 509.446 38.013C509.859 37.8102 510.048 37.7679 510.527 37.7704C510.876 37.7722 510.979 37.7868 511.192 37.8645C511.574 38.0037 511.841 38.1699 512.184 38.4822L512.494 38.7654L512.476 38.554C512.466 38.4378 512.447 38.1352 512.435 37.8817L512.412 37.4207L512.19 37.2833C511.894 37.1002 511.491 36.9433 511.138 36.8738C510.792 36.8056 510.166 36.8039 509.853 36.8702ZM515.94 36.8704C514.882 37.0727 513.933 37.8365 513.542 38.8009C513.216 39.6069 513.249 40.5277 513.633 41.32C513.955 41.9846 514.626 42.5944 515.336 42.8694C515.803 43.05 515.998 43.0817 516.635 43.0794C517.186 43.0774 517.26 43.0691 517.553 42.9775C518.637 42.6381 519.386 41.9201 519.748 40.8736C519.846 40.5898 519.854 40.5271 519.855 39.9761C519.857 39.2946 519.82 39.1223 519.555 38.594C519.098 37.6824 518.255 37.0585 517.222 36.8677C516.887 36.8058 516.272 36.8071 515.94 36.8704ZM532.414 36.8735C531.791 37.0068 531.3 37.2573 530.844 37.6744C530.498 37.9907 530.302 38.2524 530.105 38.6615C529.887 39.1143 529.824 39.4106 529.826 39.9761C529.828 40.5489 529.887 40.8078 530.123 41.2912C530.321 41.6964 530.5 41.9306 530.863 42.2607C531.527 42.8636 532.309 43.1321 533.281 43.0904C534.89 43.0213 536.165 41.863 536.361 40.2936C536.435 39.6997 536.328 39.1412 536.028 38.5581C535.619 37.7645 534.954 37.2235 534.039 36.9414C533.768 36.8579 533.643 36.8414 533.196 36.8308C532.82 36.8219 532.599 36.834 532.414 36.8735ZM520.925 39.9582V42.9918H521.45H521.974V41.7586V40.5254L522.393 40.5011C523.091 40.4604 523.459 40.3327 523.832 40.0018C524.253 39.629 524.43 39.1735 524.4 38.5401C524.372 37.9458 524.164 37.5509 523.725 37.2623C523.313 36.991 522.924 36.9246 521.747 36.9246H520.925V39.9582ZM525.571 39.9544V42.9918H526.096H526.62V41.7587V40.5256L527.023 40.5032C527.768 40.4617 528.205 40.2935 528.579 39.9043C528.898 39.5717 529.055 39.1584 529.055 38.6464C529.057 37.8018 528.617 37.2327 527.792 37.0091C527.626 36.9641 527.345 36.9467 526.574 36.9338L525.571 36.9169V39.9544ZM537.449 39.9582V42.9918H538.779H540.109V42.543V42.0943H539.285H538.461V39.5094V36.9246H537.955H537.449V39.9582ZM543.349 36.9624C543.335 36.9849 542.718 38.3386 541.98 39.9706L540.636 42.9379L540.869 42.9607C540.997 42.9731 541.246 42.985 541.421 42.9869L541.739 42.9904L542.082 42.1744L542.426 41.3583L543.581 41.3499L544.737 41.3414L545.094 42.1397L545.452 42.9379L546.003 42.9479C546.306 42.9533 546.554 42.9533 546.554 42.9479C546.554 42.9424 545.957 41.589 545.228 39.9402L543.902 36.9425L543.639 36.9321C543.471 36.9254 543.366 36.9364 543.349 36.9624ZM517.337 37.8676C517.706 37.9977 517.98 38.1687 518.24 38.4326C518.513 38.7087 518.727 39.0808 518.811 39.4237C518.894 39.7607 518.866 40.3396 518.753 40.6483C518.533 41.2474 517.981 41.7761 517.355 41.9876C517.03 42.0973 516.388 42.1251 516.056 42.0437C515.406 41.8842 514.896 41.4927 514.575 40.9064C514.385 40.5596 514.318 40.2499 514.342 39.8146C514.372 39.2313 514.569 38.8087 515.002 38.3937C515.293 38.1147 515.639 37.9204 516.021 37.8213C516.406 37.7213 516.979 37.7414 517.337 37.8676ZM533.779 37.8505C534.489 38.091 535.024 38.5872 535.238 39.2027C535.525 40.0287 535.317 40.8678 534.674 41.4828C534.246 41.8922 533.728 42.0943 533.106 42.0943C532.441 42.0943 531.953 41.9002 531.49 41.4522C531.166 41.1381 530.999 40.8604 530.891 40.4573C530.666 39.6145 531.002 38.7062 531.727 38.1942C532.031 37.9797 532.191 37.9039 532.516 37.8192C532.861 37.7294 533.466 37.7445 533.779 37.8505ZM522.813 37.9087C523.079 37.9689 523.202 38.051 523.315 38.2448C523.491 38.5463 523.455 39.0087 523.238 39.2462C523.04 39.4613 522.872 39.5198 522.396 39.5381L521.974 39.5544V38.7062V37.858L522.283 37.8586C522.453 37.8589 522.691 37.8815 522.813 37.9087ZM527.395 37.8976C527.526 37.9194 527.687 37.9726 527.754 38.0157C528.113 38.2474 528.184 38.892 527.888 39.2358C527.697 39.4579 527.525 39.5196 527.042 39.5381L526.62 39.5544V38.7062V37.858H526.889C527.037 37.858 527.264 37.8758 527.395 37.8976ZM543.978 39.5548C544.179 40.0137 544.343 40.4013 544.343 40.416C544.343 40.4308 544.006 40.4428 543.594 40.4428C543.182 40.4428 542.845 40.4314 542.845 40.4175C542.845 40.3702 543.572 38.7196 543.592 38.72C543.603 38.7202 543.777 39.0959 543.978 39.5548ZM553.502 42.7973C553.536 42.9266 553.486 43.3183 553.424 43.4037C553.396 43.4426 553.373 43.5483 553.373 43.6385C553.373 43.764 553.306 43.9496 553.088 44.4293C552.931 44.774 552.585 45.573 552.318 46.2049C551.831 47.3616 551.414 48.1776 550.737 49.2992C550.58 49.5598 550.414 49.8477 550.368 49.9391C550.306 50.0612 550.257 50.1104 550.182 50.1246C550.102 50.14 550.01 50.2476 549.732 50.6515C549.54 50.9307 549.259 51.2986 549.108 51.4691C548.956 51.6395 548.668 51.9949 548.467 52.2589C548.267 52.5228 548.034 52.7872 547.95 52.8465C547.832 52.93 547.802 52.9719 547.817 53.0335C547.832 53.098 547.749 53.1914 547.373 53.5361C547.119 53.7689 546.565 54.2825 546.142 54.6774C545.718 55.0723 545.06 55.6371 544.68 55.9325C543.999 56.4608 543.223 57.0872 542.767 57.4769C542.64 57.5859 542.516 57.6751 542.493 57.6751C542.362 57.6752 541.954 57.9122 541.752 58.1057C541.557 58.293 541.476 58.3406 541.14 58.4665C540.927 58.5463 540.604 58.7022 540.422 58.8129C540.24 58.9237 540.054 59.0122 540.01 59.0096C539.962 59.0067 539.905 59.0406 539.869 59.0934C539.782 59.2214 539.638 59.3009 539.44 59.3307C539.129 59.3775 538.9 59.4827 538.694 59.6731C538.556 59.8006 538.456 59.8622 538.361 59.8768C538.287 59.8884 538.198 59.923 538.162 59.9537C538.127 59.9845 537.998 60.0342 537.876 60.0644C537.755 60.0944 537.548 60.1669 537.417 60.2254C537.138 60.3496 537.074 60.3567 537.074 60.2633C537.074 60.2195 537.138 60.1594 537.252 60.0962C537.35 60.0419 537.489 59.9534 537.561 59.8996C537.634 59.8458 537.802 59.7751 537.936 59.7425C538.196 59.6792 538.377 59.586 539.173 59.1037C539.451 58.9351 540.064 58.5839 540.536 58.3233C541.52 57.7795 542.179 57.3707 542.839 56.8956C543.094 56.7122 543.376 56.531 543.465 56.4929C543.735 56.3787 543.966 56.2105 544.381 55.8276C544.597 55.6277 544.909 55.3519 545.074 55.2147C545.239 55.0776 545.627 54.7309 545.937 54.4444C546.247 54.1579 546.678 53.7619 546.894 53.5645C547.193 53.2912 547.32 53.1454 547.426 52.9542C547.523 52.779 547.616 52.6671 547.734 52.5849C547.827 52.52 547.973 52.3827 548.058 52.2798C548.203 52.1057 548.427 51.7078 548.428 51.6258C548.428 51.6061 548.503 51.5443 548.595 51.4885C548.817 51.354 548.896 51.2595 549.217 50.7398C549.366 50.4983 549.668 50.0334 549.889 49.7067C550.109 49.3801 550.411 48.9192 550.56 48.6825C550.709 48.4458 550.886 48.2034 550.953 48.144C551.1 48.015 551.205 47.826 551.292 47.5332C551.327 47.4147 551.431 47.1947 551.522 47.0443C551.72 46.7187 551.943 46.2355 552.066 45.8638C552.115 45.7157 552.212 45.5057 552.28 45.3971C552.515 45.0249 552.744 44.526 552.815 44.2346C552.92 43.8031 553.26 42.8782 553.348 42.7853C553.446 42.6816 553.472 42.6836 553.502 42.7973ZM536.713 60.3451C536.654 60.4118 536.547 60.4945 536.475 60.5291C536.301 60.6125 535.883 60.7266 535.752 60.7266H535.647L535.751 60.6017C535.888 60.4373 536.409 60.2383 536.731 60.2271L536.819 60.224L536.713 60.3451Z" fill="#8A7BAE"/>
</g>
<g opacity="0.5">
<path fill-rule="evenodd" clip-rule="evenodd" d="M373.96 11.8392C372.834 12.0182 370.851 12.6305 369.991 13.0655L369.436 13.3463L370.814 13.4236C374.179 13.6124 377.202 14.5397 379.669 16.1404L380.529 16.6981L382.63 16.7404C384.44 16.7769 384.877 16.8258 385.785 17.094C386.364 17.2653 386.858 17.4245 386.882 17.4477C386.907 17.471 385.824 17.4901 384.478 17.4901C383.131 17.4901 381.986 17.5318 381.934 17.5827C381.881 17.6337 382.09 17.8767 382.398 18.1227C383.472 18.9805 385.289 20.8438 386.16 21.9808C387.683 23.9679 388.769 26.0369 389.303 27.9657C389.424 28.4038 389.562 28.8064 389.61 28.8605C389.657 28.9146 389.797 28.4735 389.92 27.8803C390.21 26.4846 390.216 24.2211 389.932 22.7742C388.881 17.4034 384.543 13.0999 379.032 11.9611C377.788 11.7038 375.204 11.6417 373.96 11.8392ZM368.924 14.2184C368.345 14.8365 367.338 17.5471 367.059 19.2339C366.864 20.4131 366.901 23.0831 367.13 24.3513C367.412 25.9179 368.088 27.7785 368.985 29.457C369.88 31.1324 370.123 31.4212 369.971 30.6328C369.724 29.3426 369.693 27.2958 369.901 25.9293C370.555 21.6216 372.959 18.6881 376.816 17.4922C377.199 17.3734 377.559 17.2353 377.615 17.1853C377.778 17.0422 376.131 15.9702 374.577 15.2077C372.964 14.4158 371.388 13.9982 370.012 13.9982C369.324 13.9982 369.084 14.0466 368.924 14.2184ZM366.928 15.0265C364.828 16.7757 363.226 19.3157 362.497 22.0526C362.164 23.3064 362.04 25.7608 362.243 27.104C362.812 30.8682 364.893 34.1952 368.009 36.3235C368.8 36.8639 370.473 37.7675 370.682 37.7675C370.725 37.7675 370.513 37.4874 370.21 37.1452C368.267 34.9463 366.618 32.2498 365.872 30.0486C364.273 25.3323 364.803 19.9928 367.327 15.3766C367.668 14.7534 367.929 14.2433 367.907 14.2433C367.886 14.2433 367.445 14.5958 366.928 15.0265ZM378.208 18.638C377.013 19.0083 375.654 19.7814 374.751 20.605C373.76 21.5091 373.015 22.8307 372.754 24.1455C372.53 25.27 372.675 27.4927 373.074 29.0497C373.696 31.4811 375.274 34.8722 376.989 37.4612L377.8 38.6864L378.353 38.6523C378.657 38.6337 379.304 38.5133 379.792 38.3848C382.062 37.7866 384.038 36.7061 385.827 35.0839L386.963 34.0542L386.885 33.2461C386.389 28.1452 384.652 24.1904 381.181 20.261C380.015 18.9411 379.401 18.403 379.076 18.4157C378.982 18.4192 378.592 18.5193 378.208 18.638ZM335.782 52.0029C333.31 55.3148 330.674 58.8425 329.926 59.8419L328.566 61.6593H329.444H330.322L332.641 58.5351L334.959 55.4108H337.585L340.211 55.4106L340.244 58.5043L340.278 61.598L341.071 61.6345L341.863 61.671L341.831 53.8544L341.798 46.0377L341.038 46.0094L340.278 45.9812L335.782 52.0029ZM407.717 52.4161C407.717 56.5394 407.673 58.8294 407.595 58.7823C407.527 58.742 404.987 55.8717 401.95 52.404L396.428 46.099H395.74H395.053V53.8179V61.5367H395.875H396.697L396.73 55.1464L396.762 48.7561L398.743 51.0112C399.833 52.2517 402.356 55.1274 404.352 57.4016L407.98 61.5367H408.691H409.402L409.32 60.1584C409.275 59.4003 409.238 55.8993 409.238 52.3782L409.237 45.9765H408.477H407.717V52.4161ZM411.517 53.7566V61.5367H412.34H413.163V58.4737V55.4106H415.798H418.432L420.705 58.4663L422.978 61.5222L423.843 61.5294C424.32 61.5334 424.69 61.488 424.667 61.4283C424.644 61.3686 422.031 57.8698 418.862 53.6532L413.1 45.9865L412.308 45.9815L411.517 45.9765V53.7566ZM344.014 53.8791V61.6593L349.048 61.6545L354.083 61.6497L354.526 61.0753C354.77 60.7595 354.988 60.4583 355.011 60.4062C355.035 60.3542 352.94 60.3115 350.357 60.3115H345.661V53.2052V46.099H344.838H344.014V53.8791ZM351.83 46.7084C351.571 47.0436 351.36 47.3469 351.36 47.3823C351.36 47.4177 352.756 47.4467 354.463 47.4467H357.565V54.5589V61.6709L358.357 61.6345L359.149 61.598L359.097 54.5224L359.046 47.4467H361.761H364.477L364.947 46.8373C365.206 46.5021 365.417 46.1988 365.417 46.1634C365.417 46.128 362.466 46.099 358.859 46.099H352.3L351.83 46.7084ZM367.091 51.0305C367.108 53.7428 367.14 57.2164 367.161 58.7494L367.2 61.5367H372.439H377.678L378.124 60.9548L378.569 60.3728L373.64 60.3407L368.71 60.3087V57.492V54.6755H372.989H377.268L377.738 54.0661C377.997 53.7309 378.209 53.4276 378.209 53.3922C378.209 53.3568 376.072 53.3278 373.46 53.3278H368.71V50.3872V47.4467H373.053H377.395L377.865 46.8373C378.124 46.5021 378.335 46.1988 378.335 46.1634C378.335 46.128 375.798 46.099 372.697 46.099H367.059L367.091 51.0305ZM380.742 53.8105V61.5367H381.565H382.388V58.0956V54.6544L384.446 54.6966C386.856 54.746 387.027 54.8043 387.904 55.8738C388.22 56.2592 389.203 57.691 390.088 59.0555L391.697 61.5365L392.629 61.5366L393.562 61.5367L393.376 61.2611C393.273 61.1094 392.377 59.7572 391.384 58.2562C390.225 56.5054 389.331 55.293 388.887 54.8744L388.196 54.2216L388.848 54.1468C390.295 53.9812 391.552 53.0917 392.231 51.7546C392.531 51.1639 392.582 50.9141 392.576 50.0691C392.57 49.2445 392.51 48.961 392.22 48.3888C391.794 47.546 390.96 46.8128 390.005 46.4418C389.32 46.1753 389.114 46.1622 385.016 46.124L380.742 46.0842V53.8105ZM389.547 47.8143C390.168 48.1158 390.534 48.3888 390.781 48.7339C391.207 49.3306 391.354 50.2724 391.125 50.942C390.902 51.5984 390.066 52.4256 389.168 52.8797L388.404 53.2665L385.396 53.3051L382.388 53.3438V50.323V47.3023L385.526 47.3438L388.664 47.3855L389.547 47.8143ZM415.253 51.1421C416.367 52.6333 417.298 53.9006 417.321 53.9581C417.345 54.0157 416.418 54.0629 415.263 54.0629H413.163L413.162 52.6233C413.162 51.8315 413.125 50.5634 413.08 49.8053C413.032 49.0079 413.046 48.4278 413.112 48.4289C413.175 48.43 414.138 49.6509 415.253 51.1421ZM340.215 51.3062V54.0629H338.125C336.976 54.0629 336.036 54.0306 336.036 53.991C336.036 53.8987 340.093 48.5494 340.163 48.5494C340.191 48.5494 340.215 49.79 340.215 51.3062ZM426.126 58.9547C425.668 59.2249 425.387 59.8885 425.507 60.4173C425.551 60.6097 425.759 60.9266 425.969 61.1213C426.286 61.4156 426.458 61.4755 426.986 61.4755C427.557 61.4755 427.664 61.4297 428.054 61.0179C428.686 60.3505 428.586 59.4246 427.826 58.91C427.441 58.6485 426.608 58.6705 426.126 58.9547ZM427.62 59.0961C428.02 59.3033 428.246 59.9509 428.099 60.4661C427.864 61.2918 426.92 61.5467 426.217 60.9745C425.89 60.7076 425.828 60.5705 425.828 60.1113C425.828 59.6949 425.901 59.4938 426.139 59.2646C426.477 58.9367 427.161 58.8589 427.62 59.0961ZM426.461 60.1208C426.461 60.5747 426.516 60.9241 426.588 60.9241C426.657 60.9241 426.714 60.7587 426.714 60.5566C426.714 60.3544 426.768 60.189 426.834 60.189C426.899 60.189 427.054 60.3544 427.178 60.5566C427.301 60.7587 427.447 60.9241 427.501 60.9241C427.653 60.9241 427.621 60.7612 427.412 60.4737C427.245 60.2427 427.246 60.2058 427.421 60.1408C427.549 60.0936 427.604 59.9493 427.578 59.7303C427.542 59.4279 427.481 59.3887 426.999 59.355L426.461 59.3173V60.1208ZM427.306 59.65C427.385 59.8485 427.163 60.0612 426.872 60.0646C426.785 60.0656 426.714 59.9286 426.714 59.7602C426.714 59.534 426.781 59.4539 426.971 59.4539C427.113 59.4539 427.264 59.5421 427.306 59.65Z" fill="#8A7BAE"/>
</g>
<g opacity="0.5">
<path fill-rule="evenodd" clip-rule="evenodd" d="M226.045 6.35746C213.669 8.11503 204.634 19.178 205.95 30.9609C206.546 36.3061 208.527 40.4342 212.339 44.2761C215.703 47.668 219.876 49.9717 224.455 50.966C226.939 51.5052 232.559 51.5106 234.853 50.9757C241.916 49.3296 247.505 45.1121 250.721 39.0022C251.315 37.8736 252.1 36.0212 252.465 34.8858C253.072 33.0005 253.13 32.4743 253.144 28.8225C253.161 24.1877 252.808 22.5962 250.951 18.9432C246.443 10.0749 236.225 4.91132 226.045 6.35746ZM228.186 8.04423C225.969 10.1389 226.239 11.8045 229.051 13.3774C232.511 15.3123 233.047 16.6072 231.936 20.3385C230.834 24.0388 232.303 25.8234 237.569 27.1837C241.939 28.3126 243.625 29.4315 243.807 31.3248C243.888 32.1711 243.871 32.2271 243.707 31.6452C243.395 30.5401 242.987 29.9455 242.125 29.34C241.094 28.6167 240.334 28.349 237.63 27.7574C233.893 26.94 231.667 25.7011 230.668 23.8829C230.057 22.7714 230.164 20.8205 230.93 19.1267C232.089 16.5609 231.671 15.2103 229.352 14.029C227.285 12.9761 226.471 12.313 226.292 11.5366C226.032 10.4084 226.393 9.42827 227.484 8.29921L228.498 7.24871L227.518 7.63824C226.271 8.13338 225.968 8.42858 225.546 9.55859L225.204 10.4752L225.193 9.52801C225.174 7.86899 226.087 7.10711 228.127 7.07935L229.223 7.06453L228.186 8.04423ZM236.592 7.80148C238.301 8.32626 242.19 10.1078 242.19 10.3661C242.19 10.4578 241.763 10.5978 241.241 10.6775C239.425 10.9546 238.22 12.3751 238.279 14.1682C238.299 14.7443 238.355 14.9266 238.41 14.5916C238.741 12.5845 239.257 12.0042 240.711 12.0042C242.219 12.0042 242.769 12.6562 242.628 14.2755C242.388 17.0349 239.843 18.5408 236.989 17.6121C235.452 17.1125 234.117 16.0707 233.797 15.1225C233.385 13.9034 233.179 13.7098 232.111 13.5374C230.701 13.3101 229.71 12.6287 229.373 11.6542C229.02 10.6333 229.217 9.38335 229.809 8.89126C230.403 8.39659 231.362 7.94356 231.512 8.08657C231.58 8.1522 231.289 8.37754 230.864 8.58736C229.823 9.10061 229.52 9.91213 229.978 10.957C230.173 11.4037 230.415 11.769 230.516 11.769C230.616 11.769 231.112 11.3333 231.617 10.8008C232.383 9.9921 232.563 9.60046 232.706 8.42553L232.877 7.0189L233.969 7.17509C234.57 7.26094 235.75 7.54297 236.592 7.80148ZM223.696 8.29945C223.435 8.84916 223.218 9.67502 223.215 10.1342C223.208 11.2487 222.871 11.5483 221.984 11.2287C221.382 11.012 221.187 11.0624 220.506 11.6092C219.619 12.3217 219.211 12.3904 218.785 11.8995C218.384 11.4385 218.56 10.4541 219.026 10.5508C219.311 10.61 219.325 10.5639 219.092 10.3374C218.658 9.91565 218.034 10.4809 218.034 11.2957C218.034 12.0919 218.893 13.1803 219.522 13.1803C219.779 13.1803 220.379 13.0029 220.855 12.7863C221.664 12.4179 221.75 12.4179 222.177 12.7863C222.811 13.3341 223.277 13.2793 223.912 12.5826C224.519 11.916 224.959 11.9861 224.758 12.7176C224.547 13.4882 223.799 13.6992 220.517 13.9135C216.6 14.1694 214.77 14.4926 213.359 15.1783C211.081 16.285 210.16 17.928 210.151 20.8993C210.146 22.9822 209.851 23.8883 209.252 23.6686C209.047 23.5938 208.954 23.6373 209.039 23.7678C209.285 24.148 210.111 24.0325 210.363 23.5825C210.492 23.3527 210.718 22.3342 210.867 21.3194C211.39 17.7283 212.568 16.1438 215.076 15.6569L215.939 15.4895L214.803 16.1899C213.231 17.1598 212.539 18.5631 212.553 20.7497C212.573 23.7829 214.327 25.8851 216.99 26.0669C218.163 26.1471 218.519 26.0768 219.081 25.6529C219.454 25.3721 219.759 25.0258 219.759 24.8833C219.759 24.7407 219.476 24.8783 219.129 25.1891C217.873 26.3148 215.904 25.7536 214.958 24.0005C214.096 22.4007 214.333 19.8999 215.502 18.2822C216.965 16.2568 217.654 16.5774 219.392 20.0927C221.285 23.9229 221.686 24.0783 223.12 21.5356L223.892 20.1654L224.057 21.5537C224.474 25.0834 222.93 30.0878 221.172 30.9002C220.263 31.3201 219.12 31.0247 218.882 30.3082C218.641 29.5837 219.121 29.2718 219.933 29.6249C220.611 29.9198 220.611 29.9194 220.148 29.4303C219.589 28.8411 218.61 28.7952 217.992 29.3294C217.35 29.8831 217.383 31.3951 218.045 31.8378C218.486 32.133 218.499 32.193 218.148 32.3217C217.58 32.5296 217.005 32.5051 215.574 32.2123C214.036 31.8976 212.857 31.0127 212.857 30.1727C212.857 28.7367 214.737 28.1364 215.428 29.3518C215.774 29.9615 215.796 29.9683 215.805 29.4694C215.829 28.2074 213.934 27.5718 212.414 28.3321C211.641 28.7183 210.334 29.9946 209.916 30.7713C209.671 31.226 209.498 31.2858 208.791 31.1592C208.106 31.0367 207.844 31.1157 207.342 31.5948L206.728 32.1801L206.555 30.638C205.632 22.4097 210.509 13.7389 218.44 9.50613C219.651 8.85974 223.577 7.33739 224.122 7.30281C224.15 7.30117 223.958 7.74973 223.696 8.29945ZM243.915 11.769C244.186 12.0277 244.405 12.4248 244.401 12.651C244.394 13.0335 244.375 13.0323 244.133 12.635C243.989 12.3998 243.521 12.0032 243.092 11.7539C242.393 11.3467 242.37 11.3002 242.868 11.2995C243.173 11.299 243.644 11.5102 243.915 11.769ZM228.017 14.4227C228.694 14.7464 229.468 15.2427 229.736 15.5259C230.464 16.2937 230.381 17.6401 229.546 18.6188C227.04 21.5582 226.966 22.2528 228.882 24.8713C229.813 26.1438 230.213 26.9309 230.299 27.6608C230.414 28.635 230.364 28.7296 229.094 29.9274C228.366 30.6147 226.071 32.272 223.995 33.6102C219.266 36.6575 217.491 38.0618 216.662 39.4131C215.547 41.2276 215.979 42.1257 218.773 43.8045L220.129 44.6188V42.2485C220.129 40.0732 220.188 39.7768 220.843 38.6482C221.44 37.6203 222.782 36.0765 222.432 36.82C222.371 36.9494 222.122 37.4737 221.879 37.9853C220.405 41.0804 220.956 44.894 223.298 47.8166C223.79 48.431 224.118 48.9339 224.026 48.9339C223.934 48.9339 222.964 48.0599 221.871 46.9917C220.681 45.8295 219.165 44.6447 218.096 44.0413C216.205 42.9741 215.569 42.193 215.569 40.9388C215.569 38.993 217.436 37.1886 223.433 33.3395C227.73 30.581 229.498 29.1276 229.758 28.1394C229.937 27.4615 229.485 26.5251 228.059 24.6175C226.499 22.5308 226.516 20.5787 228.11 18.6541C229.953 16.4292 229.985 15.8355 228.307 15.0312C226.953 14.3825 225.675 13.4581 225.675 13.1274C225.675 12.982 225.925 13.0815 226.23 13.3485C226.534 13.6157 227.339 14.0988 228.017 14.4227ZM245.958 14.3592C248.101 15.9677 245.706 19.1744 241.847 19.8641L240.888 20.0353L241.79 20.7455C242.859 21.5857 243.431 22.5501 243.4 23.4595C243.379 24.084 243.365 24.0755 243.135 23.2948C242.752 22.0004 241.528 20.9687 239.047 19.85C236.654 18.771 236.135 18.4307 237.691 18.9606C239.844 19.6936 242.574 19.0472 244.555 17.3352C245.756 16.2979 246.03 15.4403 245.395 14.7099C244.997 14.2527 244.063 14.2562 243.663 14.7163C243.416 15.0002 243.412 15.207 243.646 15.6967C243.91 16.2485 243.9 16.2836 243.559 16.0138C243.005 15.5746 243.088 14.6765 243.724 14.2522C244.465 13.7563 245.202 13.7919 245.958 14.3592ZM225.533 14.5815C226.834 14.8697 227.753 15.5619 227.849 16.3254C227.905 16.7785 227.612 17.3538 226.799 18.3862C226.178 19.174 225.602 20.0777 225.519 20.3945C225.261 21.3775 225.568 22.87 226.405 24.6859C227.85 27.8268 227.175 30.0701 224.366 31.4624C223.332 31.975 222.746 32.0982 221.307 32.106C219.731 32.1144 219.463 32.05 218.965 31.5412C218.656 31.2255 218.587 31.0976 218.811 31.2571C220.209 32.253 222.382 31.9575 224.067 30.5422C226.286 28.6786 226.707 26.8238 225.565 23.9363C224.893 22.2351 224.755 20.5295 225.222 19.6922C225.38 19.4097 225.947 18.624 226.482 17.9463C228.083 15.9187 227.374 15.0755 223.699 14.6373C221.867 14.4185 221.863 14.4169 223.21 14.3924C223.956 14.3787 225.001 14.4639 225.533 14.5815ZM223.551 15.9441C223.18 17.4362 222.216 20.1577 221.923 20.539C221.642 20.9057 221.442 20.7147 220.067 18.7597C219.22 17.5552 218.527 16.3955 218.527 16.1827C218.527 15.7033 219.988 15.358 222.167 15.3225L223.712 15.2973L223.551 15.9441ZM247.861 17.646C247.689 18.0404 246.942 18.8929 246.199 19.5404C244.664 20.8796 244.682 20.9946 246.579 22.0557C247.742 22.7063 249.721 22.9116 250.694 22.4831C251.133 22.2892 251.15 22.3085 250.849 22.6616C249.733 23.9713 246.78 23.5545 244.75 21.8005L243.565 20.7765L244.541 20.3357C245.725 19.8008 247.559 18.0546 247.767 17.2628C247.85 16.946 247.975 16.7411 248.045 16.8076C248.115 16.8742 248.032 17.2515 247.861 17.646ZM250.32 19.1279C250.322 19.2295 250.11 19.2031 249.847 19.0691C249.279 18.779 249.092 18.7633 249.092 19.0051C249.092 19.1036 249.341 19.289 249.646 19.4167C249.981 19.5569 250.231 19.8959 250.276 20.2729C250.424 21.4907 248.365 22.1309 247.366 21.1778C246.734 20.5749 246.737 20.5524 247.613 19.296C248.019 18.7139 248.475 17.881 248.627 17.4451L248.902 16.6529L249.609 17.7979C249.998 18.4278 250.318 19.0263 250.32 19.1279ZM215 17.3642C214.24 18.1656 213.778 19.627 213.759 21.29C213.738 23.0998 213.417 22.5569 213.375 20.641C213.341 19.0592 214.357 16.9438 215.152 16.9438C215.288 16.9438 215.219 17.133 215 17.3642ZM238.207 20.4957C238.789 20.5291 237.531 20.8904 236.732 20.9191C236.193 20.9386 236.013 20.7801 235.685 19.997C235.081 18.5572 235.184 18.5008 236.543 19.5259C237.233 20.0464 237.981 20.4827 238.207 20.4957ZM234.561 21.2366C235.165 22.8208 235.331 22.8632 237.554 22.0011C238.388 21.6777 239.389 21.413 239.779 21.413C240.7 21.413 241.588 22.2709 241.933 23.4943C242.432 25.2615 241.606 26.5256 240.672 25.425C240.322 25.0126 240.218 24.9764 240.218 25.2681C240.218 25.7877 241.055 26.5435 241.84 26.7312C243.267 27.0732 245.148 25.3434 245.148 23.689V23.1236L246.299 23.6796C247.122 24.0776 247.864 24.2357 248.906 24.2357C250.186 24.2357 250.449 24.1527 251.081 23.5498C251.476 23.1725 251.846 22.9359 251.903 23.0238C252.03 23.2202 252.448 25.5645 252.654 27.2334C252.804 28.456 252.8 28.4647 252.235 28.2189C251.345 27.832 250.371 28.3053 249.915 29.3466C249.579 30.1148 249.568 30.585 249.83 33.0527C249.994 34.6073 250.09 36.4613 250.042 37.1729L249.954 38.4666L249.519 36.82C248.1 31.4504 245.087 28.3598 239.301 26.3395C233.948 24.4697 232.926 23.7001 232.974 21.5716C232.988 20.9021 233.139 20.037 233.308 19.6489C233.66 18.8416 233.636 18.8103 234.561 21.2366ZM231.607 26.4115C232.475 27.5549 232.568 28.9175 231.855 30.0337C231.595 30.4413 230.512 31.4697 229.448 32.3191C227.175 34.135 225.978 35.5604 224.926 37.7068C223.231 41.1627 223.858 45.531 226.452 48.3511C228.279 50.3363 231.591 50.8451 231.591 49.1405C231.591 48.6369 230.731 48.52 230.506 48.9928C230.43 49.1546 230.394 49.0751 230.427 48.8163C230.497 48.2624 231.443 48.0533 231.974 48.4743C232.543 48.925 232.395 49.792 231.652 50.3523C231.095 50.7731 230.765 50.8404 229.795 50.7322C225.584 50.2625 222.046 45.3452 222.558 40.673C222.915 37.41 224.489 35.074 228.173 32.3379C231.228 30.0685 231.932 29.2015 231.756 27.9235C231.688 27.4293 231.336 26.5969 230.973 26.0737C230.14 24.8713 230.64 25.1382 231.607 26.4115ZM252.505 29.2774C252.555 29.5277 252.39 29.886 252.138 30.0734C251.733 30.375 251.73 30.3983 252.111 30.2729C252.462 30.1576 252.542 30.2689 252.542 30.8687C252.542 32.05 252.009 34.6431 251.81 34.4285C251.536 34.1329 250.967 29.5185 251.149 29.0662C251.365 28.5301 252.388 28.6894 252.505 29.2774ZM239.445 31.6449C241.907 32.6188 242.792 33.2856 243.012 34.3319C243.353 35.9631 241.98 37.8454 240.075 38.3542C239.181 38.5929 238.802 38.5823 237.881 38.293C236.616 37.8957 236.496 38.0241 237.387 38.8225C238.283 39.6258 240.502 39.7563 241.877 39.0869C244.118 37.9957 245.255 35.751 245.11 32.7037C245.025 30.9132 245.037 30.8664 245.48 31.2491C246.682 32.2864 247.617 34.7198 247.983 37.7609C248.221 39.7358 247.977 39.315 247.386 36.7335C247.11 35.528 246.609 33.996 246.271 33.3287L245.658 32.1156L245.834 33.0565C246.337 35.7439 245.798 37.6861 244.122 39.2191C242.511 40.692 239.964 41.1665 238.129 40.3357C237.1 39.8697 236.598 39.2487 236.37 38.1603L236.212 37.4083L237.26 37.7609C239.306 38.4499 240.943 37.978 241.945 36.4105C243.115 34.5786 242.282 33.2256 239.319 32.1467C237.585 31.5151 236.098 30.4239 235.502 29.3449C235.339 29.0495 235.643 29.2419 236.201 29.7874C236.897 30.4677 237.854 31.0155 239.445 31.6449ZM235.361 31.1978C235.908 31.779 237.111 32.5962 238.255 33.1642C240.955 34.5045 241.363 35.4809 239.641 36.4825C238.698 37.0315 237.803 37.0626 237.068 36.5714C236.384 36.1139 236.368 35.4953 237.027 34.9263C237.456 34.5556 237.611 34.5346 238.037 34.7887C238.765 35.222 238.897 34.9305 238.177 34.4803C236.506 33.4352 234.591 36.0906 235.292 38.4807C236.468 42.4898 242.325 43.4124 245.398 40.0727C245.82 39.6149 246.233 39.3068 246.318 39.3877C246.403 39.4686 246.473 40.1964 246.473 41.0049C246.473 42.1807 246.33 42.7248 245.76 43.7236C244.946 45.1516 244.146 45.6408 242.627 45.6408C241.331 45.6408 240.406 45.0909 240.512 44.3831C240.576 43.9555 240.74 43.8816 241.565 43.908L242.542 43.9393L241.969 43.4963C241.265 42.9525 240.269 42.9276 239.51 43.4349C239.048 43.7438 238.959 43.979 239.044 44.6698C239.102 45.1391 239.195 45.6782 239.252 45.8676C239.333 46.1369 238.96 46.2515 237.539 46.3933C235.933 46.5535 235.643 46.5199 235.028 46.1021C234.065 45.4475 233.103 43.4509 232.693 41.2558C232.232 38.7888 232.236 34.3542 232.7 32.7037C232.9 31.9921 233.065 31.1536 233.067 30.8405C233.068 30.5272 233.263 30.0673 233.499 29.8187C233.906 29.3892 233.94 29.3875 234.176 29.7848C234.313 30.0149 234.847 30.6507 235.361 31.1978ZM212.482 31.7571C212.715 32.0022 213.421 32.4468 214.052 32.7453C215.068 33.2259 215.558 33.2882 218.338 33.2898C221.622 33.2917 221.594 33.5387 218.28 33.7958C216.052 33.9685 213.957 33.5977 212.753 32.8182L211.884 32.2556L211.603 33.2442C211.301 34.3029 211.446 37.1726 211.85 38.1354L212.087 38.7018L212.102 38.141C212.131 37.108 212.697 35.7237 213.372 35.0338C214.548 33.8325 216.556 34.2688 216.938 35.8086C217.059 36.299 216.952 36.5801 216.466 37.0435C215.765 37.7125 215.37 37.7828 214.748 37.3493C214.383 37.0948 214.452 37.0553 215.256 37.0553C216.148 37.0553 216.185 37.0233 216.185 36.2576C216.185 35.1881 215.57 34.8049 214.642 35.2958C213.047 36.1405 212.57 39.2579 213.69 41.5245C214.366 42.8923 214.927 43.4218 216.843 44.501C218.15 45.2372 222.95 49.4044 222.491 49.4044C222.375 49.4044 221.353 48.603 220.219 47.6235C219.085 46.6441 217.381 45.4534 216.432 44.9773C213.684 43.5982 211.807 41.4708 210.643 38.4163C209.842 36.3124 209.993 33.1903 210.993 31.1747L211.694 29.7634L211.877 30.5375C211.977 30.9633 212.25 31.512 212.482 31.7571ZM208.407 32.6785C208.544 32.9236 208.768 34.0677 208.905 35.221C209.186 37.5897 209.808 39.5034 210.89 41.3337C211.297 42.0208 211.589 42.583 211.539 42.583C211.346 42.583 209.654 39.9852 208.84 38.4412C208.37 37.5495 207.758 36.0951 207.481 35.209C206.993 33.6549 206.991 33.602 207.437 33.7132C207.824 33.8099 207.855 33.7617 207.627 33.4147C207.335 32.9683 207.512 32.2332 207.911 32.2332C208.046 32.2332 208.269 32.4336 208.407 32.6785ZM230.168 34.4135C229.726 36.1767 229.84 37.0548 230.848 39.6427C231.393 41.0444 231.436 42.8833 230.959 44.4083C230.821 44.8479 230.916 44.9813 231.505 45.177C231.897 45.3073 232.347 45.6129 232.506 45.8561C232.784 46.2799 232.744 46.2861 231.515 46.0059C224.84 44.4836 223.864 40.155 228.897 34.3907C229.725 33.4425 230.439 32.702 230.484 32.7453C230.529 32.7886 230.387 33.5392 230.168 34.4135ZM240.604 45.6112C240.975 45.8895 241.719 46.1844 242.259 46.2668L243.239 46.4164L242.653 46.8527C240.975 48.1008 237.028 49.7932 234.889 50.1816C234.131 50.3192 234.12 50.3074 234.145 49.4067C234.206 47.1533 230.986 46.251 229.938 48.2283C229.701 48.6752 229.625 48.715 229.622 48.3941C229.612 47.2149 231.897 46.2562 233.349 46.8301C234.194 47.1641 235.039 48.297 235.041 49.0977C235.042 49.6104 235.051 49.6116 236.334 49.248C238.556 48.6183 242.482 46.5817 241.473 46.5817C240.958 46.5817 239.479 45.1135 239.494 44.6167L239.51 44.1119L239.72 44.6087C239.836 44.8818 240.234 45.3329 240.604 45.6112ZM216.285 58.4197C215.688 58.7206 214.866 59.4178 214.46 59.9689C213.813 60.8453 213.72 61.1718 213.72 62.5768C213.72 63.9862 213.812 64.3073 214.47 65.2007C215.514 66.6184 216.815 67.2725 218.598 67.2775C223.275 67.2899 225.594 62.0993 222.213 59.1847C220.969 58.112 220.322 57.8724 218.673 57.8724C217.787 57.8724 217.026 58.0469 216.285 58.4197ZM221.623 59.0591C222.581 59.9129 222.964 60.7689 222.964 62.0577C222.964 63.4869 222.18 64.9784 220.917 65.9543C219.76 66.8475 217.594 67.0923 216.337 66.4721C213.991 65.3145 213.805 61.7112 215.99 59.7247C217.372 58.4672 217.751 58.3226 219.443 58.4061C220.663 58.4663 221.108 58.5997 221.623 59.0591ZM224.442 62.6944C224.442 66.6819 224.478 67.046 224.874 67.0462C225.268 67.0462 225.305 66.6908 225.305 62.8711V58.6956L226.013 58.6185C227.581 58.4475 228.633 59.0988 228.633 60.2413C228.633 61.0852 227.86 61.8711 227.031 61.8711C226.692 61.8711 226.414 61.9513 226.414 62.0497C226.414 62.1477 227.052 63.1366 227.832 64.2473C228.611 65.3578 229.363 66.4542 229.502 66.6838C229.641 66.9131 229.951 67.062 230.191 67.0147C230.55 66.9437 230.315 66.4977 228.876 64.5174C227.759 62.9804 227.257 62.1063 227.49 62.1063C227.691 62.1063 228.197 61.8323 228.614 61.4974C229.619 60.6905 229.666 59.538 228.723 58.8304C228.199 58.4374 227.721 58.3428 226.258 58.3428H224.442V62.6944ZM231.098 62.6944C231.098 66.4057 231.152 67.046 231.467 67.046C231.783 67.046 231.837 66.4057 231.837 62.6944C231.837 58.9831 231.783 58.3428 231.467 58.3428C231.152 58.3428 231.098 58.9831 231.098 62.6944ZM233.563 62.6944V67.046H234.828C236.59 67.046 237.923 66.6127 238.63 65.8104C239.758 64.531 239.206 62.8718 237.458 62.2903L236.734 62.0494L237.484 61.6147C237.896 61.3757 238.301 60.9199 238.385 60.6016C238.774 59.12 237.671 58.3428 235.177 58.3428H233.563V62.6944ZM239.971 62.6944V67.046H242.683C244.174 67.046 245.394 66.9543 245.394 66.8423C245.394 66.7301 244.636 66.6901 243.709 66.7534C241.118 66.9303 240.957 66.7809 240.957 64.1869V62.0499L242.436 62.152C243.25 62.208 243.915 62.1677 243.915 62.0626C243.915 61.9572 243.25 61.8711 242.436 61.8711H240.957V60.1989V58.5265L242.806 58.6157C243.823 58.6646 244.655 58.6234 244.655 58.5237C244.655 58.4242 243.601 58.3428 242.313 58.3428H239.971V62.6944ZM236.959 58.9443C237.341 59.1995 237.506 59.5507 237.506 60.1032C237.506 61.1419 236.578 61.8711 235.255 61.8711H234.302V60.3815C234.302 59.562 234.376 58.821 234.467 58.7349C234.775 58.4402 236.41 58.5773 236.959 58.9443ZM237.26 62.6459C238.175 63.0877 238.53 63.9554 238.226 65.0069C237.89 66.1677 237.113 66.6214 235.618 66.5304L234.425 66.4579L234.354 64.3998L234.283 62.3416L235.463 62.3451C236.113 62.347 236.921 62.4825 237.26 62.6459Z" fill="#8A7BAE"/>
</g>
</svg>
