<svg width="353" height="7" viewBox="0 0 353 7" fill="none" xmlns="http://www.w3.org/2000/svg">
<path d="M1.743 3.34956L1.386 3.19556C1.064 3.05556 0.830667 2.9179 0.686 2.78256C0.476 2.58656 0.371 2.34623 0.371 2.06156C0.371 1.7069 0.504 1.42223 0.77 1.20756C1.04067 0.988229 1.358 0.878562 1.722 0.878562C1.876 0.878562 2.037 0.892562 2.205 0.920562C2.37767 0.943896 2.52933 0.981229 2.66 1.03256C2.72067 1.0559 2.75567 1.08623 2.765 1.12356C2.779 1.15623 2.786 1.21223 2.786 1.29156L2.814 1.83756C2.814 1.89356 2.78833 1.92156 2.737 1.92156C2.70433 1.92156 2.67867 1.89823 2.66 1.85156C2.64133 1.8049 2.62967 1.77456 2.625 1.76056C2.541 1.5039 2.43833 1.31956 2.317 1.20756C2.177 1.08156 1.97633 1.01856 1.715 1.01856C1.46767 1.01856 1.25533 1.0839 1.078 1.21456C0.900667 1.34056 0.812 1.5249 0.812 1.76756C0.812 2.02423 0.959 2.24823 1.253 2.43956C1.35567 2.5049 1.617 2.62856 2.037 2.81056C2.18167 2.8759 2.30533 2.9389 2.408 2.99956C2.548 3.0789 2.65533 3.16056 2.73 3.24456C2.83267 3.36123 2.91433 3.4919 2.975 3.63656C3.03567 3.77656 3.066 3.92356 3.066 4.07756C3.066 4.2689 3.02167 4.4509 2.933 4.62356C2.84433 4.79623 2.723 4.94556 2.569 5.07156C2.41967 5.19756 2.24933 5.2909 2.058 5.35156C1.87133 5.40756 1.67067 5.43556 1.456 5.43556C1.27867 5.43556 1.09433 5.4099 0.903 5.35856C0.711667 5.3119 0.543667 5.24656 0.399 5.16256C0.357 5.13456 0.329 5.09956 0.315 5.05756C0.305667 5.0109 0.301 4.95023 0.301 4.87556V4.77056C0.301 4.6819 0.301 4.59556 0.301 4.51156C0.301 4.42756 0.305667 4.34823 0.315 4.27356C0.324333 4.1989 0.338333 4.1499 0.357 4.12656C0.375667 4.10323 0.399 4.09156 0.427 4.09156C0.469 4.09156 0.494667 4.11723 0.504 4.16856C0.513333 4.2199 0.520333 4.27123 0.525 4.32256C0.562333 4.63056 0.665 4.8709 0.833 5.04356C1.001 5.21623 1.24133 5.30256 1.554 5.30256C1.834 5.30256 2.07667 5.21856 2.282 5.05056C2.492 4.88256 2.597 4.66323 2.597 4.39256C2.597 4.13123 2.51533 3.91423 2.352 3.74156C2.22133 3.60156 2.01833 3.4709 1.743 3.34956ZM7.16028 1.42456L7.20928 1.87956C7.20928 1.94023 7.18361 1.97056 7.13228 1.97056C7.01561 1.73723 6.85928 1.53423 6.66328 1.36156C6.44861 1.17023 6.16395 1.07456 5.80928 1.07456C5.25395 1.07456 4.81528 1.28456 4.49328 1.70456C4.19928 2.08723 4.05228 2.56323 4.05228 3.13256C4.05228 3.6459 4.19695 4.10323 4.48628 4.50456C4.65895 4.74256 4.85261 4.9269 5.06728 5.05756C5.28661 5.18356 5.53395 5.24656 5.80928 5.24656C6.15928 5.24656 6.44395 5.13223 6.66328 4.90356C6.83128 4.65156 6.99928 4.39956 7.16728 4.14756C7.22795 4.14756 7.25361 4.1779 7.24428 4.23856L7.20928 4.80556C7.20928 4.91756 7.19995 4.98756 7.18128 5.01556C7.16261 5.04356 7.09728 5.08556 6.98528 5.14156C6.56995 5.33756 6.14761 5.43556 5.71828 5.43556C5.08361 5.43556 4.54228 5.21156 4.09428 4.76356C3.65095 4.3109 3.42928 3.76956 3.42928 3.13956C3.42928 2.5049 3.66961 1.97056 4.15028 1.53656C4.63561 1.0979 5.20495 0.878562 5.85828 0.878562C6.00761 0.878562 6.19195 0.897229 6.41128 0.934562C6.63528 0.971896 6.81961 1.01623 6.96428 1.06756C7.06228 1.10023 7.12061 1.15856 7.13928 1.24256C7.13928 1.2519 7.14628 1.31256 7.16028 1.42456ZM8.1161 4.62356V1.76056V1.60656C8.1161 1.42923 8.0951 1.31723 8.0531 1.27056C7.9971 1.2099 7.86643 1.17956 7.6611 1.17956C7.54443 1.17956 7.4861 1.15156 7.4861 1.09556C7.4861 1.02556 7.5281 0.990562 7.6121 0.990562C7.68677 0.990562 7.8151 0.995229 7.9971 1.00456C8.18377 1.0139 8.2841 1.01856 8.2981 1.01856C8.4381 1.01856 8.66677 1.0139 8.9841 1.00456C9.3061 0.995229 9.47643 0.990562 9.4951 0.990562C9.86377 0.990562 10.1671 1.07456 10.4051 1.24256C10.6804 1.4339 10.8181 1.70456 10.8181 2.05456C10.8181 2.35323 10.7061 2.6029 10.4821 2.80356C10.2768 2.98556 10.0201 3.09756 9.7121 3.13956C9.8101 3.15356 9.89643 3.2119 9.9711 3.31456C10.0038 3.35656 10.0598 3.45223 10.1391 3.60156L10.7061 4.69356C10.8088 4.89423 10.8741 5.0109 10.9021 5.04356C10.9908 5.1509 11.1051 5.20456 11.2451 5.20456C11.3058 5.20456 11.3501 5.20923 11.3781 5.21856C11.4108 5.2279 11.4271 5.2559 11.4271 5.30256C11.4271 5.3539 11.3851 5.37956 11.3011 5.37956H10.5591C10.4984 5.37956 10.4494 5.3539 10.4121 5.30256C10.3981 5.28856 10.3678 5.2349 10.3211 5.14156L9.6351 3.77656C9.49977 3.51523 9.40643 3.36356 9.3551 3.32156C9.27577 3.2609 9.1101 3.23056 8.8581 3.23056C8.7741 3.23056 8.72277 3.24223 8.7041 3.26556C8.68543 3.2889 8.67377 3.3379 8.6691 3.41256C8.6691 3.48256 8.6691 3.5269 8.6691 3.54556V4.62356C8.6691 4.88023 8.6831 5.0319 8.7111 5.07856C8.76243 5.16256 8.9001 5.20456 9.1241 5.20456C9.1801 5.20456 9.22443 5.20923 9.2571 5.21856C9.28977 5.2279 9.3061 5.25123 9.3061 5.28856C9.3061 5.34923 9.26643 5.37956 9.1871 5.37956C9.09377 5.37956 8.9421 5.3749 8.7321 5.36556C8.52677 5.35623 8.4171 5.35156 8.4031 5.35156C8.31443 5.35156 8.16277 5.35623 7.9481 5.36556C7.73343 5.3749 7.6191 5.37956 7.6051 5.37956C7.52577 5.37956 7.4861 5.34923 7.4861 5.28856C7.4861 5.24656 7.5001 5.22323 7.5281 5.21856C7.56077 5.20923 7.6051 5.20456 7.6611 5.20456C7.9271 5.20456 8.0741 5.13923 8.1021 5.00856C8.11143 4.96656 8.1161 4.83823 8.1161 4.62356ZM8.6691 1.69756V2.95056C8.6691 2.99723 8.68777 3.03223 8.7251 3.05556C8.7671 3.07423 8.81843 3.08356 8.8791 3.08356C8.9491 3.0789 8.9981 3.07656 9.0261 3.07656C9.2221 3.07656 9.38543 3.06256 9.5161 3.03456C9.64677 3.00656 9.77043 2.94823 9.8871 2.85956C10.0038 2.76623 10.0878 2.6589 10.1391 2.53756C10.1951 2.41156 10.2231 2.27623 10.2231 2.13156C10.2231 1.81423 10.1344 1.56923 9.9571 1.39656C9.77977 1.2239 9.53243 1.13756 9.2151 1.13756C8.95843 1.13756 8.8021 1.1679 8.7461 1.22856C8.69477 1.28456 8.6691 1.4409 8.6691 1.69756ZM11.4306 3.15356C11.4306 2.52823 11.6756 1.9939 12.1656 1.55056C12.6603 1.10256 13.2296 0.878562 13.8736 0.878562C14.5503 0.878562 15.1243 1.09323 15.5956 1.52256C16.0716 1.94723 16.3096 2.4909 16.3096 3.15356C16.3096 3.81623 16.074 4.36223 15.6026 4.79156C15.1313 5.2209 14.555 5.43556 13.8736 5.43556C13.2296 5.43556 12.665 5.21623 12.1796 4.77756C11.6803 4.3249 11.4306 3.78356 11.4306 3.15356ZM15.6726 3.15356C15.6726 2.8689 15.6376 2.60756 15.5676 2.36956C15.4976 2.13156 15.3763 1.9099 15.2036 1.70456C15.0356 1.49923 14.8396 1.3429 14.6156 1.23556C14.3916 1.12356 14.149 1.06756 13.8876 1.06756C13.6123 1.06756 13.3533 1.12356 13.1106 1.23556C12.8726 1.34756 12.672 1.50623 12.5086 1.71156C12.35 1.91223 12.2356 2.1339 12.1656 2.37656C12.0956 2.61923 12.0606 2.87823 12.0606 3.15356C12.0606 3.43356 12.0956 3.69956 12.1656 3.95156C12.2403 4.1989 12.3616 4.4229 12.5296 4.62356C12.6976 4.81956 12.8983 4.97123 13.1316 5.07856C13.3696 5.1859 13.6216 5.23956 13.8876 5.23956C14.149 5.23956 14.3963 5.18123 14.6296 5.06456C14.8676 4.94323 15.066 4.78223 15.2246 4.58156C15.388 4.37623 15.5023 4.15456 15.5676 3.91656C15.6376 3.67856 15.6726 3.42423 15.6726 3.15356ZM17.7846 1.75356V4.40656C17.7846 4.7099 17.8126 4.9059 17.8686 4.99456C17.9526 5.12523 18.1392 5.19056 18.4286 5.19056C18.5779 5.19056 18.7179 5.17423 18.8486 5.14156C18.9839 5.10423 19.1006 5.04356 19.1986 4.95956C19.2686 4.90356 19.3386 4.8149 19.4086 4.69356C19.4646 4.60023 19.5159 4.49523 19.5626 4.37856C19.5859 4.3179 19.6139 4.28756 19.6466 4.28756C19.6886 4.28756 19.7096 4.32023 19.7096 4.38556C19.7096 4.45556 19.6956 4.58156 19.6676 4.76356C19.6442 4.9409 19.6326 5.05756 19.6326 5.11356C19.6326 5.23023 19.6256 5.3049 19.6116 5.33756C19.5976 5.36556 19.5439 5.37956 19.4506 5.37956C19.2172 5.37956 18.8276 5.3749 18.2816 5.36556C17.7402 5.35623 17.4532 5.35156 17.4206 5.35156C17.3412 5.35156 17.2246 5.35623 17.0706 5.36556C16.9166 5.3749 16.7999 5.37956 16.7206 5.37956C16.6412 5.37956 16.6016 5.3469 16.6016 5.28156C16.6016 5.2209 16.6622 5.19056 16.7836 5.19056C17.0076 5.19056 17.1429 5.1509 17.1896 5.07156C17.2176 5.0249 17.2316 4.87323 17.2316 4.61656V1.75356V1.59956C17.2316 1.4269 17.2106 1.31723 17.1686 1.27056C17.1126 1.2099 16.9819 1.17956 16.7766 1.17956C16.6599 1.17956 16.6016 1.14923 16.6016 1.08856C16.6016 1.02323 16.6412 0.990562 16.7206 0.990562C16.8139 0.990562 16.9632 0.995229 17.1686 1.00456C17.3786 1.0139 17.4906 1.01856 17.5046 1.01856C17.5932 1.01856 17.7449 1.0139 17.9596 1.00456C18.1742 0.995229 18.2886 0.990562 18.3026 0.990562C18.3819 0.990562 18.4216 1.02323 18.4216 1.08856C18.4216 1.1259 18.4029 1.15156 18.3656 1.16556C18.3329 1.1749 18.2909 1.17956 18.2396 1.17956C18.0389 1.17956 17.9129 1.20756 17.8616 1.26356C17.8102 1.31956 17.7846 1.43156 17.7846 1.59956V1.75356ZM20.9478 1.75356V4.40656C20.9478 4.7099 20.9758 4.9059 21.0318 4.99456C21.1158 5.12523 21.3025 5.19056 21.5918 5.19056C21.7412 5.19056 21.8812 5.17423 22.0118 5.14156C22.1472 5.10423 22.2638 5.04356 22.3618 4.95956C22.4318 4.90356 22.5018 4.8149 22.5718 4.69356C22.6278 4.60023 22.6792 4.49523 22.7258 4.37856C22.7492 4.3179 22.7772 4.28756 22.8098 4.28756C22.8518 4.28756 22.8728 4.32023 22.8728 4.38556C22.8728 4.45556 22.8588 4.58156 22.8308 4.76356C22.8075 4.9409 22.7958 5.05756 22.7958 5.11356C22.7958 5.23023 22.7888 5.3049 22.7748 5.33756C22.7608 5.36556 22.7072 5.37956 22.6138 5.37956C22.3805 5.37956 21.9908 5.3749 21.4448 5.36556C20.9035 5.35623 20.6165 5.35156 20.5838 5.35156C20.5045 5.35156 20.3878 5.35623 20.2338 5.36556C20.0798 5.3749 19.9632 5.37956 19.8838 5.37956C19.8045 5.37956 19.7648 5.3469 19.7648 5.28156C19.7648 5.2209 19.8255 5.19056 19.9468 5.19056C20.1708 5.19056 20.3062 5.1509 20.3528 5.07156C20.3808 5.0249 20.3948 4.87323 20.3948 4.61656V1.75356V1.59956C20.3948 1.4269 20.3738 1.31723 20.3318 1.27056C20.2758 1.2099 20.1452 1.17956 19.9398 1.17956C19.8232 1.17956 19.7648 1.14923 19.7648 1.08856C19.7648 1.02323 19.8045 0.990562 19.8838 0.990562C19.9772 0.990562 20.1265 0.995229 20.3318 1.00456C20.5418 1.0139 20.6538 1.01856 20.6678 1.01856C20.7565 1.01856 20.9082 1.0139 21.1228 1.00456C21.3375 0.995229 21.4518 0.990562 21.4658 0.990562C21.5452 0.990562 21.5848 1.02323 21.5848 1.08856C21.5848 1.1259 21.5662 1.15156 21.5288 1.16556C21.4962 1.1749 21.4542 1.17956 21.4028 1.17956C21.2022 1.17956 21.0762 1.20756 21.0248 1.26356C20.9735 1.31956 20.9478 1.43156 20.9478 1.59956V1.75356ZM25.6283 4.60256V1.71156V1.54356C25.6283 1.4409 25.6166 1.36623 25.5933 1.31956C25.556 1.24956 25.4906 1.21456 25.3973 1.21456C25.346 1.21456 25.29 1.2239 25.2293 1.24256C25.1733 1.25656 25.1126 1.2729 25.0473 1.29156C24.996 1.29156 24.9703 1.2659 24.9703 1.21456C24.9703 1.10723 25.234 1.02556 25.7613 0.969562C26.2886 0.908895 26.6946 0.878562 26.9793 0.878562C27.3153 0.878562 27.635 0.922896 27.9383 1.01156C28.2463 1.09556 28.5286 1.23556 28.7853 1.43156C29.0466 1.62756 29.2566 1.87723 29.4153 2.18056C29.5786 2.4839 29.6603 2.7989 29.6603 3.12556C29.6603 3.44756 29.595 3.75556 29.4643 4.04956C29.3336 4.34356 29.147 4.5979 28.9043 4.81256C28.6616 5.02256 28.391 5.16956 28.0923 5.25356C27.7936 5.33756 27.46 5.37956 27.0913 5.37956C26.914 5.37956 26.6176 5.3749 26.2023 5.36556C25.787 5.35623 25.57 5.35156 25.5513 5.35156C25.5 5.35156 25.4136 5.35623 25.2923 5.36556C25.1756 5.3749 25.115 5.37956 25.1103 5.37956C25.031 5.37956 24.9913 5.3469 24.9913 5.28156C24.9913 5.24423 25.0076 5.22323 25.0403 5.21856C25.073 5.20923 25.1173 5.20456 25.1733 5.20456C25.4346 5.20456 25.5816 5.13456 25.6143 4.99456C25.6236 4.95256 25.6283 4.8219 25.6283 4.60256ZM26.1813 1.57156V4.47656C26.1813 4.78923 26.228 4.9969 26.3213 5.09956C26.4193 5.19756 26.6223 5.24656 26.9303 5.24656C27.2616 5.24656 27.5323 5.21156 27.7423 5.14156C28.0036 5.05756 28.2323 4.9129 28.4283 4.70756C28.629 4.49756 28.7783 4.26423 28.8763 4.00756C28.9743 3.74623 29.0233 3.47323 29.0233 3.18856C29.0233 2.5399 28.8226 2.01956 28.4213 1.62756C28.02 1.23556 27.4996 1.03956 26.8603 1.03956C26.7203 1.03956 26.5966 1.04656 26.4893 1.06056C26.3866 1.07456 26.312 1.1049 26.2653 1.15156C26.2233 1.19356 26.1976 1.24723 26.1883 1.31256C26.1836 1.3779 26.1813 1.46423 26.1813 1.57156ZM30.043 3.15356C30.043 2.52823 30.288 1.9939 30.778 1.55056C31.2726 1.10256 31.842 0.878562 32.486 0.878562C33.1626 0.878562 33.7366 1.09323 34.208 1.52256C34.684 1.94723 34.922 2.4909 34.922 3.15356C34.922 3.81623 34.6863 4.36223 34.215 4.79156C33.7436 5.2209 33.1673 5.43556 32.486 5.43556C31.842 5.43556 31.2773 5.21623 30.792 4.77756C30.2926 4.3249 30.043 3.78356 30.043 3.15356ZM34.285 3.15356C34.285 2.8689 34.25 2.60756 34.18 2.36956C34.11 2.13156 33.9886 1.9099 33.816 1.70456C33.648 1.49923 33.452 1.3429 33.228 1.23556C33.004 1.12356 32.7613 1.06756 32.5 1.06756C32.2246 1.06756 31.9656 1.12356 31.723 1.23556C31.485 1.34756 31.2843 1.50623 31.121 1.71156C30.9623 1.91223 30.848 2.1339 30.778 2.37656C30.708 2.61923 30.673 2.87823 30.673 3.15356C30.673 3.43356 30.708 3.69956 30.778 3.95156C30.8526 4.1989 30.974 4.4229 31.142 4.62356C31.31 4.81956 31.5106 4.97123 31.744 5.07856C31.982 5.1859 32.234 5.23956 32.5 5.23956C32.7613 5.23956 33.0086 5.18123 33.242 5.06456C33.48 4.94323 33.6783 4.78223 33.837 4.58156C34.0003 4.37623 34.1146 4.15456 34.18 3.91656C34.25 3.67856 34.285 3.42423 34.285 3.15356ZM38.4059 3.52456L37.5799 5.28156C37.5565 5.3469 37.5402 5.38423 37.5309 5.39356C37.5075 5.42156 37.4819 5.43556 37.4539 5.43556C37.4259 5.43556 37.4002 5.41223 37.3769 5.36556C37.3535 5.32356 37.3395 5.29556 37.3349 5.28156L35.6829 1.72556C35.6502 1.65556 35.6175 1.58323 35.5849 1.50856C35.5335 1.39656 35.4892 1.3219 35.4519 1.28456C35.4145 1.24256 35.3725 1.21456 35.3259 1.20056C35.2839 1.18656 35.2302 1.17956 35.1649 1.17956C35.0529 1.17956 34.9969 1.14456 34.9969 1.07456C34.9969 1.01856 35.0342 0.990562 35.1089 0.990562C35.1835 0.990562 35.2955 0.995229 35.4449 1.00456C35.5942 1.0139 35.7109 1.01856 35.7949 1.01856C35.8742 1.01856 36.0025 1.0139 36.1799 1.00456C36.3619 0.995229 36.4575 0.990562 36.4669 0.990562C36.5509 0.990562 36.5929 1.02323 36.5929 1.08856C36.5929 1.13056 36.5789 1.15623 36.5509 1.16556C36.5275 1.1749 36.4855 1.17956 36.4249 1.17956C36.3455 1.17956 36.2802 1.1889 36.2289 1.20756C36.1775 1.22623 36.1519 1.26823 36.1519 1.33356C36.1519 1.3849 36.1659 1.44556 36.1939 1.51556C36.2265 1.58556 36.2499 1.63456 36.2639 1.66256L37.6569 4.66556L38.1679 3.57356C38.1865 3.53156 38.2052 3.48723 38.2239 3.44056C38.2425 3.38923 38.2519 3.34256 38.2519 3.30056C38.2519 3.24456 38.2285 3.16056 38.1819 3.04856C38.1445 2.9739 38.1212 2.92256 38.1119 2.89456L37.5309 1.64156C37.4469 1.46423 37.3979 1.36623 37.3839 1.34756C37.3092 1.23556 37.2205 1.17956 37.1179 1.17956H37.0339C36.9499 1.17956 36.9079 1.14923 36.9079 1.08856C36.9079 1.02323 36.9429 0.990562 37.0129 0.990562C37.0875 0.990562 37.2159 0.995229 37.3979 1.00456C37.5845 1.0139 37.6849 1.01856 37.6989 1.01856C37.7782 1.01856 37.9065 1.0139 38.0839 1.00456C38.2659 0.995229 38.3615 0.990562 38.3709 0.990562C38.4502 0.990562 38.4899 1.02556 38.4899 1.09556C38.4899 1.13756 38.4689 1.16323 38.4269 1.17256C38.3895 1.17723 38.3382 1.17956 38.2729 1.17956C38.2029 1.17956 38.1469 1.19123 38.1049 1.21456C38.0629 1.2379 38.0419 1.2799 38.0419 1.34056C38.0419 1.37323 38.0535 1.42223 38.0769 1.48756C38.1049 1.5529 38.1305 1.61356 38.1539 1.66956L38.6019 2.64956L39.0639 1.66256C39.0779 1.62523 39.1012 1.5669 39.1339 1.48756C39.1665 1.40823 39.1829 1.35223 39.1829 1.31956C39.1829 1.27756 39.1595 1.2449 39.1129 1.22156C39.0709 1.19356 39.0265 1.17956 38.9799 1.17956C38.8492 1.17956 38.7839 1.15156 38.7839 1.09556C38.7839 1.02556 38.8282 0.990562 38.9169 0.990562C38.9729 0.990562 39.0569 0.995229 39.1689 1.00456C39.2809 1.0139 39.3649 1.01856 39.4209 1.01856C39.4769 1.01856 39.5609 1.0139 39.6729 1.00456C39.7849 0.995229 39.8689 0.990562 39.9249 0.990562C39.9855 0.990562 40.0159 1.0209 40.0159 1.08156C40.0159 1.12823 39.9995 1.15623 39.9669 1.16556C39.9342 1.1749 39.8829 1.17956 39.8129 1.17956C39.6635 1.17956 39.5399 1.24256 39.4419 1.36856C39.3999 1.42456 39.3322 1.55523 39.2389 1.76056L38.9169 2.43256C38.8422 2.58656 38.8002 2.6799 38.7909 2.71256C38.7675 2.7779 38.7559 2.8339 38.7559 2.88056C38.7559 2.92256 38.7629 2.96456 38.7769 3.00656C38.7909 3.04856 38.8282 3.13256 38.8889 3.25856L39.4839 4.60256L40.6739 1.72556C40.6972 1.67423 40.7205 1.61123 40.7439 1.53656C40.7672 1.4619 40.7789 1.40356 40.7789 1.36156C40.7789 1.27756 40.7462 1.22623 40.6809 1.20756C40.6202 1.1889 40.5362 1.17956 40.4289 1.17956C40.3495 1.17956 40.3099 1.1469 40.3099 1.08156C40.3099 1.0209 40.3495 0.990562 40.4289 0.990562C40.4849 0.990562 40.5829 0.995229 40.7229 1.00456C40.8629 1.0139 40.9375 1.01856 40.9469 1.01856C41.0029 1.01856 41.0869 1.0139 41.1989 1.00456C41.3109 0.995229 41.3972 0.990562 41.4579 0.990562C41.5372 0.990562 41.5769 1.02556 41.5769 1.09556C41.5769 1.15156 41.5139 1.17956 41.3879 1.17956C41.3365 1.17956 41.2922 1.18423 41.2549 1.19356C41.2222 1.2029 41.1825 1.23323 41.1359 1.28456C41.0892 1.3359 41.0449 1.4059 41.0029 1.49456C40.9609 1.58323 40.9212 1.6719 40.8839 1.76056L39.4279 5.27456C39.4185 5.30256 39.4069 5.33056 39.3929 5.35856C39.3789 5.39123 39.3555 5.40756 39.3229 5.40756C39.2902 5.40756 39.2575 5.37723 39.2249 5.31656C39.1922 5.25123 39.1712 5.20923 39.1619 5.19056L38.4059 3.52456ZM45.2613 4.44856V1.76056V1.60656C45.2613 1.4339 45.2357 1.31956 45.1843 1.26356C45.133 1.20756 45.0047 1.17956 44.7993 1.17956C44.6827 1.17956 44.6243 1.1539 44.6243 1.10256C44.6243 1.0279 44.6663 0.990562 44.7503 0.990562C44.8203 0.990562 44.937 0.995229 45.1003 1.00456C45.2637 1.0139 45.3523 1.01856 45.3663 1.01856C45.441 1.01856 45.5577 1.0139 45.7163 1.00456C45.8797 0.995229 45.966 0.990562 45.9753 0.990562C46.0547 0.990562 46.0943 1.0279 46.0943 1.10256C46.0943 1.13056 46.0803 1.15156 46.0523 1.16556C46.029 1.1749 45.9823 1.17956 45.9123 1.17956C45.693 1.17956 45.5577 1.22156 45.5063 1.30556C45.4737 1.36156 45.4573 1.51323 45.4573 1.76056V5.31656C45.4573 5.40523 45.441 5.44956 45.4083 5.44956C45.3757 5.44956 45.3407 5.42856 45.3033 5.38656C45.294 5.37256 45.2707 5.33756 45.2333 5.28156L42.2933 1.45956V4.62356C42.2933 4.88023 42.3073 5.0319 42.3353 5.07856C42.382 5.16256 42.5197 5.20456 42.7483 5.20456C42.865 5.20456 42.9233 5.2279 42.9233 5.27456C42.9233 5.34456 42.8837 5.37956 42.8043 5.37956C42.7343 5.37956 42.6177 5.3749 42.4543 5.36556C42.291 5.35623 42.2023 5.35156 42.1883 5.35156C42.123 5.35156 42.0227 5.35623 41.8873 5.36556C41.752 5.3749 41.6493 5.37956 41.5793 5.37956C41.4953 5.37956 41.4533 5.34456 41.4533 5.27456C41.4533 5.2279 41.4907 5.20456 41.5653 5.20456H41.6353C41.9013 5.20456 42.0483 5.13923 42.0763 5.00856C42.0857 4.96656 42.0903 4.83823 42.0903 4.62356V1.76056V1.60656C42.0903 1.42923 42.0693 1.31723 42.0273 1.27056C41.9713 1.2099 41.8407 1.17956 41.6353 1.17956C41.5187 1.17956 41.4603 1.1539 41.4603 1.10256C41.4603 1.06056 41.4767 1.03256 41.5093 1.01856C41.5467 0.999896 41.5863 0.990562 41.6283 0.990562H42.4963C42.5617 1.00456 42.6177 1.0349 42.6643 1.08156C42.6737 1.0909 42.7133 1.14223 42.7833 1.23556L45.2613 4.44856Z" fill="white"/>
<circle cx="74.5" cy="3.35156" r="2.5" fill="white"/>
<path d="M103.743 3.34956L103.386 3.19556C103.064 3.05556 102.831 2.9179 102.686 2.78256C102.476 2.58656 102.371 2.34623 102.371 2.06156C102.371 1.7069 102.504 1.42223 102.77 1.20756C103.041 0.988229 103.358 0.878562 103.722 0.878562C103.876 0.878562 104.037 0.892562 104.205 0.920562C104.378 0.943896 104.529 0.981229 104.66 1.03256C104.721 1.0559 104.756 1.08623 104.765 1.12356C104.779 1.15623 104.786 1.21223 104.786 1.29156L104.814 1.83756C104.814 1.89356 104.788 1.92156 104.737 1.92156C104.704 1.92156 104.679 1.89823 104.66 1.85156C104.641 1.8049 104.63 1.77456 104.625 1.76056C104.541 1.5039 104.438 1.31956 104.317 1.20756C104.177 1.08156 103.976 1.01856 103.715 1.01856C103.468 1.01856 103.255 1.0839 103.078 1.21456C102.901 1.34056 102.812 1.5249 102.812 1.76756C102.812 2.02423 102.959 2.24823 103.253 2.43956C103.356 2.5049 103.617 2.62856 104.037 2.81056C104.182 2.8759 104.305 2.9389 104.408 2.99956C104.548 3.0789 104.655 3.16056 104.73 3.24456C104.833 3.36123 104.914 3.4919 104.975 3.63656C105.036 3.77656 105.066 3.92356 105.066 4.07756C105.066 4.2689 105.022 4.4509 104.933 4.62356C104.844 4.79623 104.723 4.94556 104.569 5.07156C104.42 5.19756 104.249 5.2909 104.058 5.35156C103.871 5.40756 103.671 5.43556 103.456 5.43556C103.279 5.43556 103.094 5.4099 102.903 5.35856C102.712 5.3119 102.544 5.24656 102.399 5.16256C102.357 5.13456 102.329 5.09956 102.315 5.05756C102.306 5.0109 102.301 4.95023 102.301 4.87556V4.77056C102.301 4.6819 102.301 4.59556 102.301 4.51156C102.301 4.42756 102.306 4.34823 102.315 4.27356C102.324 4.1989 102.338 4.1499 102.357 4.12656C102.376 4.10323 102.399 4.09156 102.427 4.09156C102.469 4.09156 102.495 4.11723 102.504 4.16856C102.513 4.2199 102.52 4.27123 102.525 4.32256C102.562 4.63056 102.665 4.8709 102.833 5.04356C103.001 5.21623 103.241 5.30256 103.554 5.30256C103.834 5.30256 104.077 5.21856 104.282 5.05056C104.492 4.88256 104.597 4.66323 104.597 4.39256C104.597 4.13123 104.515 3.91423 104.352 3.74156C104.221 3.60156 104.018 3.4709 103.743 3.34956ZM109.16 1.42456L109.209 1.87956C109.209 1.94023 109.184 1.97056 109.132 1.97056C109.016 1.73723 108.859 1.53423 108.663 1.36156C108.449 1.17023 108.164 1.07456 107.809 1.07456C107.254 1.07456 106.815 1.28456 106.493 1.70456C106.199 2.08723 106.052 2.56323 106.052 3.13256C106.052 3.6459 106.197 4.10323 106.486 4.50456C106.659 4.74256 106.853 4.9269 107.067 5.05756C107.287 5.18356 107.534 5.24656 107.809 5.24656C108.159 5.24656 108.444 5.13223 108.663 4.90356C108.831 4.65156 108.999 4.39956 109.167 4.14756C109.228 4.14756 109.254 4.1779 109.244 4.23856L109.209 4.80556C109.209 4.91756 109.2 4.98756 109.181 5.01556C109.163 5.04356 109.097 5.08556 108.985 5.14156C108.57 5.33756 108.148 5.43556 107.718 5.43556C107.084 5.43556 106.542 5.21156 106.094 4.76356C105.651 4.3109 105.429 3.76956 105.429 3.13956C105.429 2.5049 105.67 1.97056 106.15 1.53656C106.636 1.0979 107.205 0.878562 107.858 0.878562C108.008 0.878562 108.192 0.897229 108.411 0.934562C108.635 0.971896 108.82 1.01623 108.964 1.06756C109.062 1.10023 109.121 1.15856 109.139 1.24256C109.139 1.2519 109.146 1.31256 109.16 1.42456ZM110.116 4.62356V1.76056V1.60656C110.116 1.42923 110.095 1.31723 110.053 1.27056C109.997 1.2099 109.866 1.17956 109.661 1.17956C109.544 1.17956 109.486 1.15156 109.486 1.09556C109.486 1.02556 109.528 0.990562 109.612 0.990562C109.687 0.990562 109.815 0.995229 109.997 1.00456C110.184 1.0139 110.284 1.01856 110.298 1.01856C110.438 1.01856 110.667 1.0139 110.984 1.00456C111.306 0.995229 111.476 0.990562 111.495 0.990562C111.864 0.990562 112.167 1.07456 112.405 1.24256C112.68 1.4339 112.818 1.70456 112.818 2.05456C112.818 2.35323 112.706 2.6029 112.482 2.80356C112.277 2.98556 112.02 3.09756 111.712 3.13956C111.81 3.15356 111.896 3.2119 111.971 3.31456C112.004 3.35656 112.06 3.45223 112.139 3.60156L112.706 4.69356C112.809 4.89423 112.874 5.0109 112.902 5.04356C112.991 5.1509 113.105 5.20456 113.245 5.20456C113.306 5.20456 113.35 5.20923 113.378 5.21856C113.411 5.2279 113.427 5.2559 113.427 5.30256C113.427 5.3539 113.385 5.37956 113.301 5.37956H112.559C112.498 5.37956 112.449 5.3539 112.412 5.30256C112.398 5.28856 112.368 5.2349 112.321 5.14156L111.635 3.77656C111.5 3.51523 111.406 3.36356 111.355 3.32156C111.276 3.2609 111.11 3.23056 110.858 3.23056C110.774 3.23056 110.723 3.24223 110.704 3.26556C110.685 3.2889 110.674 3.3379 110.669 3.41256C110.669 3.48256 110.669 3.5269 110.669 3.54556V4.62356C110.669 4.88023 110.683 5.0319 110.711 5.07856C110.762 5.16256 110.9 5.20456 111.124 5.20456C111.18 5.20456 111.224 5.20923 111.257 5.21856C111.29 5.2279 111.306 5.25123 111.306 5.28856C111.306 5.34923 111.266 5.37956 111.187 5.37956C111.094 5.37956 110.942 5.3749 110.732 5.36556C110.527 5.35623 110.417 5.35156 110.403 5.35156C110.314 5.35156 110.163 5.35623 109.948 5.36556C109.733 5.3749 109.619 5.37956 109.605 5.37956C109.526 5.37956 109.486 5.34923 109.486 5.28856C109.486 5.24656 109.5 5.22323 109.528 5.21856C109.561 5.20923 109.605 5.20456 109.661 5.20456C109.927 5.20456 110.074 5.13923 110.102 5.00856C110.111 4.96656 110.116 4.83823 110.116 4.62356ZM110.669 1.69756V2.95056C110.669 2.99723 110.688 3.03223 110.725 3.05556C110.767 3.07423 110.818 3.08356 110.879 3.08356C110.949 3.0789 110.998 3.07656 111.026 3.07656C111.222 3.07656 111.385 3.06256 111.516 3.03456C111.647 3.00656 111.77 2.94823 111.887 2.85956C112.004 2.76623 112.088 2.6589 112.139 2.53756C112.195 2.41156 112.223 2.27623 112.223 2.13156C112.223 1.81423 112.134 1.56923 111.957 1.39656C111.78 1.2239 111.532 1.13756 111.215 1.13756C110.958 1.13756 110.802 1.1679 110.746 1.22856C110.695 1.28456 110.669 1.4409 110.669 1.69756ZM113.431 3.15356C113.431 2.52823 113.676 1.9939 114.166 1.55056C114.66 1.10256 115.23 0.878562 115.874 0.878562C116.55 0.878562 117.124 1.09323 117.596 1.52256C118.072 1.94723 118.31 2.4909 118.31 3.15356C118.31 3.81623 118.074 4.36223 117.603 4.79156C117.131 5.2209 116.555 5.43556 115.874 5.43556C115.23 5.43556 114.665 5.21623 114.18 4.77756C113.68 4.3249 113.431 3.78356 113.431 3.15356ZM117.673 3.15356C117.673 2.8689 117.638 2.60756 117.568 2.36956C117.498 2.13156 117.376 1.9099 117.204 1.70456C117.036 1.49923 116.84 1.3429 116.616 1.23556C116.392 1.12356 116.149 1.06756 115.888 1.06756C115.612 1.06756 115.353 1.12356 115.111 1.23556C114.873 1.34756 114.672 1.50623 114.509 1.71156C114.35 1.91223 114.236 2.1339 114.166 2.37656C114.096 2.61923 114.061 2.87823 114.061 3.15356C114.061 3.43356 114.096 3.69956 114.166 3.95156C114.24 4.1989 114.362 4.4229 114.53 4.62356C114.698 4.81956 114.898 4.97123 115.132 5.07856C115.37 5.1859 115.622 5.23956 115.888 5.23956C116.149 5.23956 116.396 5.18123 116.63 5.06456C116.868 4.94323 117.066 4.78223 117.225 4.58156C117.388 4.37623 117.502 4.15456 117.568 3.91656C117.638 3.67856 117.673 3.42423 117.673 3.15356ZM119.785 1.75356V4.40656C119.785 4.7099 119.813 4.9059 119.869 4.99456C119.953 5.12523 120.139 5.19056 120.429 5.19056C120.578 5.19056 120.718 5.17423 120.849 5.14156C120.984 5.10423 121.101 5.04356 121.199 4.95956C121.269 4.90356 121.339 4.8149 121.409 4.69356C121.465 4.60023 121.516 4.49523 121.563 4.37856C121.586 4.3179 121.614 4.28756 121.647 4.28756C121.689 4.28756 121.71 4.32023 121.71 4.38556C121.71 4.45556 121.696 4.58156 121.668 4.76356C121.644 4.9409 121.633 5.05756 121.633 5.11356C121.633 5.23023 121.626 5.3049 121.612 5.33756C121.598 5.36556 121.544 5.37956 121.451 5.37956C121.217 5.37956 120.828 5.3749 120.282 5.36556C119.74 5.35623 119.453 5.35156 119.421 5.35156C119.341 5.35156 119.225 5.35623 119.071 5.36556C118.917 5.3749 118.8 5.37956 118.721 5.37956C118.641 5.37956 118.602 5.3469 118.602 5.28156C118.602 5.2209 118.662 5.19056 118.784 5.19056C119.008 5.19056 119.143 5.1509 119.19 5.07156C119.218 5.0249 119.232 4.87323 119.232 4.61656V1.75356V1.59956C119.232 1.4269 119.211 1.31723 119.169 1.27056C119.113 1.2099 118.982 1.17956 118.777 1.17956C118.66 1.17956 118.602 1.14923 118.602 1.08856C118.602 1.02323 118.641 0.990562 118.721 0.990562C118.814 0.990562 118.963 0.995229 119.169 1.00456C119.379 1.0139 119.491 1.01856 119.505 1.01856C119.593 1.01856 119.745 1.0139 119.96 1.00456C120.174 0.995229 120.289 0.990562 120.303 0.990562C120.382 0.990562 120.422 1.02323 120.422 1.08856C120.422 1.1259 120.403 1.15156 120.366 1.16556C120.333 1.1749 120.291 1.17956 120.24 1.17956C120.039 1.17956 119.913 1.20756 119.862 1.26356C119.81 1.31956 119.785 1.43156 119.785 1.59956V1.75356ZM122.948 1.75356V4.40656C122.948 4.7099 122.976 4.9059 123.032 4.99456C123.116 5.12523 123.303 5.19056 123.592 5.19056C123.741 5.19056 123.881 5.17423 124.012 5.14156C124.147 5.10423 124.264 5.04356 124.362 4.95956C124.432 4.90356 124.502 4.8149 124.572 4.69356C124.628 4.60023 124.679 4.49523 124.726 4.37856C124.749 4.3179 124.777 4.28756 124.81 4.28756C124.852 4.28756 124.873 4.32023 124.873 4.38556C124.873 4.45556 124.859 4.58156 124.831 4.76356C124.808 4.9409 124.796 5.05756 124.796 5.11356C124.796 5.23023 124.789 5.3049 124.775 5.33756C124.761 5.36556 124.707 5.37956 124.614 5.37956C124.381 5.37956 123.991 5.3749 123.445 5.36556C122.904 5.35623 122.617 5.35156 122.584 5.35156C122.505 5.35156 122.388 5.35623 122.234 5.36556C122.08 5.3749 121.963 5.37956 121.884 5.37956C121.805 5.37956 121.765 5.3469 121.765 5.28156C121.765 5.2209 121.826 5.19056 121.947 5.19056C122.171 5.19056 122.306 5.1509 122.353 5.07156C122.381 5.0249 122.395 4.87323 122.395 4.61656V1.75356V1.59956C122.395 1.4269 122.374 1.31723 122.332 1.27056C122.276 1.2099 122.145 1.17956 121.94 1.17956C121.823 1.17956 121.765 1.14923 121.765 1.08856C121.765 1.02323 121.805 0.990562 121.884 0.990562C121.977 0.990562 122.127 0.995229 122.332 1.00456C122.542 1.0139 122.654 1.01856 122.668 1.01856C122.757 1.01856 122.908 1.0139 123.123 1.00456C123.338 0.995229 123.452 0.990562 123.466 0.990562C123.545 0.990562 123.585 1.02323 123.585 1.08856C123.585 1.1259 123.566 1.15156 123.529 1.16556C123.496 1.1749 123.454 1.17956 123.403 1.17956C123.202 1.17956 123.076 1.20756 123.025 1.26356C122.974 1.31956 122.948 1.43156 122.948 1.59956V1.75356ZM127.628 4.60256V1.71156V1.54356C127.628 1.4409 127.617 1.36623 127.593 1.31956C127.556 1.24956 127.491 1.21456 127.397 1.21456C127.346 1.21456 127.29 1.2239 127.229 1.24256C127.173 1.25656 127.113 1.2729 127.047 1.29156C126.996 1.29156 126.97 1.2659 126.97 1.21456C126.97 1.10723 127.234 1.02556 127.761 0.969562C128.289 0.908895 128.695 0.878562 128.979 0.878562C129.315 0.878562 129.635 0.922896 129.938 1.01156C130.246 1.09556 130.529 1.23556 130.785 1.43156C131.047 1.62756 131.257 1.87723 131.415 2.18056C131.579 2.4839 131.66 2.7989 131.66 3.12556C131.66 3.44756 131.595 3.75556 131.464 4.04956C131.334 4.34356 131.147 4.5979 130.904 4.81256C130.662 5.02256 130.391 5.16956 130.092 5.25356C129.794 5.33756 129.46 5.37956 129.091 5.37956C128.914 5.37956 128.618 5.3749 128.202 5.36556C127.787 5.35623 127.57 5.35156 127.551 5.35156C127.5 5.35156 127.414 5.35623 127.292 5.36556C127.176 5.3749 127.115 5.37956 127.11 5.37956C127.031 5.37956 126.991 5.3469 126.991 5.28156C126.991 5.24423 127.008 5.22323 127.04 5.21856C127.073 5.20923 127.117 5.20456 127.173 5.20456C127.435 5.20456 127.582 5.13456 127.614 4.99456C127.624 4.95256 127.628 4.8219 127.628 4.60256ZM128.181 1.57156V4.47656C128.181 4.78923 128.228 4.9969 128.321 5.09956C128.419 5.19756 128.622 5.24656 128.93 5.24656C129.262 5.24656 129.532 5.21156 129.742 5.14156C130.004 5.05756 130.232 4.9129 130.428 4.70756C130.629 4.49756 130.778 4.26423 130.876 4.00756C130.974 3.74623 131.023 3.47323 131.023 3.18856C131.023 2.5399 130.823 2.01956 130.421 1.62756C130.02 1.23556 129.5 1.03956 128.86 1.03956C128.72 1.03956 128.597 1.04656 128.489 1.06056C128.387 1.07456 128.312 1.1049 128.265 1.15156C128.223 1.19356 128.198 1.24723 128.188 1.31256C128.184 1.3779 128.181 1.46423 128.181 1.57156ZM132.043 3.15356C132.043 2.52823 132.288 1.9939 132.778 1.55056C133.273 1.10256 133.842 0.878562 134.486 0.878562C135.163 0.878562 135.737 1.09323 136.208 1.52256C136.684 1.94723 136.922 2.4909 136.922 3.15356C136.922 3.81623 136.686 4.36223 136.215 4.79156C135.744 5.2209 135.167 5.43556 134.486 5.43556C133.842 5.43556 133.277 5.21623 132.792 4.77756C132.293 4.3249 132.043 3.78356 132.043 3.15356ZM136.285 3.15356C136.285 2.8689 136.25 2.60756 136.18 2.36956C136.11 2.13156 135.989 1.9099 135.816 1.70456C135.648 1.49923 135.452 1.3429 135.228 1.23556C135.004 1.12356 134.761 1.06756 134.5 1.06756C134.225 1.06756 133.966 1.12356 133.723 1.23556C133.485 1.34756 133.284 1.50623 133.121 1.71156C132.962 1.91223 132.848 2.1339 132.778 2.37656C132.708 2.61923 132.673 2.87823 132.673 3.15356C132.673 3.43356 132.708 3.69956 132.778 3.95156C132.853 4.1989 132.974 4.4229 133.142 4.62356C133.31 4.81956 133.511 4.97123 133.744 5.07856C133.982 5.1859 134.234 5.23956 134.5 5.23956C134.761 5.23956 135.009 5.18123 135.242 5.06456C135.48 4.94323 135.678 4.78223 135.837 4.58156C136 4.37623 136.115 4.15456 136.18 3.91656C136.25 3.67856 136.285 3.42423 136.285 3.15356ZM140.406 3.52456L139.58 5.28156C139.557 5.3469 139.54 5.38423 139.531 5.39356C139.508 5.42156 139.482 5.43556 139.454 5.43556C139.426 5.43556 139.4 5.41223 139.377 5.36556C139.354 5.32356 139.34 5.29556 139.335 5.28156L137.683 1.72556C137.65 1.65556 137.618 1.58323 137.585 1.50856C137.534 1.39656 137.489 1.3219 137.452 1.28456C137.415 1.24256 137.373 1.21456 137.326 1.20056C137.284 1.18656 137.23 1.17956 137.165 1.17956C137.053 1.17956 136.997 1.14456 136.997 1.07456C136.997 1.01856 137.034 0.990562 137.109 0.990562C137.184 0.990562 137.296 0.995229 137.445 1.00456C137.594 1.0139 137.711 1.01856 137.795 1.01856C137.874 1.01856 138.003 1.0139 138.18 1.00456C138.362 0.995229 138.458 0.990562 138.467 0.990562C138.551 0.990562 138.593 1.02323 138.593 1.08856C138.593 1.13056 138.579 1.15623 138.551 1.16556C138.528 1.1749 138.486 1.17956 138.425 1.17956C138.346 1.17956 138.28 1.1889 138.229 1.20756C138.178 1.22623 138.152 1.26823 138.152 1.33356C138.152 1.3849 138.166 1.44556 138.194 1.51556C138.227 1.58556 138.25 1.63456 138.264 1.66256L139.657 4.66556L140.168 3.57356C140.187 3.53156 140.205 3.48723 140.224 3.44056C140.243 3.38923 140.252 3.34256 140.252 3.30056C140.252 3.24456 140.229 3.16056 140.182 3.04856C140.145 2.9739 140.121 2.92256 140.112 2.89456L139.531 1.64156C139.447 1.46423 139.398 1.36623 139.384 1.34756C139.309 1.23556 139.221 1.17956 139.118 1.17956H139.034C138.95 1.17956 138.908 1.14923 138.908 1.08856C138.908 1.02323 138.943 0.990562 139.013 0.990562C139.088 0.990562 139.216 0.995229 139.398 1.00456C139.585 1.0139 139.685 1.01856 139.699 1.01856C139.778 1.01856 139.907 1.0139 140.084 1.00456C140.266 0.995229 140.362 0.990562 140.371 0.990562C140.45 0.990562 140.49 1.02556 140.49 1.09556C140.49 1.13756 140.469 1.16323 140.427 1.17256C140.39 1.17723 140.338 1.17956 140.273 1.17956C140.203 1.17956 140.147 1.19123 140.105 1.21456C140.063 1.2379 140.042 1.2799 140.042 1.34056C140.042 1.37323 140.054 1.42223 140.077 1.48756C140.105 1.5529 140.131 1.61356 140.154 1.66956L140.602 2.64956L141.064 1.66256C141.078 1.62523 141.101 1.5669 141.134 1.48756C141.167 1.40823 141.183 1.35223 141.183 1.31956C141.183 1.27756 141.16 1.2449 141.113 1.22156C141.071 1.19356 141.027 1.17956 140.98 1.17956C140.849 1.17956 140.784 1.15156 140.784 1.09556C140.784 1.02556 140.828 0.990562 140.917 0.990562C140.973 0.990562 141.057 0.995229 141.169 1.00456C141.281 1.0139 141.365 1.01856 141.421 1.01856C141.477 1.01856 141.561 1.0139 141.673 1.00456C141.785 0.995229 141.869 0.990562 141.925 0.990562C141.986 0.990562 142.016 1.0209 142.016 1.08156C142.016 1.12823 142 1.15623 141.967 1.16556C141.934 1.1749 141.883 1.17956 141.813 1.17956C141.664 1.17956 141.54 1.24256 141.442 1.36856C141.4 1.42456 141.332 1.55523 141.239 1.76056L140.917 2.43256C140.842 2.58656 140.8 2.6799 140.791 2.71256C140.768 2.7779 140.756 2.8339 140.756 2.88056C140.756 2.92256 140.763 2.96456 140.777 3.00656C140.791 3.04856 140.828 3.13256 140.889 3.25856L141.484 4.60256L142.674 1.72556C142.697 1.67423 142.721 1.61123 142.744 1.53656C142.767 1.4619 142.779 1.40356 142.779 1.36156C142.779 1.27756 142.746 1.22623 142.681 1.20756C142.62 1.1889 142.536 1.17956 142.429 1.17956C142.35 1.17956 142.31 1.1469 142.31 1.08156C142.31 1.0209 142.35 0.990562 142.429 0.990562C142.485 0.990562 142.583 0.995229 142.723 1.00456C142.863 1.0139 142.938 1.01856 142.947 1.01856C143.003 1.01856 143.087 1.0139 143.199 1.00456C143.311 0.995229 143.397 0.990562 143.458 0.990562C143.537 0.990562 143.577 1.02556 143.577 1.09556C143.577 1.15156 143.514 1.17956 143.388 1.17956C143.337 1.17956 143.292 1.18423 143.255 1.19356C143.222 1.2029 143.183 1.23323 143.136 1.28456C143.089 1.3359 143.045 1.4059 143.003 1.49456C142.961 1.58323 142.921 1.6719 142.884 1.76056L141.428 5.27456C141.419 5.30256 141.407 5.33056 141.393 5.35856C141.379 5.39123 141.356 5.40756 141.323 5.40756C141.29 5.40756 141.258 5.37723 141.225 5.31656C141.192 5.25123 141.171 5.20923 141.162 5.19056L140.406 3.52456ZM147.261 4.44856V1.76056V1.60656C147.261 1.4339 147.236 1.31956 147.184 1.26356C147.133 1.20756 147.005 1.17956 146.799 1.17956C146.683 1.17956 146.624 1.1539 146.624 1.10256C146.624 1.0279 146.666 0.990562 146.75 0.990562C146.82 0.990562 146.937 0.995229 147.1 1.00456C147.264 1.0139 147.352 1.01856 147.366 1.01856C147.441 1.01856 147.558 1.0139 147.716 1.00456C147.88 0.995229 147.966 0.990562 147.975 0.990562C148.055 0.990562 148.094 1.0279 148.094 1.10256C148.094 1.13056 148.08 1.15156 148.052 1.16556C148.029 1.1749 147.982 1.17956 147.912 1.17956C147.693 1.17956 147.558 1.22156 147.506 1.30556C147.474 1.36156 147.457 1.51323 147.457 1.76056V5.31656C147.457 5.40523 147.441 5.44956 147.408 5.44956C147.376 5.44956 147.341 5.42856 147.303 5.38656C147.294 5.37256 147.271 5.33756 147.233 5.28156L144.293 1.45956V4.62356C144.293 4.88023 144.307 5.0319 144.335 5.07856C144.382 5.16256 144.52 5.20456 144.748 5.20456C144.865 5.20456 144.923 5.2279 144.923 5.27456C144.923 5.34456 144.884 5.37956 144.804 5.37956C144.734 5.37956 144.618 5.3749 144.454 5.36556C144.291 5.35623 144.202 5.35156 144.188 5.35156C144.123 5.35156 144.023 5.35623 143.887 5.36556C143.752 5.3749 143.649 5.37956 143.579 5.37956C143.495 5.37956 143.453 5.34456 143.453 5.27456C143.453 5.2279 143.491 5.20456 143.565 5.20456H143.635C143.901 5.20456 144.048 5.13923 144.076 5.00856C144.086 4.96656 144.09 4.83823 144.09 4.62356V1.76056V1.60656C144.09 1.42923 144.069 1.31723 144.027 1.27056C143.971 1.2099 143.841 1.17956 143.635 1.17956C143.519 1.17956 143.46 1.1539 143.46 1.10256C143.46 1.06056 143.477 1.03256 143.509 1.01856C143.547 0.999896 143.586 0.990562 143.628 0.990562H144.496C144.562 1.00456 144.618 1.0349 144.664 1.08156C144.674 1.0909 144.713 1.14223 144.783 1.23556L147.261 4.44856Z" fill="white"/>
<circle cx="176.5" cy="3.35156" r="2.5" fill="white"/>
<path d="M205.743 3.34956L205.386 3.19556C205.064 3.05556 204.831 2.9179 204.686 2.78256C204.476 2.58656 204.371 2.34623 204.371 2.06156C204.371 1.7069 204.504 1.42223 204.77 1.20756C205.041 0.988229 205.358 0.878562 205.722 0.878562C205.876 0.878562 206.037 0.892562 206.205 0.920562C206.378 0.943896 206.529 0.981229 206.66 1.03256C206.721 1.0559 206.756 1.08623 206.765 1.12356C206.779 1.15623 206.786 1.21223 206.786 1.29156L206.814 1.83756C206.814 1.89356 206.788 1.92156 206.737 1.92156C206.704 1.92156 206.679 1.89823 206.66 1.85156C206.641 1.8049 206.63 1.77456 206.625 1.76056C206.541 1.5039 206.438 1.31956 206.317 1.20756C206.177 1.08156 205.976 1.01856 205.715 1.01856C205.468 1.01856 205.255 1.0839 205.078 1.21456C204.901 1.34056 204.812 1.5249 204.812 1.76756C204.812 2.02423 204.959 2.24823 205.253 2.43956C205.356 2.5049 205.617 2.62856 206.037 2.81056C206.182 2.8759 206.305 2.9389 206.408 2.99956C206.548 3.0789 206.655 3.16056 206.73 3.24456C206.833 3.36123 206.914 3.4919 206.975 3.63656C207.036 3.77656 207.066 3.92356 207.066 4.07756C207.066 4.2689 207.022 4.4509 206.933 4.62356C206.844 4.79623 206.723 4.94556 206.569 5.07156C206.42 5.19756 206.249 5.2909 206.058 5.35156C205.871 5.40756 205.671 5.43556 205.456 5.43556C205.279 5.43556 205.094 5.4099 204.903 5.35856C204.712 5.3119 204.544 5.24656 204.399 5.16256C204.357 5.13456 204.329 5.09956 204.315 5.05756C204.306 5.0109 204.301 4.95023 204.301 4.87556V4.77056C204.301 4.6819 204.301 4.59556 204.301 4.51156C204.301 4.42756 204.306 4.34823 204.315 4.27356C204.324 4.1989 204.338 4.1499 204.357 4.12656C204.376 4.10323 204.399 4.09156 204.427 4.09156C204.469 4.09156 204.495 4.11723 204.504 4.16856C204.513 4.2199 204.52 4.27123 204.525 4.32256C204.562 4.63056 204.665 4.8709 204.833 5.04356C205.001 5.21623 205.241 5.30256 205.554 5.30256C205.834 5.30256 206.077 5.21856 206.282 5.05056C206.492 4.88256 206.597 4.66323 206.597 4.39256C206.597 4.13123 206.515 3.91423 206.352 3.74156C206.221 3.60156 206.018 3.4709 205.743 3.34956ZM211.16 1.42456L211.209 1.87956C211.209 1.94023 211.184 1.97056 211.132 1.97056C211.016 1.73723 210.859 1.53423 210.663 1.36156C210.449 1.17023 210.164 1.07456 209.809 1.07456C209.254 1.07456 208.815 1.28456 208.493 1.70456C208.199 2.08723 208.052 2.56323 208.052 3.13256C208.052 3.6459 208.197 4.10323 208.486 4.50456C208.659 4.74256 208.853 4.9269 209.067 5.05756C209.287 5.18356 209.534 5.24656 209.809 5.24656C210.159 5.24656 210.444 5.13223 210.663 4.90356C210.831 4.65156 210.999 4.39956 211.167 4.14756C211.228 4.14756 211.254 4.1779 211.244 4.23856L211.209 4.80556C211.209 4.91756 211.2 4.98756 211.181 5.01556C211.163 5.04356 211.097 5.08556 210.985 5.14156C210.57 5.33756 210.148 5.43556 209.718 5.43556C209.084 5.43556 208.542 5.21156 208.094 4.76356C207.651 4.3109 207.429 3.76956 207.429 3.13956C207.429 2.5049 207.67 1.97056 208.15 1.53656C208.636 1.0979 209.205 0.878562 209.858 0.878562C210.008 0.878562 210.192 0.897229 210.411 0.934562C210.635 0.971896 210.82 1.01623 210.964 1.06756C211.062 1.10023 211.121 1.15856 211.139 1.24256C211.139 1.2519 211.146 1.31256 211.16 1.42456ZM212.116 4.62356V1.76056V1.60656C212.116 1.42923 212.095 1.31723 212.053 1.27056C211.997 1.2099 211.866 1.17956 211.661 1.17956C211.544 1.17956 211.486 1.15156 211.486 1.09556C211.486 1.02556 211.528 0.990562 211.612 0.990562C211.687 0.990562 211.815 0.995229 211.997 1.00456C212.184 1.0139 212.284 1.01856 212.298 1.01856C212.438 1.01856 212.667 1.0139 212.984 1.00456C213.306 0.995229 213.476 0.990562 213.495 0.990562C213.864 0.990562 214.167 1.07456 214.405 1.24256C214.68 1.4339 214.818 1.70456 214.818 2.05456C214.818 2.35323 214.706 2.6029 214.482 2.80356C214.277 2.98556 214.02 3.09756 213.712 3.13956C213.81 3.15356 213.896 3.2119 213.971 3.31456C214.004 3.35656 214.06 3.45223 214.139 3.60156L214.706 4.69356C214.809 4.89423 214.874 5.0109 214.902 5.04356C214.991 5.1509 215.105 5.20456 215.245 5.20456C215.306 5.20456 215.35 5.20923 215.378 5.21856C215.411 5.2279 215.427 5.2559 215.427 5.30256C215.427 5.3539 215.385 5.37956 215.301 5.37956H214.559C214.498 5.37956 214.449 5.3539 214.412 5.30256C214.398 5.28856 214.368 5.2349 214.321 5.14156L213.635 3.77656C213.5 3.51523 213.406 3.36356 213.355 3.32156C213.276 3.2609 213.11 3.23056 212.858 3.23056C212.774 3.23056 212.723 3.24223 212.704 3.26556C212.685 3.2889 212.674 3.3379 212.669 3.41256C212.669 3.48256 212.669 3.5269 212.669 3.54556V4.62356C212.669 4.88023 212.683 5.0319 212.711 5.07856C212.762 5.16256 212.9 5.20456 213.124 5.20456C213.18 5.20456 213.224 5.20923 213.257 5.21856C213.29 5.2279 213.306 5.25123 213.306 5.28856C213.306 5.34923 213.266 5.37956 213.187 5.37956C213.094 5.37956 212.942 5.3749 212.732 5.36556C212.527 5.35623 212.417 5.35156 212.403 5.35156C212.314 5.35156 212.163 5.35623 211.948 5.36556C211.733 5.3749 211.619 5.37956 211.605 5.37956C211.526 5.37956 211.486 5.34923 211.486 5.28856C211.486 5.24656 211.5 5.22323 211.528 5.21856C211.561 5.20923 211.605 5.20456 211.661 5.20456C211.927 5.20456 212.074 5.13923 212.102 5.00856C212.111 4.96656 212.116 4.83823 212.116 4.62356ZM212.669 1.69756V2.95056C212.669 2.99723 212.688 3.03223 212.725 3.05556C212.767 3.07423 212.818 3.08356 212.879 3.08356C212.949 3.0789 212.998 3.07656 213.026 3.07656C213.222 3.07656 213.385 3.06256 213.516 3.03456C213.647 3.00656 213.77 2.94823 213.887 2.85956C214.004 2.76623 214.088 2.6589 214.139 2.53756C214.195 2.41156 214.223 2.27623 214.223 2.13156C214.223 1.81423 214.134 1.56923 213.957 1.39656C213.78 1.2239 213.532 1.13756 213.215 1.13756C212.958 1.13756 212.802 1.1679 212.746 1.22856C212.695 1.28456 212.669 1.4409 212.669 1.69756ZM215.431 3.15356C215.431 2.52823 215.676 1.9939 216.166 1.55056C216.66 1.10256 217.23 0.878562 217.874 0.878562C218.55 0.878562 219.124 1.09323 219.596 1.52256C220.072 1.94723 220.31 2.4909 220.31 3.15356C220.31 3.81623 220.074 4.36223 219.603 4.79156C219.131 5.2209 218.555 5.43556 217.874 5.43556C217.23 5.43556 216.665 5.21623 216.18 4.77756C215.68 4.3249 215.431 3.78356 215.431 3.15356ZM219.673 3.15356C219.673 2.8689 219.638 2.60756 219.568 2.36956C219.498 2.13156 219.376 1.9099 219.204 1.70456C219.036 1.49923 218.84 1.3429 218.616 1.23556C218.392 1.12356 218.149 1.06756 217.888 1.06756C217.612 1.06756 217.353 1.12356 217.111 1.23556C216.873 1.34756 216.672 1.50623 216.509 1.71156C216.35 1.91223 216.236 2.1339 216.166 2.37656C216.096 2.61923 216.061 2.87823 216.061 3.15356C216.061 3.43356 216.096 3.69956 216.166 3.95156C216.24 4.1989 216.362 4.4229 216.53 4.62356C216.698 4.81956 216.898 4.97123 217.132 5.07856C217.37 5.1859 217.622 5.23956 217.888 5.23956C218.149 5.23956 218.396 5.18123 218.63 5.06456C218.868 4.94323 219.066 4.78223 219.225 4.58156C219.388 4.37623 219.502 4.15456 219.568 3.91656C219.638 3.67856 219.673 3.42423 219.673 3.15356ZM221.785 1.75356V4.40656C221.785 4.7099 221.813 4.9059 221.869 4.99456C221.953 5.12523 222.139 5.19056 222.429 5.19056C222.578 5.19056 222.718 5.17423 222.849 5.14156C222.984 5.10423 223.101 5.04356 223.199 4.95956C223.269 4.90356 223.339 4.8149 223.409 4.69356C223.465 4.60023 223.516 4.49523 223.563 4.37856C223.586 4.3179 223.614 4.28756 223.647 4.28756C223.689 4.28756 223.71 4.32023 223.71 4.38556C223.71 4.45556 223.696 4.58156 223.668 4.76356C223.644 4.9409 223.633 5.05756 223.633 5.11356C223.633 5.23023 223.626 5.3049 223.612 5.33756C223.598 5.36556 223.544 5.37956 223.451 5.37956C223.217 5.37956 222.828 5.3749 222.282 5.36556C221.74 5.35623 221.453 5.35156 221.421 5.35156C221.341 5.35156 221.225 5.35623 221.071 5.36556C220.917 5.3749 220.8 5.37956 220.721 5.37956C220.641 5.37956 220.602 5.3469 220.602 5.28156C220.602 5.2209 220.662 5.19056 220.784 5.19056C221.008 5.19056 221.143 5.1509 221.19 5.07156C221.218 5.0249 221.232 4.87323 221.232 4.61656V1.75356V1.59956C221.232 1.4269 221.211 1.31723 221.169 1.27056C221.113 1.2099 220.982 1.17956 220.777 1.17956C220.66 1.17956 220.602 1.14923 220.602 1.08856C220.602 1.02323 220.641 0.990562 220.721 0.990562C220.814 0.990562 220.963 0.995229 221.169 1.00456C221.379 1.0139 221.491 1.01856 221.505 1.01856C221.593 1.01856 221.745 1.0139 221.96 1.00456C222.174 0.995229 222.289 0.990562 222.303 0.990562C222.382 0.990562 222.422 1.02323 222.422 1.08856C222.422 1.1259 222.403 1.15156 222.366 1.16556C222.333 1.1749 222.291 1.17956 222.24 1.17956C222.039 1.17956 221.913 1.20756 221.862 1.26356C221.81 1.31956 221.785 1.43156 221.785 1.59956V1.75356ZM224.948 1.75356V4.40656C224.948 4.7099 224.976 4.9059 225.032 4.99456C225.116 5.12523 225.303 5.19056 225.592 5.19056C225.741 5.19056 225.881 5.17423 226.012 5.14156C226.147 5.10423 226.264 5.04356 226.362 4.95956C226.432 4.90356 226.502 4.8149 226.572 4.69356C226.628 4.60023 226.679 4.49523 226.726 4.37856C226.749 4.3179 226.777 4.28756 226.81 4.28756C226.852 4.28756 226.873 4.32023 226.873 4.38556C226.873 4.45556 226.859 4.58156 226.831 4.76356C226.808 4.9409 226.796 5.05756 226.796 5.11356C226.796 5.23023 226.789 5.3049 226.775 5.33756C226.761 5.36556 226.707 5.37956 226.614 5.37956C226.381 5.37956 225.991 5.3749 225.445 5.36556C224.904 5.35623 224.617 5.35156 224.584 5.35156C224.505 5.35156 224.388 5.35623 224.234 5.36556C224.08 5.3749 223.963 5.37956 223.884 5.37956C223.805 5.37956 223.765 5.3469 223.765 5.28156C223.765 5.2209 223.826 5.19056 223.947 5.19056C224.171 5.19056 224.306 5.1509 224.353 5.07156C224.381 5.0249 224.395 4.87323 224.395 4.61656V1.75356V1.59956C224.395 1.4269 224.374 1.31723 224.332 1.27056C224.276 1.2099 224.145 1.17956 223.94 1.17956C223.823 1.17956 223.765 1.14923 223.765 1.08856C223.765 1.02323 223.805 0.990562 223.884 0.990562C223.977 0.990562 224.127 0.995229 224.332 1.00456C224.542 1.0139 224.654 1.01856 224.668 1.01856C224.757 1.01856 224.908 1.0139 225.123 1.00456C225.338 0.995229 225.452 0.990562 225.466 0.990562C225.545 0.990562 225.585 1.02323 225.585 1.08856C225.585 1.1259 225.566 1.15156 225.529 1.16556C225.496 1.1749 225.454 1.17956 225.403 1.17956C225.202 1.17956 225.076 1.20756 225.025 1.26356C224.974 1.31956 224.948 1.43156 224.948 1.59956V1.75356ZM229.628 4.60256V1.71156V1.54356C229.628 1.4409 229.617 1.36623 229.593 1.31956C229.556 1.24956 229.491 1.21456 229.397 1.21456C229.346 1.21456 229.29 1.2239 229.229 1.24256C229.173 1.25656 229.113 1.2729 229.047 1.29156C228.996 1.29156 228.97 1.2659 228.97 1.21456C228.97 1.10723 229.234 1.02556 229.761 0.969562C230.289 0.908895 230.695 0.878562 230.979 0.878562C231.315 0.878562 231.635 0.922896 231.938 1.01156C232.246 1.09556 232.529 1.23556 232.785 1.43156C233.047 1.62756 233.257 1.87723 233.415 2.18056C233.579 2.4839 233.66 2.7989 233.66 3.12556C233.66 3.44756 233.595 3.75556 233.464 4.04956C233.334 4.34356 233.147 4.5979 232.904 4.81256C232.662 5.02256 232.391 5.16956 232.092 5.25356C231.794 5.33756 231.46 5.37956 231.091 5.37956C230.914 5.37956 230.618 5.3749 230.202 5.36556C229.787 5.35623 229.57 5.35156 229.551 5.35156C229.5 5.35156 229.414 5.35623 229.292 5.36556C229.176 5.3749 229.115 5.37956 229.11 5.37956C229.031 5.37956 228.991 5.3469 228.991 5.28156C228.991 5.24423 229.008 5.22323 229.04 5.21856C229.073 5.20923 229.117 5.20456 229.173 5.20456C229.435 5.20456 229.582 5.13456 229.614 4.99456C229.624 4.95256 229.628 4.8219 229.628 4.60256ZM230.181 1.57156V4.47656C230.181 4.78923 230.228 4.9969 230.321 5.09956C230.419 5.19756 230.622 5.24656 230.93 5.24656C231.262 5.24656 231.532 5.21156 231.742 5.14156C232.004 5.05756 232.232 4.9129 232.428 4.70756C232.629 4.49756 232.778 4.26423 232.876 4.00756C232.974 3.74623 233.023 3.47323 233.023 3.18856C233.023 2.5399 232.823 2.01956 232.421 1.62756C232.02 1.23556 231.5 1.03956 230.86 1.03956C230.72 1.03956 230.597 1.04656 230.489 1.06056C230.387 1.07456 230.312 1.1049 230.265 1.15156C230.223 1.19356 230.198 1.24723 230.188 1.31256C230.184 1.3779 230.181 1.46423 230.181 1.57156ZM234.043 3.15356C234.043 2.52823 234.288 1.9939 234.778 1.55056C235.273 1.10256 235.842 0.878562 236.486 0.878562C237.163 0.878562 237.737 1.09323 238.208 1.52256C238.684 1.94723 238.922 2.4909 238.922 3.15356C238.922 3.81623 238.686 4.36223 238.215 4.79156C237.744 5.2209 237.167 5.43556 236.486 5.43556C235.842 5.43556 235.277 5.21623 234.792 4.77756C234.293 4.3249 234.043 3.78356 234.043 3.15356ZM238.285 3.15356C238.285 2.8689 238.25 2.60756 238.18 2.36956C238.11 2.13156 237.989 1.9099 237.816 1.70456C237.648 1.49923 237.452 1.3429 237.228 1.23556C237.004 1.12356 236.761 1.06756 236.5 1.06756C236.225 1.06756 235.966 1.12356 235.723 1.23556C235.485 1.34756 235.284 1.50623 235.121 1.71156C234.962 1.91223 234.848 2.1339 234.778 2.37656C234.708 2.61923 234.673 2.87823 234.673 3.15356C234.673 3.43356 234.708 3.69956 234.778 3.95156C234.853 4.1989 234.974 4.4229 235.142 4.62356C235.31 4.81956 235.511 4.97123 235.744 5.07856C235.982 5.1859 236.234 5.23956 236.5 5.23956C236.761 5.23956 237.009 5.18123 237.242 5.06456C237.48 4.94323 237.678 4.78223 237.837 4.58156C238 4.37623 238.115 4.15456 238.18 3.91656C238.25 3.67856 238.285 3.42423 238.285 3.15356ZM242.406 3.52456L241.58 5.28156C241.557 5.3469 241.54 5.38423 241.531 5.39356C241.508 5.42156 241.482 5.43556 241.454 5.43556C241.426 5.43556 241.4 5.41223 241.377 5.36556C241.354 5.32356 241.34 5.29556 241.335 5.28156L239.683 1.72556C239.65 1.65556 239.618 1.58323 239.585 1.50856C239.534 1.39656 239.489 1.3219 239.452 1.28456C239.415 1.24256 239.373 1.21456 239.326 1.20056C239.284 1.18656 239.23 1.17956 239.165 1.17956C239.053 1.17956 238.997 1.14456 238.997 1.07456C238.997 1.01856 239.034 0.990562 239.109 0.990562C239.184 0.990562 239.296 0.995229 239.445 1.00456C239.594 1.0139 239.711 1.01856 239.795 1.01856C239.874 1.01856 240.003 1.0139 240.18 1.00456C240.362 0.995229 240.458 0.990562 240.467 0.990562C240.551 0.990562 240.593 1.02323 240.593 1.08856C240.593 1.13056 240.579 1.15623 240.551 1.16556C240.528 1.1749 240.486 1.17956 240.425 1.17956C240.346 1.17956 240.28 1.1889 240.229 1.20756C240.178 1.22623 240.152 1.26823 240.152 1.33356C240.152 1.3849 240.166 1.44556 240.194 1.51556C240.227 1.58556 240.25 1.63456 240.264 1.66256L241.657 4.66556L242.168 3.57356C242.187 3.53156 242.205 3.48723 242.224 3.44056C242.243 3.38923 242.252 3.34256 242.252 3.30056C242.252 3.24456 242.229 3.16056 242.182 3.04856C242.145 2.9739 242.121 2.92256 242.112 2.89456L241.531 1.64156C241.447 1.46423 241.398 1.36623 241.384 1.34756C241.309 1.23556 241.221 1.17956 241.118 1.17956H241.034C240.95 1.17956 240.908 1.14923 240.908 1.08856C240.908 1.02323 240.943 0.990562 241.013 0.990562C241.088 0.990562 241.216 0.995229 241.398 1.00456C241.585 1.0139 241.685 1.01856 241.699 1.01856C241.778 1.01856 241.907 1.0139 242.084 1.00456C242.266 0.995229 242.362 0.990562 242.371 0.990562C242.45 0.990562 242.49 1.02556 242.49 1.09556C242.49 1.13756 242.469 1.16323 242.427 1.17256C242.39 1.17723 242.338 1.17956 242.273 1.17956C242.203 1.17956 242.147 1.19123 242.105 1.21456C242.063 1.2379 242.042 1.2799 242.042 1.34056C242.042 1.37323 242.054 1.42223 242.077 1.48756C242.105 1.5529 242.131 1.61356 242.154 1.66956L242.602 2.64956L243.064 1.66256C243.078 1.62523 243.101 1.5669 243.134 1.48756C243.167 1.40823 243.183 1.35223 243.183 1.31956C243.183 1.27756 243.16 1.2449 243.113 1.22156C243.071 1.19356 243.027 1.17956 242.98 1.17956C242.849 1.17956 242.784 1.15156 242.784 1.09556C242.784 1.02556 242.828 0.990562 242.917 0.990562C242.973 0.990562 243.057 0.995229 243.169 1.00456C243.281 1.0139 243.365 1.01856 243.421 1.01856C243.477 1.01856 243.561 1.0139 243.673 1.00456C243.785 0.995229 243.869 0.990562 243.925 0.990562C243.986 0.990562 244.016 1.0209 244.016 1.08156C244.016 1.12823 244 1.15623 243.967 1.16556C243.934 1.1749 243.883 1.17956 243.813 1.17956C243.664 1.17956 243.54 1.24256 243.442 1.36856C243.4 1.42456 243.332 1.55523 243.239 1.76056L242.917 2.43256C242.842 2.58656 242.8 2.6799 242.791 2.71256C242.768 2.7779 242.756 2.8339 242.756 2.88056C242.756 2.92256 242.763 2.96456 242.777 3.00656C242.791 3.04856 242.828 3.13256 242.889 3.25856L243.484 4.60256L244.674 1.72556C244.697 1.67423 244.721 1.61123 244.744 1.53656C244.767 1.4619 244.779 1.40356 244.779 1.36156C244.779 1.27756 244.746 1.22623 244.681 1.20756C244.62 1.1889 244.536 1.17956 244.429 1.17956C244.35 1.17956 244.31 1.1469 244.31 1.08156C244.31 1.0209 244.35 0.990562 244.429 0.990562C244.485 0.990562 244.583 0.995229 244.723 1.00456C244.863 1.0139 244.938 1.01856 244.947 1.01856C245.003 1.01856 245.087 1.0139 245.199 1.00456C245.311 0.995229 245.397 0.990562 245.458 0.990562C245.537 0.990562 245.577 1.02556 245.577 1.09556C245.577 1.15156 245.514 1.17956 245.388 1.17956C245.337 1.17956 245.292 1.18423 245.255 1.19356C245.222 1.2029 245.183 1.23323 245.136 1.28456C245.089 1.3359 245.045 1.4059 245.003 1.49456C244.961 1.58323 244.921 1.6719 244.884 1.76056L243.428 5.27456C243.419 5.30256 243.407 5.33056 243.393 5.35856C243.379 5.39123 243.356 5.40756 243.323 5.40756C243.29 5.40756 243.258 5.37723 243.225 5.31656C243.192 5.25123 243.171 5.20923 243.162 5.19056L242.406 3.52456ZM249.261 4.44856V1.76056V1.60656C249.261 1.4339 249.236 1.31956 249.184 1.26356C249.133 1.20756 249.005 1.17956 248.799 1.17956C248.683 1.17956 248.624 1.1539 248.624 1.10256C248.624 1.0279 248.666 0.990562 248.75 0.990562C248.82 0.990562 248.937 0.995229 249.1 1.00456C249.264 1.0139 249.352 1.01856 249.366 1.01856C249.441 1.01856 249.558 1.0139 249.716 1.00456C249.88 0.995229 249.966 0.990562 249.975 0.990562C250.055 0.990562 250.094 1.0279 250.094 1.10256C250.094 1.13056 250.08 1.15156 250.052 1.16556C250.029 1.1749 249.982 1.17956 249.912 1.17956C249.693 1.17956 249.558 1.22156 249.506 1.30556C249.474 1.36156 249.457 1.51323 249.457 1.76056V5.31656C249.457 5.40523 249.441 5.44956 249.408 5.44956C249.376 5.44956 249.341 5.42856 249.303 5.38656C249.294 5.37256 249.271 5.33756 249.233 5.28156L246.293 1.45956V4.62356C246.293 4.88023 246.307 5.0319 246.335 5.07856C246.382 5.16256 246.52 5.20456 246.748 5.20456C246.865 5.20456 246.923 5.2279 246.923 5.27456C246.923 5.34456 246.884 5.37956 246.804 5.37956C246.734 5.37956 246.618 5.3749 246.454 5.36556C246.291 5.35623 246.202 5.35156 246.188 5.35156C246.123 5.35156 246.023 5.35623 245.887 5.36556C245.752 5.3749 245.649 5.37956 245.579 5.37956C245.495 5.37956 245.453 5.34456 245.453 5.27456C245.453 5.2279 245.491 5.20456 245.565 5.20456H245.635C245.901 5.20456 246.048 5.13923 246.076 5.00856C246.086 4.96656 246.09 4.83823 246.09 4.62356V1.76056V1.60656C246.09 1.42923 246.069 1.31723 246.027 1.27056C245.971 1.2099 245.841 1.17956 245.635 1.17956C245.519 1.17956 245.46 1.1539 245.46 1.10256C245.46 1.06056 245.477 1.03256 245.509 1.01856C245.547 0.999896 245.586 0.990562 245.628 0.990562H246.496C246.562 1.00456 246.618 1.0349 246.664 1.08156C246.674 1.0909 246.713 1.14223 246.783 1.23556L249.261 4.44856Z" fill="white"/>
<circle cx="278.5" cy="3.35156" r="2.5" fill="white"/>
<path d="M307.743 3.34956L307.386 3.19556C307.064 3.05556 306.831 2.9179 306.686 2.78256C306.476 2.58656 306.371 2.34623 306.371 2.06156C306.371 1.7069 306.504 1.42223 306.77 1.20756C307.041 0.988229 307.358 0.878562 307.722 0.878562C307.876 0.878562 308.037 0.892562 308.205 0.920562C308.378 0.943896 308.529 0.981229 308.66 1.03256C308.721 1.0559 308.756 1.08623 308.765 1.12356C308.779 1.15623 308.786 1.21223 308.786 1.29156L308.814 1.83756C308.814 1.89356 308.788 1.92156 308.737 1.92156C308.704 1.92156 308.679 1.89823 308.66 1.85156C308.641 1.8049 308.63 1.77456 308.625 1.76056C308.541 1.5039 308.438 1.31956 308.317 1.20756C308.177 1.08156 307.976 1.01856 307.715 1.01856C307.468 1.01856 307.255 1.0839 307.078 1.21456C306.901 1.34056 306.812 1.5249 306.812 1.76756C306.812 2.02423 306.959 2.24823 307.253 2.43956C307.356 2.5049 307.617 2.62856 308.037 2.81056C308.182 2.8759 308.305 2.9389 308.408 2.99956C308.548 3.0789 308.655 3.16056 308.73 3.24456C308.833 3.36123 308.914 3.4919 308.975 3.63656C309.036 3.77656 309.066 3.92356 309.066 4.07756C309.066 4.2689 309.022 4.4509 308.933 4.62356C308.844 4.79623 308.723 4.94556 308.569 5.07156C308.42 5.19756 308.249 5.2909 308.058 5.35156C307.871 5.40756 307.671 5.43556 307.456 5.43556C307.279 5.43556 307.094 5.4099 306.903 5.35856C306.712 5.3119 306.544 5.24656 306.399 5.16256C306.357 5.13456 306.329 5.09956 306.315 5.05756C306.306 5.0109 306.301 4.95023 306.301 4.87556V4.77056C306.301 4.6819 306.301 4.59556 306.301 4.51156C306.301 4.42756 306.306 4.34823 306.315 4.27356C306.324 4.1989 306.338 4.1499 306.357 4.12656C306.376 4.10323 306.399 4.09156 306.427 4.09156C306.469 4.09156 306.495 4.11723 306.504 4.16856C306.513 4.2199 306.52 4.27123 306.525 4.32256C306.562 4.63056 306.665 4.8709 306.833 5.04356C307.001 5.21623 307.241 5.30256 307.554 5.30256C307.834 5.30256 308.077 5.21856 308.282 5.05056C308.492 4.88256 308.597 4.66323 308.597 4.39256C308.597 4.13123 308.515 3.91423 308.352 3.74156C308.221 3.60156 308.018 3.4709 307.743 3.34956ZM313.16 1.42456L313.209 1.87956C313.209 1.94023 313.184 1.97056 313.132 1.97056C313.016 1.73723 312.859 1.53423 312.663 1.36156C312.449 1.17023 312.164 1.07456 311.809 1.07456C311.254 1.07456 310.815 1.28456 310.493 1.70456C310.199 2.08723 310.052 2.56323 310.052 3.13256C310.052 3.6459 310.197 4.10323 310.486 4.50456C310.659 4.74256 310.853 4.9269 311.067 5.05756C311.287 5.18356 311.534 5.24656 311.809 5.24656C312.159 5.24656 312.444 5.13223 312.663 4.90356C312.831 4.65156 312.999 4.39956 313.167 4.14756C313.228 4.14756 313.254 4.1779 313.244 4.23856L313.209 4.80556C313.209 4.91756 313.2 4.98756 313.181 5.01556C313.163 5.04356 313.097 5.08556 312.985 5.14156C312.57 5.33756 312.148 5.43556 311.718 5.43556C311.084 5.43556 310.542 5.21156 310.094 4.76356C309.651 4.3109 309.429 3.76956 309.429 3.13956C309.429 2.5049 309.67 1.97056 310.15 1.53656C310.636 1.0979 311.205 0.878562 311.858 0.878562C312.008 0.878562 312.192 0.897229 312.411 0.934562C312.635 0.971896 312.82 1.01623 312.964 1.06756C313.062 1.10023 313.121 1.15856 313.139 1.24256C313.139 1.2519 313.146 1.31256 313.16 1.42456ZM314.116 4.62356V1.76056V1.60656C314.116 1.42923 314.095 1.31723 314.053 1.27056C313.997 1.2099 313.866 1.17956 313.661 1.17956C313.544 1.17956 313.486 1.15156 313.486 1.09556C313.486 1.02556 313.528 0.990562 313.612 0.990562C313.687 0.990562 313.815 0.995229 313.997 1.00456C314.184 1.0139 314.284 1.01856 314.298 1.01856C314.438 1.01856 314.667 1.0139 314.984 1.00456C315.306 0.995229 315.476 0.990562 315.495 0.990562C315.864 0.990562 316.167 1.07456 316.405 1.24256C316.68 1.4339 316.818 1.70456 316.818 2.05456C316.818 2.35323 316.706 2.6029 316.482 2.80356C316.277 2.98556 316.02 3.09756 315.712 3.13956C315.81 3.15356 315.896 3.2119 315.971 3.31456C316.004 3.35656 316.06 3.45223 316.139 3.60156L316.706 4.69356C316.809 4.89423 316.874 5.0109 316.902 5.04356C316.991 5.1509 317.105 5.20456 317.245 5.20456C317.306 5.20456 317.35 5.20923 317.378 5.21856C317.411 5.2279 317.427 5.2559 317.427 5.30256C317.427 5.3539 317.385 5.37956 317.301 5.37956H316.559C316.498 5.37956 316.449 5.3539 316.412 5.30256C316.398 5.28856 316.368 5.2349 316.321 5.14156L315.635 3.77656C315.5 3.51523 315.406 3.36356 315.355 3.32156C315.276 3.2609 315.11 3.23056 314.858 3.23056C314.774 3.23056 314.723 3.24223 314.704 3.26556C314.685 3.2889 314.674 3.3379 314.669 3.41256C314.669 3.48256 314.669 3.5269 314.669 3.54556V4.62356C314.669 4.88023 314.683 5.0319 314.711 5.07856C314.762 5.16256 314.9 5.20456 315.124 5.20456C315.18 5.20456 315.224 5.20923 315.257 5.21856C315.29 5.2279 315.306 5.25123 315.306 5.28856C315.306 5.34923 315.266 5.37956 315.187 5.37956C315.094 5.37956 314.942 5.3749 314.732 5.36556C314.527 5.35623 314.417 5.35156 314.403 5.35156C314.314 5.35156 314.163 5.35623 313.948 5.36556C313.733 5.3749 313.619 5.37956 313.605 5.37956C313.526 5.37956 313.486 5.34923 313.486 5.28856C313.486 5.24656 313.5 5.22323 313.528 5.21856C313.561 5.20923 313.605 5.20456 313.661 5.20456C313.927 5.20456 314.074 5.13923 314.102 5.00856C314.111 4.96656 314.116 4.83823 314.116 4.62356ZM314.669 1.69756V2.95056C314.669 2.99723 314.688 3.03223 314.725 3.05556C314.767 3.07423 314.818 3.08356 314.879 3.08356C314.949 3.0789 314.998 3.07656 315.026 3.07656C315.222 3.07656 315.385 3.06256 315.516 3.03456C315.647 3.00656 315.77 2.94823 315.887 2.85956C316.004 2.76623 316.088 2.6589 316.139 2.53756C316.195 2.41156 316.223 2.27623 316.223 2.13156C316.223 1.81423 316.134 1.56923 315.957 1.39656C315.78 1.2239 315.532 1.13756 315.215 1.13756C314.958 1.13756 314.802 1.1679 314.746 1.22856C314.695 1.28456 314.669 1.4409 314.669 1.69756ZM317.431 3.15356C317.431 2.52823 317.676 1.9939 318.166 1.55056C318.66 1.10256 319.23 0.878562 319.874 0.878562C320.55 0.878562 321.124 1.09323 321.596 1.52256C322.072 1.94723 322.31 2.4909 322.31 3.15356C322.31 3.81623 322.074 4.36223 321.603 4.79156C321.131 5.2209 320.555 5.43556 319.874 5.43556C319.23 5.43556 318.665 5.21623 318.18 4.77756C317.68 4.3249 317.431 3.78356 317.431 3.15356ZM321.673 3.15356C321.673 2.8689 321.638 2.60756 321.568 2.36956C321.498 2.13156 321.376 1.9099 321.204 1.70456C321.036 1.49923 320.84 1.3429 320.616 1.23556C320.392 1.12356 320.149 1.06756 319.888 1.06756C319.612 1.06756 319.353 1.12356 319.111 1.23556C318.873 1.34756 318.672 1.50623 318.509 1.71156C318.35 1.91223 318.236 2.1339 318.166 2.37656C318.096 2.61923 318.061 2.87823 318.061 3.15356C318.061 3.43356 318.096 3.69956 318.166 3.95156C318.24 4.1989 318.362 4.4229 318.53 4.62356C318.698 4.81956 318.898 4.97123 319.132 5.07856C319.37 5.1859 319.622 5.23956 319.888 5.23956C320.149 5.23956 320.396 5.18123 320.63 5.06456C320.868 4.94323 321.066 4.78223 321.225 4.58156C321.388 4.37623 321.502 4.15456 321.568 3.91656C321.638 3.67856 321.673 3.42423 321.673 3.15356ZM323.785 1.75356V4.40656C323.785 4.7099 323.813 4.9059 323.869 4.99456C323.953 5.12523 324.139 5.19056 324.429 5.19056C324.578 5.19056 324.718 5.17423 324.849 5.14156C324.984 5.10423 325.101 5.04356 325.199 4.95956C325.269 4.90356 325.339 4.8149 325.409 4.69356C325.465 4.60023 325.516 4.49523 325.563 4.37856C325.586 4.3179 325.614 4.28756 325.647 4.28756C325.689 4.28756 325.71 4.32023 325.71 4.38556C325.71 4.45556 325.696 4.58156 325.668 4.76356C325.644 4.9409 325.633 5.05756 325.633 5.11356C325.633 5.23023 325.626 5.3049 325.612 5.33756C325.598 5.36556 325.544 5.37956 325.451 5.37956C325.217 5.37956 324.828 5.3749 324.282 5.36556C323.74 5.35623 323.453 5.35156 323.421 5.35156C323.341 5.35156 323.225 5.35623 323.071 5.36556C322.917 5.3749 322.8 5.37956 322.721 5.37956C322.641 5.37956 322.602 5.3469 322.602 5.28156C322.602 5.2209 322.662 5.19056 322.784 5.19056C323.008 5.19056 323.143 5.1509 323.19 5.07156C323.218 5.0249 323.232 4.87323 323.232 4.61656V1.75356V1.59956C323.232 1.4269 323.211 1.31723 323.169 1.27056C323.113 1.2099 322.982 1.17956 322.777 1.17956C322.66 1.17956 322.602 1.14923 322.602 1.08856C322.602 1.02323 322.641 0.990562 322.721 0.990562C322.814 0.990562 322.963 0.995229 323.169 1.00456C323.379 1.0139 323.491 1.01856 323.505 1.01856C323.593 1.01856 323.745 1.0139 323.96 1.00456C324.174 0.995229 324.289 0.990562 324.303 0.990562C324.382 0.990562 324.422 1.02323 324.422 1.08856C324.422 1.1259 324.403 1.15156 324.366 1.16556C324.333 1.1749 324.291 1.17956 324.24 1.17956C324.039 1.17956 323.913 1.20756 323.862 1.26356C323.81 1.31956 323.785 1.43156 323.785 1.59956V1.75356ZM326.948 1.75356V4.40656C326.948 4.7099 326.976 4.9059 327.032 4.99456C327.116 5.12523 327.303 5.19056 327.592 5.19056C327.741 5.19056 327.881 5.17423 328.012 5.14156C328.147 5.10423 328.264 5.04356 328.362 4.95956C328.432 4.90356 328.502 4.8149 328.572 4.69356C328.628 4.60023 328.679 4.49523 328.726 4.37856C328.749 4.3179 328.777 4.28756 328.81 4.28756C328.852 4.28756 328.873 4.32023 328.873 4.38556C328.873 4.45556 328.859 4.58156 328.831 4.76356C328.808 4.9409 328.796 5.05756 328.796 5.11356C328.796 5.23023 328.789 5.3049 328.775 5.33756C328.761 5.36556 328.707 5.37956 328.614 5.37956C328.381 5.37956 327.991 5.3749 327.445 5.36556C326.904 5.35623 326.617 5.35156 326.584 5.35156C326.505 5.35156 326.388 5.35623 326.234 5.36556C326.08 5.3749 325.963 5.37956 325.884 5.37956C325.805 5.37956 325.765 5.3469 325.765 5.28156C325.765 5.2209 325.826 5.19056 325.947 5.19056C326.171 5.19056 326.306 5.1509 326.353 5.07156C326.381 5.0249 326.395 4.87323 326.395 4.61656V1.75356V1.59956C326.395 1.4269 326.374 1.31723 326.332 1.27056C326.276 1.2099 326.145 1.17956 325.94 1.17956C325.823 1.17956 325.765 1.14923 325.765 1.08856C325.765 1.02323 325.805 0.990562 325.884 0.990562C325.977 0.990562 326.127 0.995229 326.332 1.00456C326.542 1.0139 326.654 1.01856 326.668 1.01856C326.757 1.01856 326.908 1.0139 327.123 1.00456C327.338 0.995229 327.452 0.990562 327.466 0.990562C327.545 0.990562 327.585 1.02323 327.585 1.08856C327.585 1.1259 327.566 1.15156 327.529 1.16556C327.496 1.1749 327.454 1.17956 327.403 1.17956C327.202 1.17956 327.076 1.20756 327.025 1.26356C326.974 1.31956 326.948 1.43156 326.948 1.59956V1.75356ZM331.628 4.60256V1.71156V1.54356C331.628 1.4409 331.617 1.36623 331.593 1.31956C331.556 1.24956 331.491 1.21456 331.397 1.21456C331.346 1.21456 331.29 1.2239 331.229 1.24256C331.173 1.25656 331.113 1.2729 331.047 1.29156C330.996 1.29156 330.97 1.2659 330.97 1.21456C330.97 1.10723 331.234 1.02556 331.761 0.969562C332.289 0.908895 332.695 0.878562 332.979 0.878562C333.315 0.878562 333.635 0.922896 333.938 1.01156C334.246 1.09556 334.529 1.23556 334.785 1.43156C335.047 1.62756 335.257 1.87723 335.415 2.18056C335.579 2.4839 335.66 2.7989 335.66 3.12556C335.66 3.44756 335.595 3.75556 335.464 4.04956C335.334 4.34356 335.147 4.5979 334.904 4.81256C334.662 5.02256 334.391 5.16956 334.092 5.25356C333.794 5.33756 333.46 5.37956 333.091 5.37956C332.914 5.37956 332.618 5.3749 332.202 5.36556C331.787 5.35623 331.57 5.35156 331.551 5.35156C331.5 5.35156 331.414 5.35623 331.292 5.36556C331.176 5.3749 331.115 5.37956 331.11 5.37956C331.031 5.37956 330.991 5.3469 330.991 5.28156C330.991 5.24423 331.008 5.22323 331.04 5.21856C331.073 5.20923 331.117 5.20456 331.173 5.20456C331.435 5.20456 331.582 5.13456 331.614 4.99456C331.624 4.95256 331.628 4.8219 331.628 4.60256ZM332.181 1.57156V4.47656C332.181 4.78923 332.228 4.9969 332.321 5.09956C332.419 5.19756 332.622 5.24656 332.93 5.24656C333.262 5.24656 333.532 5.21156 333.742 5.14156C334.004 5.05756 334.232 4.9129 334.428 4.70756C334.629 4.49756 334.778 4.26423 334.876 4.00756C334.974 3.74623 335.023 3.47323 335.023 3.18856C335.023 2.5399 334.823 2.01956 334.421 1.62756C334.02 1.23556 333.5 1.03956 332.86 1.03956C332.72 1.03956 332.597 1.04656 332.489 1.06056C332.387 1.07456 332.312 1.1049 332.265 1.15156C332.223 1.19356 332.198 1.24723 332.188 1.31256C332.184 1.3779 332.181 1.46423 332.181 1.57156ZM336.043 3.15356C336.043 2.52823 336.288 1.9939 336.778 1.55056C337.273 1.10256 337.842 0.878562 338.486 0.878562C339.163 0.878562 339.737 1.09323 340.208 1.52256C340.684 1.94723 340.922 2.4909 340.922 3.15356C340.922 3.81623 340.686 4.36223 340.215 4.79156C339.744 5.2209 339.167 5.43556 338.486 5.43556C337.842 5.43556 337.277 5.21623 336.792 4.77756C336.293 4.3249 336.043 3.78356 336.043 3.15356ZM340.285 3.15356C340.285 2.8689 340.25 2.60756 340.18 2.36956C340.11 2.13156 339.989 1.9099 339.816 1.70456C339.648 1.49923 339.452 1.3429 339.228 1.23556C339.004 1.12356 338.761 1.06756 338.5 1.06756C338.225 1.06756 337.966 1.12356 337.723 1.23556C337.485 1.34756 337.284 1.50623 337.121 1.71156C336.962 1.91223 336.848 2.1339 336.778 2.37656C336.708 2.61923 336.673 2.87823 336.673 3.15356C336.673 3.43356 336.708 3.69956 336.778 3.95156C336.853 4.1989 336.974 4.4229 337.142 4.62356C337.31 4.81956 337.511 4.97123 337.744 5.07856C337.982 5.1859 338.234 5.23956 338.5 5.23956C338.761 5.23956 339.009 5.18123 339.242 5.06456C339.48 4.94323 339.678 4.78223 339.837 4.58156C340 4.37623 340.115 4.15456 340.18 3.91656C340.25 3.67856 340.285 3.42423 340.285 3.15356ZM344.406 3.52456L343.58 5.28156C343.557 5.3469 343.54 5.38423 343.531 5.39356C343.508 5.42156 343.482 5.43556 343.454 5.43556C343.426 5.43556 343.4 5.41223 343.377 5.36556C343.354 5.32356 343.34 5.29556 343.335 5.28156L341.683 1.72556C341.65 1.65556 341.618 1.58323 341.585 1.50856C341.534 1.39656 341.489 1.3219 341.452 1.28456C341.415 1.24256 341.373 1.21456 341.326 1.20056C341.284 1.18656 341.23 1.17956 341.165 1.17956C341.053 1.17956 340.997 1.14456 340.997 1.07456C340.997 1.01856 341.034 0.990562 341.109 0.990562C341.184 0.990562 341.296 0.995229 341.445 1.00456C341.594 1.0139 341.711 1.01856 341.795 1.01856C341.874 1.01856 342.003 1.0139 342.18 1.00456C342.362 0.995229 342.458 0.990562 342.467 0.990562C342.551 0.990562 342.593 1.02323 342.593 1.08856C342.593 1.13056 342.579 1.15623 342.551 1.16556C342.528 1.1749 342.486 1.17956 342.425 1.17956C342.346 1.17956 342.28 1.1889 342.229 1.20756C342.178 1.22623 342.152 1.26823 342.152 1.33356C342.152 1.3849 342.166 1.44556 342.194 1.51556C342.227 1.58556 342.25 1.63456 342.264 1.66256L343.657 4.66556L344.168 3.57356C344.187 3.53156 344.205 3.48723 344.224 3.44056C344.243 3.38923 344.252 3.34256 344.252 3.30056C344.252 3.24456 344.229 3.16056 344.182 3.04856C344.145 2.9739 344.121 2.92256 344.112 2.89456L343.531 1.64156C343.447 1.46423 343.398 1.36623 343.384 1.34756C343.309 1.23556 343.221 1.17956 343.118 1.17956H343.034C342.95 1.17956 342.908 1.14923 342.908 1.08856C342.908 1.02323 342.943 0.990562 343.013 0.990562C343.088 0.990562 343.216 0.995229 343.398 1.00456C343.585 1.0139 343.685 1.01856 343.699 1.01856C343.778 1.01856 343.907 1.0139 344.084 1.00456C344.266 0.995229 344.362 0.990562 344.371 0.990562C344.45 0.990562 344.49 1.02556 344.49 1.09556C344.49 1.13756 344.469 1.16323 344.427 1.17256C344.39 1.17723 344.338 1.17956 344.273 1.17956C344.203 1.17956 344.147 1.19123 344.105 1.21456C344.063 1.2379 344.042 1.2799 344.042 1.34056C344.042 1.37323 344.054 1.42223 344.077 1.48756C344.105 1.5529 344.131 1.61356 344.154 1.66956L344.602 2.64956L345.064 1.66256C345.078 1.62523 345.101 1.5669 345.134 1.48756C345.167 1.40823 345.183 1.35223 345.183 1.31956C345.183 1.27756 345.16 1.2449 345.113 1.22156C345.071 1.19356 345.027 1.17956 344.98 1.17956C344.849 1.17956 344.784 1.15156 344.784 1.09556C344.784 1.02556 344.828 0.990562 344.917 0.990562C344.973 0.990562 345.057 0.995229 345.169 1.00456C345.281 1.0139 345.365 1.01856 345.421 1.01856C345.477 1.01856 345.561 1.0139 345.673 1.00456C345.785 0.995229 345.869 0.990562 345.925 0.990562C345.986 0.990562 346.016 1.0209 346.016 1.08156C346.016 1.12823 346 1.15623 345.967 1.16556C345.934 1.1749 345.883 1.17956 345.813 1.17956C345.664 1.17956 345.54 1.24256 345.442 1.36856C345.4 1.42456 345.332 1.55523 345.239 1.76056L344.917 2.43256C344.842 2.58656 344.8 2.6799 344.791 2.71256C344.768 2.7779 344.756 2.8339 344.756 2.88056C344.756 2.92256 344.763 2.96456 344.777 3.00656C344.791 3.04856 344.828 3.13256 344.889 3.25856L345.484 4.60256L346.674 1.72556C346.697 1.67423 346.721 1.61123 346.744 1.53656C346.767 1.4619 346.779 1.40356 346.779 1.36156C346.779 1.27756 346.746 1.22623 346.681 1.20756C346.62 1.1889 346.536 1.17956 346.429 1.17956C346.35 1.17956 346.31 1.1469 346.31 1.08156C346.31 1.0209 346.35 0.990562 346.429 0.990562C346.485 0.990562 346.583 0.995229 346.723 1.00456C346.863 1.0139 346.938 1.01856 346.947 1.01856C347.003 1.01856 347.087 1.0139 347.199 1.00456C347.311 0.995229 347.397 0.990562 347.458 0.990562C347.537 0.990562 347.577 1.02556 347.577 1.09556C347.577 1.15156 347.514 1.17956 347.388 1.17956C347.337 1.17956 347.292 1.18423 347.255 1.19356C347.222 1.2029 347.183 1.23323 347.136 1.28456C347.089 1.3359 347.045 1.4059 347.003 1.49456C346.961 1.58323 346.921 1.6719 346.884 1.76056L345.428 5.27456C345.419 5.30256 345.407 5.33056 345.393 5.35856C345.379 5.39123 345.356 5.40756 345.323 5.40756C345.29 5.40756 345.258 5.37723 345.225 5.31656C345.192 5.25123 345.171 5.20923 345.162 5.19056L344.406 3.52456ZM351.261 4.44856V1.76056V1.60656C351.261 1.4339 351.236 1.31956 351.184 1.26356C351.133 1.20756 351.005 1.17956 350.799 1.17956C350.683 1.17956 350.624 1.1539 350.624 1.10256C350.624 1.0279 350.666 0.990562 350.75 0.990562C350.82 0.990562 350.937 0.995229 351.1 1.00456C351.264 1.0139 351.352 1.01856 351.366 1.01856C351.441 1.01856 351.558 1.0139 351.716 1.00456C351.88 0.995229 351.966 0.990562 351.975 0.990562C352.055 0.990562 352.094 1.0279 352.094 1.10256C352.094 1.13056 352.08 1.15156 352.052 1.16556C352.029 1.1749 351.982 1.17956 351.912 1.17956C351.693 1.17956 351.558 1.22156 351.506 1.30556C351.474 1.36156 351.457 1.51323 351.457 1.76056V5.31656C351.457 5.40523 351.441 5.44956 351.408 5.44956C351.376 5.44956 351.341 5.42856 351.303 5.38656C351.294 5.37256 351.271 5.33756 351.233 5.28156L348.293 1.45956V4.62356C348.293 4.88023 348.307 5.0319 348.335 5.07856C348.382 5.16256 348.52 5.20456 348.748 5.20456C348.865 5.20456 348.923 5.2279 348.923 5.27456C348.923 5.34456 348.884 5.37956 348.804 5.37956C348.734 5.37956 348.618 5.3749 348.454 5.36556C348.291 5.35623 348.202 5.35156 348.188 5.35156C348.123 5.35156 348.023 5.35623 347.887 5.36556C347.752 5.3749 347.649 5.37956 347.579 5.37956C347.495 5.37956 347.453 5.34456 347.453 5.27456C347.453 5.2279 347.491 5.20456 347.565 5.20456H347.635C347.901 5.20456 348.048 5.13923 348.076 5.00856C348.086 4.96656 348.09 4.83823 348.09 4.62356V1.76056V1.60656C348.09 1.42923 348.069 1.31723 348.027 1.27056C347.971 1.2099 347.841 1.17956 347.635 1.17956C347.519 1.17956 347.46 1.1539 347.46 1.10256C347.46 1.06056 347.477 1.03256 347.509 1.01856C347.547 0.999896 347.586 0.990562 347.628 0.990562H348.496C348.562 1.00456 348.618 1.0349 348.664 1.08156C348.674 1.0909 348.713 1.14223 348.783 1.23556L351.261 4.44856Z" fill="white"/>
</svg>
